<svg width="146" height="38" viewBox="0 0 146 38" fill="none" xmlns="http://www.w3.org/2000/svg">
<path fill-rule="evenodd" clip-rule="evenodd" d="M145.107 22.5995L144.931 22.0801L144.741 21.5241L144.529 20.9534L144.294 20.3535L144.06 19.7243L143.797 19.0878L143.533 18.422L143.248 17.7489L142.962 17.0539L142.662 16.3442L142.355 15.6273L142.047 14.8956L141.725 14.164L141.403 13.4251L141.081 12.6789L140.751 11.9399L140.429 11.1937L140.107 10.4548L139.785 9.73046L139.47 9.00616L139.156 8.28918L138.856 7.59415L138.563 6.91375L138.277 6.24798L137.999 5.60416L137.736 4.98229L137.487 4.38236L137.252 3.81171L137.033 3.27763L136.835 2.77281L135.788 0.0292645L133.292 0.673084L133.146 0.716981L132.985 0.760878L132.831 0.797459L132.67 0.841355L132.509 0.892568L132.341 0.936465L132.18 0.987678L132.011 1.03889L131.836 1.0901L131.675 1.14132L131.499 1.19253L131.33 1.25106L131.155 1.30959L130.986 1.36812L130.811 1.42665L130.642 1.48518L130.467 1.55102L130.298 1.60955L130.13 1.67539L129.962 1.74124L129.793 1.80709L129.347 1.66808L128.285 1.93878L127.963 2.01925L127.634 2.10705L127.319 2.18021L126.99 2.268L126.66 2.34848L126.338 2.43627L126.016 2.53138L125.687 2.63381L125.357 2.73623L125.028 2.85329L124.698 2.98498L124.369 3.13131L124.032 3.29226L123.703 3.47516L123.366 3.68002L123.037 3.90682L122.715 4.1702L122.393 4.46284L122.092 4.78475L121.822 5.14324L121.573 5.531L121.353 5.9407L121.177 6.37235L121.031 6.81132L120.921 7.27224L120.885 7.50635L120.826 7.5283L120.746 7.55757L120.658 7.58683L120.57 7.62341L120.489 7.65999L120.402 7.69657L120.321 7.73315L120.226 7.76973L120.145 7.81363L120.123 7.83558L119.867 7.80631H119.552L119.245 7.81363L118.945 7.85021L118.652 7.88679L118.381 7.94532L118.118 8.01117L117.854 8.08433L117.605 8.16481L117.364 8.2526L117.129 8.34771L116.902 8.44282L116.69 8.54525L116.471 8.65499L116.266 8.76473L116.061 8.87447L115.87 8.99153L115.68 9.10859L115.519 9.21833H115.497L115.219 9.21101H114.948L114.684 9.22565L114.414 9.24759L114.15 9.27686L113.887 9.31344L113.623 9.35002L113.36 9.40123L113.103 9.45245L112.832 9.51829L112.576 9.58414L112.32 9.6573L112.064 9.73777L111.808 9.82557L111.551 9.92068L111.303 10.0231L111.054 10.1328L110.805 10.2426L110.556 10.3743L110.314 10.5133L110.058 10.6669L109.817 10.8425L109.699 10.9303L109.67 10.9376L109.524 10.9742L109.37 11.0108L109.224 11.0474L109.07 11.0839L108.916 11.1205L108.77 11.1571L108.623 11.1937L108.477 11.2303L108.331 11.2668L108.177 11.3034L108.03 11.34L107.877 11.3766L107.73 11.4132L107.584 11.4571L107.438 11.4936L107.291 11.5302L107.145 11.5668L106.998 11.6034L106.852 11.64L106.706 11.6839L106.566 11.7131L106.42 11.7497L106.274 11.7936L106.127 11.8302L105.981 11.8595L105.834 11.9033L105.19 12.0643L104.619 12.4813L104.51 12.5545L104.392 12.6276L104.268 12.7008L104.136 12.774L103.99 12.8471L103.836 12.9203L103.675 13.0008L103.492 13.0812L103.309 13.169L103.119 13.2568L102.914 13.3519L102.694 13.4544L102.467 13.5641L102.24 13.6739L101.999 13.8055L101.75 13.9446L101.494 14.0982L101.237 14.2591L100.974 14.4494L100.71 14.6615L100.703 14.5079L100.681 14.2738L100.659 14.0543L100.637 13.8348L100.615 13.6226L100.586 13.4178L100.564 13.2203L100.535 13.0227L100.498 12.8325L100.469 12.6423L100.432 12.4594L100.396 12.2692L100.344 12.0643L100.293 11.8741L100.242 11.6839L100.176 11.4863L100.11 11.2961L100.037 11.1059L99.9564 10.9157L99.8759 10.7328L99.788 10.5499L99.7002 10.367L99.5977 10.1914L99.4952 10.0158L99.3927 9.8402L99.2829 9.67193L99.1658 9.51097L99.0487 9.3427L98.9242 9.17443L98.7998 9.02079L98.668 8.86715L98.5363 8.71352L98.3972 8.55988L98.2581 8.42087L98.1117 8.27455L97.958 8.13554L97.8116 7.99653L97.6579 7.86484L97.4968 7.73315L97.3358 7.60146L97.1747 7.47709L97.0064 7.36003L96.8307 7.22834L96.6477 7.10397L96.4427 6.97959L96.2451 6.85522L96.0401 6.73816L95.8278 6.62842L95.6155 6.52599L95.4033 6.43088L95.1837 6.32846L94.9641 6.24066L94.7444 6.16018L94.5175 6.07971L94.2833 5.99923L94.0564 5.93338L93.8221 5.86754L93.5879 5.80169L93.3463 5.74317L93.1047 5.69195L92.8632 5.63342L92.6143 5.59684L92.3727 5.55295L92.1165 5.50905L91.8603 5.47247L91.6041 5.4432L91.3406 5.41394L91.0771 5.39199L90.8135 5.37004L90.55 5.35541L90.2719 5.34078L90.001 5.32615L89.7228 5.31883H89.4447L89.1592 5.31151L88.9176 5.31883H88.6761L88.4345 5.32615L88.2002 5.33346L87.966 5.34809L87.7318 5.36273L87.4975 5.38467L87.2706 5.40662L87.0364 5.42857L86.8094 5.45784L86.5825 5.4871L86.3629 5.52368L86.136 5.56026L85.9164 5.60416L85.6968 5.64806L85.4772 5.69927L85.2649 5.75048L85.0526 5.80169L84.833 5.86022L84.6207 5.92607L84.4157 5.9846L84.2108 6.05776L84.0058 6.13092L83.8009 6.20408L83.6032 6.29188L83.4056 6.37235L83.2006 6.46015L83.0103 6.55526L82.82 6.65037L82.6296 6.75279L82.4393 6.85522L82.2636 6.95764L82.0879 7.06007L81.9342 7.1625L81.7732 7.26492L81.6195 7.37466L81.4584 7.47709L81.3047 7.58683L81.1583 7.69657L81.0119 7.80631L80.8655 7.92337L80.7264 8.04043L80.5873 8.15017L80.4482 8.27455L80.3165 8.39892L80.1774 8.5233L80.0529 8.64767L79.9285 8.77936L79.7967 8.90374L79.6869 9.03543L79.6723 8.91837L79.6357 8.66962L79.5991 8.42819L79.5625 8.18675L79.5186 7.95264L79.4673 7.71852L79.4234 7.4844L79.3649 7.25029L79.3136 7.02349L79.2477 6.79669L79.1818 6.5772L79.1087 6.35772L79.0354 6.13824L78.9549 5.92607L78.8744 5.7139L78.7866 5.50173L78.6914 5.29688L78.5889 5.09203L78.4864 4.89449L78.3766 4.69696L78.2595 4.49942L78.1424 4.31652L78.0253 4.14825L77.9155 3.99461L77.7983 3.84097L77.6812 3.68733L77.5641 3.54101L77.447 3.39469L77.3225 3.24836L77.1908 3.10936L77.059 2.97035L76.9272 2.83866L76.7955 2.70697L76.6491 2.57528L76.51 2.4509L76.3636 2.32653L76.2172 2.20947L76.0708 2.09241L75.9171 1.98267L75.7634 1.87293L75.6023 1.76319L75.4413 1.66808L75.2802 1.56565L75.1192 1.47054L74.9508 1.38275L74.7825 1.28764L74.6141 1.20716L74.4384 1.12668L74.27 1.05352L74.0944 0.980362L73.9114 0.907201L73.7357 0.848671L73.5527 0.790142L73.377 0.731613L73.2086 0.6804L73.0329 0.636504L72.8573 0.585291L72.6816 0.541394L72.4986 0.504813L72.3156 0.460916L72.1326 0.424336L71.9496 0.387755L71.7519 0.358491L71.5616 0.32191L71.3713 0.292645L71.1736 0.270697L70.976 0.241432L70.771 0.212168L70.5587 0.190219L70.3538 0.168271L70.1415 0.146323L69.9292 0.124374L69.7169 0.109742L69.49 0.0951097L69.2704 0.0731613L69.0435 0.0658452L68.8166 0.0512129L68.5823 0.0365807L68.3481 0.0292645L68.1065 0.0219484L67.8649 0.0146323L67.6234 0.00731613H67.3745L67.1256 0H66.8694H66.6132H55.5598V8.63304L55.4939 8.55988L55.3548 8.42087L55.2011 8.27455L55.0547 8.13554L54.9083 7.99653L54.7473 7.86484L54.6008 7.73315L54.4325 7.60146L54.2714 7.47709L54.1031 7.36003L53.9274 7.22834L53.7371 7.10397L53.5394 6.97959L53.3345 6.85522L53.1368 6.73816L52.9245 6.62842L52.7123 6.52599L52.5 6.43088L52.2804 6.32846L52.0608 6.24066L51.8412 6.16018L51.6142 6.07971L51.38 5.99923L51.1531 5.93338L50.9188 5.86754L50.6846 5.80169L50.443 5.74317L50.2015 5.69195L49.9599 5.63342L49.711 5.59684L49.4621 5.55295L49.2059 5.50905L48.957 5.47247L48.7008 5.4432L48.4373 5.41394L48.1738 5.39199L47.9103 5.37004L47.6467 5.35541L47.3759 5.34078L47.0977 5.32615L46.8196 5.31883H46.5414L46.2559 5.31151L46.0143 5.31883H45.7728L45.5312 5.32615L45.297 5.33346L45.0627 5.34809L44.8285 5.36273L44.5942 5.38467L44.36 5.40662L44.1331 5.42857L43.9061 5.45784L43.6792 5.4871L43.4523 5.52368L43.2327 5.56026L43.0131 5.60416L42.7935 5.64806L42.5739 5.69927L42.3616 5.75048L42.142 5.80169L41.937 5.86022L41.7247 5.92607L41.5125 5.9846L41.3075 6.05776L41.1025 6.13092L40.8976 6.20408L40.6999 6.29188L40.5023 6.37235L40.3046 6.46015L40.107 6.55526L39.9167 6.65037L39.7263 6.75279L39.536 6.85522L39.3603 6.95764L39.1847 7.06007L39.0236 7.1625L38.8699 7.26492L38.7089 7.37466L38.5551 7.47709L38.4087 7.58683L38.2989 7.65999L39.1847 0H0L4.3628 37.5318H19.5081L19.6106 36.8075L19.7497 37.5318H34.8511L35.2977 33.6688L35.3562 33.8005L35.4587 34.0273L35.5758 34.2541L35.7003 34.4663L35.8247 34.6931L35.9711 34.898L36.1175 35.1028L36.2786 35.3077L36.4543 35.4979L36.6373 35.6954L36.8203 35.871L37.0252 36.0466L37.2302 36.2076L37.4278 36.3466L37.5962 36.4636L37.7499 36.5587L37.9036 36.6465L38.0574 36.7416L38.2111 36.8294L38.3721 36.9099L38.5258 36.9977L38.6869 37.0709L38.8479 37.144L39.0163 37.2245L39.1773 37.2903L39.3384 37.3562L39.5067 37.4147L39.6751 37.4806L39.8508 37.5391L40.0118 37.5903L40.1875 37.6415L40.3559 37.6854L40.5316 37.7293L40.6999 37.7659L40.8756 37.8025L41.0513 37.839L41.227 37.8756L41.4027 37.8976L41.5783 37.9268L41.754 37.9415L41.9297 37.9634L42.1054 37.9781L42.2884 37.9854L42.4641 37.9927L42.6471 38H42.8228H42.9618H43.1009L43.2327 37.9927L43.3718 37.9854L43.5035 37.9781L43.6426 37.9707L43.7817 37.9561L43.9135 37.9415L44.0452 37.9268L44.1843 37.9049L44.3161 37.8829L44.4552 37.861L44.5869 37.8317L44.726 37.8025L44.8504 37.7805L44.9895 37.7439L45.1213 37.7074L45.253 37.6708L45.3848 37.6342L45.5166 37.5903L45.6483 37.5464L45.7728 37.5025L45.9045 37.4513L46.029 37.4001L46.1607 37.3415L46.2852 37.2903L46.3218 37.2757L46.9586 37.5318H55.5598H57.9974H67.9381H68.2602L68.575 37.5245H68.8824L69.1899 37.5171H69.4827L69.7755 37.5025H70.061L70.3391 37.4879L70.61 37.4806L70.8735 37.4659L71.137 37.4586L71.3932 37.444L71.6421 37.4293L71.8837 37.4147L72.1252 37.3928L72.3522 37.3781L72.5864 37.3562L72.806 37.3269L73.0256 37.305L73.2379 37.283L73.4429 37.2611L73.6478 37.2318L73.8455 37.1952L74.0431 37.166L74.2334 37.1294L74.4238 37.0928L74.6068 37.0562L74.7971 37.0123L74.9728 36.9611L75.1558 36.9099L75.3315 36.8587L75.5071 36.8002L75.6682 36.7416L75.8292 36.6758L75.983 36.6099L76.1294 36.5368L76.2904 36.4709L76.4368 36.3978L76.5832 36.3173L76.7369 36.2295L76.876 36.1417L77.0224 36.0539L77.1615 35.9588L77.3006 35.8637L77.4323 35.7539L77.5714 35.6515L77.7032 35.5418L77.8276 35.432L77.9521 35.3223L78.0692 35.1979L78.1936 35.0809L78.3108 34.9492L78.4206 34.8248L78.5304 34.6931L78.6328 34.5614L78.6475 34.5395L78.7353 34.6931L78.8744 34.898L79.0208 35.1028L79.1892 35.3077L79.3575 35.4979L79.5332 35.6954L79.7309 35.871L79.9285 36.0466L80.1335 36.2076L80.3384 36.3466L80.4995 36.4636L80.6605 36.5587L80.8069 36.6465L80.968 36.7416L81.1217 36.8294L81.2754 36.9099L81.4365 36.9977L81.5975 37.0709L81.7585 37.144L81.9196 37.2245L82.0806 37.2903L82.2417 37.3562L82.41 37.4147L82.5784 37.4806L82.7468 37.5391L82.9224 37.5903L83.0908 37.6415L83.2592 37.6854L83.4349 37.7293L83.6105 37.7659L83.7789 37.8025L83.9546 37.839L84.1303 37.8756L84.3059 37.8976L84.4816 37.9268L84.6573 37.9415L84.833 37.9634L85.016 37.9781L85.1917 37.9854L85.3674 37.9927L85.5504 38H85.7261H85.8651H86.0042L86.136 37.9927L86.2751 37.9854L86.4141 37.9781L86.5459 37.9707L86.685 37.9561L86.8241 37.9415L86.9558 37.9268L87.0876 37.9049L87.2267 37.8829L87.3584 37.861L87.4975 37.8317L87.622 37.8025L87.761 37.7805L87.8928 37.7439L88.0246 37.7074L88.1563 37.6708L88.2881 37.6342L88.4199 37.5903L88.5443 37.5464L88.6761 37.5025L88.8078 37.4513L88.9323 37.4001L89.064 37.3415L89.1885 37.2903L89.2251 37.2757L89.8619 37.5318H100.901V29.1255L101.032 29.3377L101.333 29.7767L101.647 30.2083L101.969 30.6253L102.306 31.0277L102.672 31.4155L103.053 31.7813L103.067 31.7959L104.758 38L108.784 37.4367L109.129 37.3928L109.48 37.3342L109.839 37.283L110.205 37.2245L110.571 37.1586L110.937 37.0928L111.317 37.0196L111.698 36.9318L112.079 36.8367L112.459 36.7343L112.847 36.6172L113.235 36.4856L113.623 36.3466L114.011 36.1856L114.399 36.01L114.787 35.8125L115.168 35.6003L115.541 35.3589L115.914 35.1028L116.273 34.8175L116.632 34.5102L116.961 34.1737L117.29 33.8152L117.591 33.4274L117.876 33.0177L118.132 32.5934L118.374 32.1398L118.586 31.6715L118.776 31.1814L118.937 30.6765L119.077 30.1498L119.113 29.9376H119.135L119.26 29.8937L119.384 29.8498L119.53 29.8132L119.677 29.762L119.845 29.7255L120.021 29.6742L120.204 29.6303L120.387 29.5864L120.585 29.5352L120.782 29.4913L120.987 29.4401L121.199 29.3889L121.419 29.345L121.639 29.2865L121.858 29.228L122.085 29.1694L122.312 29.1109L122.546 29.0451L122.781 28.9719L123.015 28.8987L123.256 28.8183L123.476 28.7305L125.225 29.345L125.943 29.228H126.009L126.075 29.206L126.14 29.1987L126.206 29.1841L126.272 29.1694L126.331 29.1621L126.389 29.1475L126.448 29.1328L126.507 29.1182L126.558 29.1036L126.616 29.0963L126.668 29.0816L126.719 29.067L126.77 29.0524L126.814 29.0451L126.865 29.0304L126.909 29.0158L126.953 29.0012L126.997 28.9938L127.041 28.9865L127.085 28.9646L127.129 28.9573L127.165 28.9499L127.202 28.9353L127.239 28.928L127.275 28.9134L127.304 28.906L127.341 28.8987L127.37 28.8914L127.4 28.8841L127.443 28.8695L127.809 28.7744L129.442 32.1617L131.953 31.1448L132.267 31.0204L132.421 30.9619L132.568 30.896L132.721 30.8375L132.875 30.7717L133.182 30.6546L133.336 30.5888L133.49 30.5302L133.651 30.4571L133.812 30.3985L133.98 30.3327L134.324 30.1937L134.5 30.1205L134.683 30.0474L134.873 29.9669L135.071 29.8937L135.276 29.8132L135.481 29.7255L135.693 29.6377L135.92 29.5499L136.147 29.4548L136.389 29.3596L136.638 29.2645L136.894 29.1548L137.165 29.0451L137.435 28.9353L137.728 28.8183L137.911 28.7451L137.984 28.7231L138.197 28.6573L138.402 28.5915L138.607 28.5183L138.812 28.4524L139.017 28.3793L139.214 28.3061L139.412 28.2256L139.617 28.1525L139.807 28.0793L139.997 27.9988L140.195 27.9257L140.385 27.8452L140.576 27.7647L140.759 27.6843L140.942 27.6038L141.132 27.5233L141.308 27.4501L141.491 27.3623L141.674 27.2819L141.849 27.2087L142.025 27.1282L142.194 27.0477L142.369 26.9746L142.545 26.9014L142.713 26.8209L142.882 26.7478L143.05 26.6746L143.218 26.6015L143.379 26.5283L143.54 26.4625L146 25.4382L145.107 22.5995Z" fill="black"/>
<path fill-rule="evenodd" clip-rule="evenodd" d="M90.1767 22.2996C88.8883 23.2361 88.1417 24.0189 87.944 24.6554C87.7391 25.2919 87.6366 26.2065 87.6366 27.3917C87.6366 28.7525 87.7244 29.6304 87.9001 30.0328C88.0758 30.4352 88.4345 30.6254 88.9615 30.6254C89.4666 30.6254 89.7887 30.4718 89.9424 30.1645C90.0888 29.8499 90.1694 29.0378 90.1694 27.7136V22.2996H90.1767ZM87.6366 18.6928H80.1115V16.9296C80.1115 14.8957 80.3457 13.3301 80.8142 12.2253C81.29 11.1206 82.227 10.1402 83.6471 9.29156C85.0599 8.44289 86.8973 8.02587 89.1592 8.02587C91.8749 8.02587 93.9099 8.50142 95.2861 9.45252C96.6696 10.4182 97.4968 11.5961 97.7676 12.9862C98.0458 14.3836 98.1849 17.2515 98.1849 21.6046V34.8102H90.3963V32.4691C89.9058 33.4055 89.269 34.1079 88.5004 34.5761C87.7318 35.0517 86.8094 35.2858 85.7334 35.2858C84.3279 35.2858 83.0469 34.8907 81.8683 34.1079C80.7044 33.3251 80.1115 31.5985 80.1115 28.9427V26.7771C80.1115 24.8018 80.4189 23.4629 81.0485 22.7532C81.6707 22.0363 83.2079 21.2022 85.6748 20.2511C88.3027 19.2122 89.7082 18.5245 89.8985 18.166C90.0815 17.8075 90.1767 17.0832 90.1767 15.9858C90.1767 14.6104 90.0669 13.7105 89.8619 13.3008C89.657 12.8838 89.3202 12.6716 88.8371 12.6716C88.2954 12.6716 87.9587 12.8472 87.8269 13.1984C87.6878 13.5496 87.6293 14.4568 87.6293 15.9273V18.6928H87.6366ZM66.6351 20.3389V29.3231C67.8064 29.2866 68.5603 29.0963 68.8824 28.7598C69.2045 28.4306 69.3656 27.6185 69.3656 26.3235V23.3385C69.3656 21.9631 69.2191 21.1291 68.9263 20.8364C68.6335 20.5438 67.8722 20.3755 66.6351 20.3389ZM66.6351 8.20146V15.342C66.9865 15.3274 67.2647 15.3201 67.4696 15.3201C68.2895 15.3201 68.8092 15.1152 69.0361 14.7128C69.2557 14.3104 69.3729 13.1545 69.3729 11.2523C69.3729 10.2353 69.2777 9.54031 69.0947 9.13792C68.9044 8.73553 68.6701 8.47947 68.37 8.37704C68.0699 8.28193 67.4843 8.21609 66.6351 8.20146ZM58.2755 2.71436H66.6132C69.2411 2.71436 71.2395 2.91921 72.5937 3.32891C73.9479 3.73861 75.046 4.56534 75.8731 5.8164C76.7076 7.06746 77.1176 9.07939 77.1176 11.8522C77.1176 13.7398 76.8321 15.042 76.2392 15.781C75.6535 16.5272 74.4896 17.0979 72.7621 17.4929C74.6946 17.9319 75.9976 18.6562 76.6857 19.6658C77.3738 20.6755 77.7178 22.2265 77.7178 24.3116V27.2893C77.7178 29.4621 77.4763 31.0644 76.9712 32.1106C76.4807 33.1568 75.6828 33.8665 74.5994 34.2469C73.5161 34.6347 71.2981 34.8249 67.9381 34.8249H58.2755V2.71436ZM47.2734 22.2996C45.9851 23.2361 45.2457 24.0189 45.0408 24.6554C44.8358 25.2919 44.7333 26.2065 44.7333 27.3917C44.7333 28.7525 44.8212 29.6304 44.9968 30.0328C45.1725 30.4352 45.5385 30.6254 46.0583 30.6254C46.5633 30.6254 46.8854 30.4718 47.0392 30.1645C47.1856 29.8499 47.2734 29.0378 47.2734 27.7136V22.2996ZM44.7333 18.6928H37.2082V16.9296C37.2082 14.8957 37.4425 13.3301 37.9109 12.2253C38.3868 11.1206 39.3237 10.1402 40.7365 9.29156C42.1493 8.44289 43.9867 8.02587 46.2486 8.02587C48.9643 8.02587 51.0067 8.50142 52.3828 9.45252C53.7663 10.4182 54.5935 11.5961 54.8644 12.9862C55.1425 14.3836 55.2743 17.2515 55.2743 21.6046V34.8102H47.4857V32.4691C47.0026 33.4055 46.3657 34.1079 45.5898 34.5761C44.8212 35.0517 43.8988 35.2858 42.8228 35.2858C41.4246 35.2858 40.1363 34.8907 38.965 34.1079C37.8011 33.3251 37.2155 31.5985 37.2155 28.9427V26.7771C37.2155 24.8018 37.5303 23.4629 38.1452 22.7532C38.7747 22.0363 40.3046 21.2022 42.7715 20.2511C45.3994 19.2122 46.8122 18.5245 46.9952 18.166C47.1709 17.8075 47.2734 17.0832 47.2734 15.9858C47.2734 14.6104 47.1636 13.7105 46.966 13.3008C46.761 12.8838 46.4243 12.6716 45.9411 12.6716C45.3994 12.6716 45.0627 12.8472 44.931 13.1984C44.7919 13.5496 44.7406 14.4568 44.7406 15.9273V18.6928H44.7333ZM36.1395 2.71436L32.4282 34.8102H21.997C21.0454 29.8792 20.2036 24.2677 19.4789 17.9978C19.1495 20.6828 18.3735 26.2869 17.1584 34.8102H6.77843L3.04517 2.71436H11.1632L12.0123 13.9154L12.8907 24.7213C13.1909 19.1318 13.9595 11.7937 15.1893 2.71436H23.8783C24.0027 3.65814 24.3101 7.18451 24.7933 13.3008L25.7083 25.4968C26.1695 17.7417 26.9381 10.1402 28.0215 2.71436H36.1395Z" fill="#E61E26"/>
<path fill-rule="evenodd" clip-rule="evenodd" d="M137.011 26.1771C133.753 27.494 132.465 28.0061 130.781 28.6865L129.984 27.0331L129.391 25.5479L126.763 26.2429C126.338 26.3454 125.914 26.4917 125.482 26.5575L123.33 25.8113C121.807 26.7404 118.916 26.8941 117.444 27.7281C116.961 28.0061 116.617 28.606 116.514 29.1255C115.702 33.581 112.005 34.2541 108.404 34.7516L106.757 34.9857L105.871 31.7447L106.083 30.6692C102.819 28.8987 100.286 22.4605 101.128 18.9122C101.911 15.9491 104.4 16.0735 106.369 14.5737C107.921 14.1786 109.458 13.7689 111.032 13.4177C111.83 12.3423 115.05 11.5814 116.244 12.0935C117.151 11.2302 119.421 9.91331 120.687 10.8425C120.95 10.4767 121.295 10.2352 121.726 10.1035L123.622 9.62067C122.956 5.75775 125.672 5.41389 129.281 4.49206L129.449 4.93834C130.664 4.27989 132.685 3.63607 134.112 3.27026C136.023 8.34766 141.278 19.3219 142.662 23.8944C140.803 24.6626 138.951 25.6211 137.011 26.1771Z" fill="white"/>
<path fill-rule="evenodd" clip-rule="evenodd" d="M136.206 22.9581L135.935 23.0971L135.466 23.2141C135.217 22.6215 135.093 22.3069 135.093 22.2996L135.1 22.0143C135.496 22.2264 135.854 22.5483 136.206 22.9581ZM134.961 20.3169L134.91 20.4559L134.581 20.4486L134.742 20.3169L134.851 20.295L134.961 20.3169ZM134.5 19.9145V19.9877L134.28 20.2365C134.215 20.1926 134.178 20.1267 134.178 20.0462V19.9804C134.178 19.9804 134.215 19.8999 134.288 19.7316C134.354 19.7829 134.427 19.8487 134.5 19.9145ZM134.024 18.9269C133.834 18.6854 133.724 18.4586 133.731 18.2465V17.9099C133.929 18.1587 134.032 18.3708 134.024 18.5611V18.9269ZM133.365 17.2442C133.095 17.1125 132.956 16.893 132.963 16.5784L132.912 16.1906C133.219 16.3882 133.373 16.6003 133.373 16.8564L133.365 17.2442ZM132.597 15.5468C132.326 15.5102 132.187 15.4444 132.187 15.3273C132.187 15.2249 132.202 15.0786 132.245 14.8664C132.289 14.6616 132.304 14.5079 132.311 14.4274C132.502 14.6103 132.612 14.7494 132.612 14.8591L132.597 15.5468ZM131.997 13.8202C131.997 13.7178 131.96 13.8422 131.887 14.186L131.828 14.2299V14.1933L131.777 14.0909C131.711 13.8129 131.748 13.5568 131.894 13.3008C131.96 13.4398 131.997 13.608 131.997 13.8202ZM140.181 22.8776L140.107 23.0166C139.99 23.0678 139.807 23.1556 139.558 23.2726C139.485 23.3165 139.449 23.3312 139.449 23.3239L139.683 23.2288C139.061 23.3824 138.724 23.5068 138.687 23.6019C138.614 23.7189 138.519 23.8067 138.402 23.8579C137.714 24.1286 137.362 24.2676 137.333 24.275C137.04 24.0335 136.733 23.4336 136.411 22.4825C136.059 21.4875 134.405 17.2515 131.418 9.77438C130.547 7.57954 130.108 6.51139 130.123 6.57723C130.079 6.38701 130.196 6.25532 130.467 6.18948C130.818 6.09437 131.265 5.96268 131.784 5.75782C132.297 5.5676 132.743 5.42128 133.117 5.32617C133.563 6.34311 134.207 7.87219 135.034 9.92802C135.664 11.6254 136.272 13.33 136.879 15.0347C137.677 17.1637 138.402 18.7879 139.046 19.9145C139.485 20.6608 139.866 21.6485 140.181 22.8776ZM131.426 12.935C131.177 12.6935 131.052 12.4594 131.06 12.2399V11.8522C131.316 12.0204 131.433 12.2399 131.433 12.5033L131.426 12.935ZM131.916 25.6431L131.777 25.7455L131.513 25.8113C131.265 25.2187 131.14 24.9115 131.14 24.8968L131.089 24.6188C131.36 24.8676 131.631 25.2114 131.916 25.6431ZM129.801 21.6192L129.793 21.7436L129.603 21.707L129.676 21.5973L129.735 21.5826L129.801 21.6192ZM129.457 21.1875L129.464 21.2534L129.376 21.4802C129.332 21.429 129.295 21.3631 129.281 21.29L129.274 21.2168C129.274 21.2168 129.281 21.1437 129.295 20.9973C129.347 21.0485 129.405 21.1144 129.457 21.1875ZM129.003 20.1999C128.842 19.9511 128.739 19.717 128.703 19.5122L128.644 19.1976C128.805 19.4536 128.908 19.6731 128.937 19.8487L129.003 20.1999ZM128.315 18.5245C128.132 18.3708 128.014 18.144 127.956 17.8441L127.861 17.4636C128.08 17.6831 128.212 17.9026 128.256 18.1514L128.315 18.5245ZM127.561 16.8198C127.392 16.7613 127.297 16.6808 127.275 16.5711C127.26 16.4686 127.246 16.3296 127.231 16.1321C127.217 15.9419 127.202 15.8029 127.187 15.7151C127.334 15.9126 127.422 16.0589 127.436 16.154L127.561 16.8198ZM126.902 15.1078C126.887 15.0127 126.887 15.1225 126.902 15.4444L126.88 15.4883L126.873 15.459L126.821 15.3493C126.733 15.0859 126.711 14.8371 126.763 14.6103C126.814 14.742 126.865 14.9103 126.902 15.1078ZM135.342 24.0994L135.269 24.2384C135.152 24.2896 134.961 24.3774 134.72 24.4944C134.654 24.5383 134.617 24.5457 134.61 24.5383L134.837 24.4432C134.215 24.6042 133.885 24.7212 133.841 24.8164C133.768 24.9261 133.68 25.0139 133.556 25.0724C132.875 25.3431 132.516 25.4821 132.487 25.4894C132.202 25.248 131.894 24.6481 131.557 23.6897C131.213 22.6874 129.559 18.4586 126.572 10.9815C125.694 8.7867 125.262 7.71855 125.277 7.78439C125.225 7.59417 125.343 7.4698 125.621 7.39664C125.979 7.30884 126.419 7.16984 126.938 6.9723C127.458 6.77477 127.905 6.63576 128.278 6.54065C128.725 7.55759 129.361 9.08666 130.196 11.1425C130.825 12.8398 131.44 14.5445 132.041 16.2418C132.838 18.3782 133.563 19.995 134.2 21.129C134.654 21.8826 135.027 22.8703 135.342 24.0994ZM126.411 14.208C126.221 13.9519 126.104 13.7178 126.067 13.5056L126.001 13.1398C126.177 13.33 126.287 13.5422 126.338 13.7909L126.411 14.208ZM122.678 25.0066C122.539 24.5383 122.107 23.2214 121.375 21.0559C120.819 19.4609 120.445 18.1294 120.226 17.0686L120.065 16.1979L120.277 15.9419L120.475 16.0955C120.606 16.4247 120.782 16.9369 121.024 17.6173C121.404 18.8757 121.836 20.6681 122.29 23.0093L122.678 25.0066ZM129.047 22.9727C129.076 23.0824 129.032 23.1483 128.929 23.1775L128.878 23.1922C128.79 23.2141 128.732 23.1702 128.703 23.0678C128.71 23.0093 128.746 22.9654 128.812 22.9288L128.864 22.9142C128.966 22.8922 129.032 22.9215 129.047 22.9727ZM128.373 22.2703L128.38 22.2996C128.402 22.402 128.344 22.4752 128.205 22.5118C128.124 22.4971 128.073 22.4532 128.058 22.3874C128.029 22.2777 128.044 22.1972 128.102 22.124C128.249 22.0874 128.337 22.1386 128.373 22.2703ZM127.802 20.4633L127.678 20.9681L127.839 21.5973L127.634 21.3851C127.539 22.0216 127.634 22.9361 127.941 24.1506L125.255 24.8237C125.16 24.8456 125.006 24.7798 124.801 24.6115C124.589 24.4505 124.472 24.3115 124.442 24.2091C124.391 23.9969 124.34 23.675 124.303 23.2434C124.267 22.7971 124.223 22.4825 124.164 22.2703C124.149 22.2118 124.12 22.1313 124.069 22.0289C124.018 21.9118 123.996 21.8387 123.981 21.7802C123.908 21.4802 123.974 21.29 124.186 21.2022L123.549 20.6754L123.322 19.7536C123.249 19.4683 123.227 19.0293 123.234 18.4294C123.249 17.8294 123.227 17.3905 123.154 17.1125L123.132 17.032L122.751 16.6954L122.7 16.5052L122.854 15.9785L122.554 15.9053C122.4 15.3127 122.744 14.8518 123.571 14.5006C122.634 14.4274 122.1 14.1348 121.975 13.63C121.924 13.4251 121.917 13.0959 121.953 12.6277C121.975 12.0936 122.056 11.8083 122.188 11.779L124.084 11.3035C124.515 11.1937 124.867 11.6766 125.138 12.752C125.218 13.0666 125.204 13.4105 125.116 13.7836L123.886 14.0909C123.703 14.2592 123.615 14.3689 123.637 14.4421C123.659 14.5226 123.813 14.5299 124.113 14.486C124.347 14.4494 124.735 14.3762 125.269 14.2665C126.192 16.1248 126.821 17.6758 127.136 18.9122L127.026 18.9415C127.151 19.5268 127.224 19.8706 127.253 19.9804C127.29 20.1267 127.378 20.2584 127.502 20.3681L127.802 20.4633ZM127.626 15.5468L127.634 15.5761C127.619 15.62 127.605 15.6492 127.597 15.6858C127.517 15.6785 127.458 15.6712 127.429 15.6273V15.6127C127.443 15.5688 127.487 15.5175 127.561 15.481C127.597 15.4883 127.619 15.5102 127.626 15.5468ZM126.485 11.1352C126.507 11.5668 126.316 11.8302 125.928 11.9253C125.46 12.0424 125.182 11.8961 125.072 11.479C125.05 11.3839 125.035 11.2742 125.035 11.1425C125.189 11.0986 125.438 11.0986 125.76 11.1425C126.089 11.1718 126.331 11.1718 126.485 11.1352ZM115.365 26.2357C114.992 26.0016 114.728 25.5699 114.567 24.948L114.428 24.3847C114.816 24.6627 115.08 25.1017 115.234 25.7089L115.365 26.2357ZM113.755 22.8483C113.769 22.8995 113.777 22.9727 113.777 23.0678C113.755 23.0751 113.74 23.0751 113.74 23.0751C113.667 23.0678 113.616 23.0093 113.594 22.9142L113.557 22.7752C113.521 22.6361 113.535 22.5557 113.608 22.5337C113.638 22.541 113.652 22.5484 113.652 22.5484C113.696 22.6215 113.718 22.68 113.733 22.7313L113.755 22.8483ZM113.469 21.5534L113.506 21.6777C113.535 21.8167 113.55 21.9631 113.535 22.1021L113.513 22.1313C113.447 22.146 113.374 22.0362 113.316 21.7802L113.286 21.6558C113.228 21.4363 113.235 21.2534 113.294 21.0998C113.352 21.2241 113.418 21.3778 113.469 21.5534ZM112.781 20.3901C112.84 20.6388 112.818 20.7778 112.701 20.8071C112.635 20.8217 112.569 20.7193 112.51 20.5071L112.467 20.3462C112.423 20.1487 112.43 20.0462 112.496 20.0316C112.62 19.995 112.708 20.1194 112.781 20.3901ZM111.551 17.5514C111.625 17.8514 111.595 18.005 111.456 18.0416C111.398 17.9904 111.325 17.8733 111.259 17.6904L111.207 17.4856C111.164 17.2368 111.178 17.1051 111.251 17.0832C111.368 17.0613 111.471 17.2149 111.551 17.5514ZM110.805 16.1906C110.885 16.4906 110.893 16.732 110.856 16.9222L110.827 16.9515C110.702 16.8637 110.607 16.6808 110.541 16.4247C110.439 16.0224 110.424 15.7224 110.497 15.5102C110.622 15.6566 110.724 15.8834 110.805 16.1906ZM120.958 14.9176C120.972 14.9615 120.738 15.1298 120.248 15.4151C120.036 15.5395 119.713 15.7297 119.289 15.9785C118.571 16.4394 118.154 16.9369 118.03 17.471C117.927 17.888 117.986 18.5391 118.213 19.4244C118.396 19.4317 118.498 19.4902 118.535 19.6292C118.55 19.6804 118.564 19.7609 118.579 19.878C118.601 20.0023 118.615 20.0901 118.637 20.156C118.703 20.4413 118.842 20.7852 119.047 21.1875C119.318 21.707 119.472 22.0362 119.538 22.1972L120.438 22.3654C119.984 22.5703 119.765 22.9215 119.779 23.419C119.838 23.8653 119.889 24.3189 119.933 24.7725C119.823 24.8017 119.713 24.8968 119.618 25.0578C119.523 25.2114 119.494 25.3504 119.53 25.4821C119.472 25.2407 119.303 25.1529 119.04 25.2261C118.974 25.248 118.864 25.2919 118.733 25.3797C118.601 25.4675 118.491 25.5187 118.403 25.5406C118.352 25.5553 118.271 25.548 118.176 25.526C118.074 25.4968 117.971 25.4968 117.883 25.526C117.788 25.548 117.649 25.6065 117.481 25.7016C117.298 25.7967 117.151 25.8552 117.049 25.8845C116.58 26.0016 116.178 25.8991 115.848 25.5772C115.636 24.7212 115.336 24.0482 114.948 23.5433L114.062 20.0535C113.996 19.7755 113.85 19.3585 113.638 18.8025C113.425 18.2538 113.286 17.8368 113.213 17.5514C113.111 17.1417 112.92 16.9222 112.642 16.9003L112.144 14.9469L112.283 14.7274C112.488 14.6762 112.803 14.5591 113.228 14.3835C113.652 14.2006 113.967 14.0909 114.187 14.0324C114.275 14.0104 114.384 13.9519 114.538 13.8568C114.692 13.769 114.809 13.7105 114.889 13.6885C115.277 13.5861 115.578 13.6373 115.783 13.8422C115.987 14.0397 116.214 14.1202 116.449 14.0836C116.324 14.1714 116.317 14.4494 116.434 14.9103C116.998 13.5422 117.993 12.6643 119.421 12.3058C119.984 12.1668 120.445 12.8472 120.826 14.3323L120.958 14.9176ZM109.839 25.9869L107.233 19.4244C107.211 19.3658 107.064 19.2488 106.801 19.1025C106.713 19.1098 106.632 19.1244 106.574 19.139C106.362 19.1902 106.259 19.2707 106.259 19.3731C106.288 20.0243 106.362 20.6388 106.508 21.2095C106.779 22.2703 107.474 23.9092 108.609 26.1186C108.814 26.243 108.938 26.5064 108.96 26.9015C109.099 26.9015 109.231 26.8868 109.333 26.8576C109.861 26.7259 110.022 26.4332 109.839 25.9869ZM114.648 27.9111C114.97 29.1621 114.633 30.2303 113.652 31.1155C112.898 31.7959 111.844 32.3154 110.483 32.6592C110.227 32.7251 109.414 32.8495 108.038 33.0397L107.621 31.5179C107.599 31.4594 107.869 31.3204 108.448 31.1082C109.443 30.7497 110.095 30.4864 110.41 30.3035C111.229 29.8425 111.61 29.3231 111.544 28.7378C111.332 28.5329 111.054 28.4817 110.724 28.5622C110.468 28.6281 110.102 28.7598 109.626 28.9646C109.15 29.1768 108.784 29.3085 108.521 29.367C107.284 29.6816 106.076 28.8402 104.897 26.8429C104.07 25.4455 103.455 23.9165 103.031 22.263C102.709 20.9827 102.643 19.9804 102.848 19.2561C103.097 18.3562 103.785 17.6831 104.905 17.2368C105.3 17.1051 105.849 16.893 106.574 16.6003C106.574 16.6003 106.764 16.454 107.152 16.1614C107.298 16.1248 107.525 16.0516 107.833 15.9346C108.14 15.8175 108.375 15.7443 108.528 15.7004C108.909 15.6053 109.194 15.5541 109.385 15.5541C109.809 15.7443 110.761 17.6612 112.24 21.3119C113.572 24.6481 114.377 26.8429 114.648 27.9111Z" fill="black"/>
</svg>
