<?xml version="1.0" encoding="UTF-8"?>
<svg id="Layer_1" xmlns="http://www.w3.org/2000/svg" version="1.1" viewBox="0 0 228.04 108.26">
  <!-- Generator: Adobe Illustrator 30.0.0, SVG Export Plug-In . SVG Version: 2.1.1 Build 123)  -->
  <defs>
    <style>
      .st0 {
        fill: #e61e26;
      }

      .st0, .st1, .st2 {
        fill-rule: evenodd;
      }

      .st3 {
        fill: #fff;
      }

      .st1 {
        fill: #212323;
      }

      .st2 {
        fill: #f7f7f8;
      }
    </style>
  </defs>
  <g>
    <polygon class="st1" points="212.23 54.21 212 53.49 211.73 52.73 211.44 51.95 211.12 51.13 210.8 50.27 210.45 49.4 210.08 48.5 209.7 47.57 209.3 46.62 208.89 45.65 208.47 44.67 208.05 43.67 207.61 42.67 207.17 41.66 206.73 40.64 206.28 39.63 205.84 38.61 205.4 37.61 204.96 36.61 204.53 35.62 204.1 34.64 203.69 33.69 203.29 32.76 202.9 31.85 202.52 30.97 202.16 30.12 201.82 29.3 201.5 28.53 201.2 27.79 200.93 27.11 199.5 23.35 196.09 24.23 195.89 24.29 195.67 24.35 195.46 24.41 195.24 24.47 195.02 24.53 194.79 24.59 194.57 24.66 194.34 24.73 194.11 24.8 193.88 24.87 193.65 24.95 193.41 25.02 193.17 25.1 192.94 25.18 192.7 25.26 192.47 25.34 192.23 25.43 192 25.51 191.77 25.6 191.54 25.69 191.31 25.78 190.7 25.59 189.25 25.96 188.81 26.07 188.36 26.19 187.93 26.29 187.48 26.41 187.04 26.52 186.59 26.64 186.15 26.77 185.7 26.91 185.25 27.05 184.8 27.22 184.35 27.4 183.9 27.59 183.44 27.81 182.99 28.06 182.53 28.34 182.08 28.65 181.64 29.01 181.2 29.41 180.8 29.85 180.42 30.34 180.08 30.87 179.78 31.43 179.54 32.02 179.34 32.63 179.2 33.25 179.14 33.58 179.06 33.61 178.95 33.64 178.83 33.69 178.71 33.74 178.6 33.78 178.48 33.83 178.37 33.89 178.25 33.94 178.13 34 178.1 34.02 177.75 33.99 177.32 33.98 176.9 34 176.49 34.04 176.1 34.1 175.72 34.17 175.36 34.26 175 34.36 174.66 34.47 174.33 34.59 174.02 34.72 173.7 34.85 173.41 34.99 173.11 35.14 172.83 35.29 172.55 35.44 172.29 35.6 172.03 35.76 171.81 35.91 171.78 35.91 171.4 35.9 171.03 35.9 170.67 35.93 170.3 35.95 169.94 35.99 169.58 36.04 169.22 36.09 168.86 36.16 168.51 36.24 168.15 36.32 167.79 36.41 167.44 36.51 167.09 36.62 166.74 36.74 166.4 36.87 166.05 37.01 165.71 37.16 165.37 37.31 165.03 37.49 164.7 37.68 164.35 37.89 164.02 38.13 163.86 38.26 163.82 38.26 163.62 38.31 163.41 38.36 163.21 38.41 163 38.46 162.79 38.51 162.59 38.56 162.39 38.61 162.19 38.66 161.99 38.71 161.78 38.76 161.58 38.82 161.37 38.86 161.17 38.92 160.97 38.97 160.77 39.02 160.58 39.07 160.37 39.12 160.17 39.17 159.97 39.22 159.77 39.28 159.58 39.33 159.38 39.37 159.18 39.43 158.98 39.48 158.78 39.53 158.58 39.58 157.7 39.81 156.92 40.37 156.77 40.47 156.62 40.57 156.45 40.67 156.26 40.78 156.06 40.87 155.85 40.98 155.63 41.09 155.39 41.19 155.13 41.31 154.87 41.44 154.59 41.56 154.29 41.7 153.98 41.85 153.67 42 153.34 42.18 153 42.37 152.65 42.58 152.3 42.81 151.94 43.07 151.58 43.35 151.58 43.35 151.57 43.15 151.54 42.83 151.51 42.52 151.48 42.22 151.45 41.93 151.42 41.65 151.38 41.38 151.34 41.11 151.29 40.85 151.25 40.6 151.21 40.34 151.15 40.08 151.08 39.81 151.01 39.54 150.94 39.28 150.85 39.01 150.76 38.75 150.66 38.49 150.55 38.23 150.44 37.98 150.33 37.73 150.2 37.48 150.06 37.24 149.93 37 149.78 36.77 149.63 36.53 149.47 36.31 149.31 36.08 149.14 35.85 148.97 35.64 148.79 35.43 148.61 35.22 148.42 35.01 148.23 34.82 148.03 34.62 147.83 34.43 147.62 34.24 147.41 34.06 147.19 33.88 146.97 33.7 146.75 33.54 146.52 33.37 146.28 33.19 146.03 33.02 145.75 32.85 145.48 32.68 145.2 32.52 144.91 32.37 144.62 32.23 144.33 32.1 144.03 31.97 143.73 31.85 143.43 31.73 143.12 31.62 142.81 31.51 142.49 31.42 142.17 31.33 141.85 31.24 141.52 31.16 141.19 31.09 140.86 31.02 140.52 30.96 140.19 30.9 139.84 30.84 139.49 30.79 139.14 30.75 138.79 30.71 138.42 30.68 138.06 30.65 137.7 30.63 137.32 30.61 136.95 30.59 136.57 30.58 136.19 30.58 135.8 30.57 135.47 30.58 135.14 30.58 134.82 30.59 134.49 30.6 134.17 30.62 133.85 30.64 133.53 30.67 133.22 30.7 132.9 30.74 132.59 30.77 132.28 30.81 131.98 30.87 131.67 30.91 131.37 30.97 131.07 31.03 130.77 31.1 130.48 31.17 130.19 31.24 129.89 31.32 129.61 31.41 129.32 31.49 129.04 31.59 128.76 31.69 128.48 31.8 128.21 31.91 127.94 32.02 127.66 32.15 127.4 32.27 127.14 32.4 126.88 32.54 126.62 32.68 126.38 32.82 126.15 32.96 125.93 33.11 125.71 33.24 125.5 33.39 125.28 33.54 125.07 33.68 124.87 33.83 124.67 33.98 124.47 34.14 124.28 34.3 124.09 34.45 123.9 34.62 123.72 34.79 123.53 34.96 123.36 35.13 123.19 35.31 123.01 35.49 122.86 35.67 122.84 35.5 122.79 35.17 122.74 34.83 122.69 34.5 122.63 34.18 122.56 33.86 122.5 33.54 122.42 33.22 122.35 32.91 122.26 32.61 122.17 32.3 122.07 32 121.97 31.7 121.86 31.41 121.75 31.12 121.63 30.83 121.5 30.55 121.36 30.27 121.22 30 121.07 29.73 120.91 29.46 120.75 29.21 120.59 28.98 120.44 28.77 120.28 28.56 120.12 28.35 119.96 28.15 119.8 27.95 119.63 27.75 119.45 27.56 119.27 27.37 119.09 27.19 118.91 27.01 118.71 26.83 118.52 26.66 118.32 26.49 118.12 26.33 117.92 26.17 117.71 26.02 117.5 25.87 117.28 25.72 117.06 25.59 116.84 25.45 116.62 25.32 116.39 25.2 116.16 25.07 115.93 24.96 115.69 24.86 115.46 24.75 115.22 24.65 114.98 24.56 114.73 24.47 114.48 24.39 114.24 24.31 114.01 24.24 113.78 24.18 113.53 24.11 113.29 24.05 113.04 24 112.79 23.94 112.54 23.9 112.29 23.84 112.03 23.8 111.76 23.75 111.5 23.71 111.23 23.68 110.96 23.64 110.68 23.6 110.4 23.57 110.11 23.54 109.82 23.51 109.53 23.49 109.24 23.46 108.93 23.44 108.63 23.42 108.32 23.4 108.01 23.38 107.69 23.36 107.37 23.35 107.05 23.34 106.72 23.34 106.38 23.32 106.04 23.32 105.7 23.32 105.35 23.31 105 23.31 89.9 23.31 89.9 35.12 89.81 35.01 89.62 34.82 89.42 34.62 89.21 34.43 89.01 34.24 88.8 34.06 88.59 33.88 88.36 33.7 88.14 33.54 87.91 33.37 87.67 33.19 87.41 33.02 87.14 32.85 86.87 32.68 86.59 32.52 86.3 32.37 86.01 32.23 85.72 32.1 85.42 31.97 85.12 31.85 84.82 31.73 84.51 31.62 84.19 31.51 83.88 31.42 83.56 31.33 83.24 31.24 82.91 31.16 82.58 31.09 82.25 31.02 81.91 30.96 81.57 30.9 81.22 30.84 80.88 30.79 80.53 30.75 80.17 30.71 79.81 30.68 79.45 30.65 79.09 30.63 78.72 30.61 78.34 30.59 77.96 30.58 77.58 30.58 77.19 30.57 76.86 30.58 76.53 30.58 76.2 30.59 75.88 30.6 75.56 30.62 75.24 30.64 74.92 30.67 74.61 30.7 74.29 30.74 73.98 30.77 73.68 30.81 73.37 30.87 73.06 30.91 72.76 30.97 72.46 31.03 72.16 31.1 71.87 31.17 71.57 31.24 71.29 31.32 71 31.41 70.71 31.49 70.43 31.59 70.15 31.69 69.87 31.8 69.6 31.91 69.33 32.02 69.06 32.15 68.79 32.27 68.53 32.4 68.27 32.54 68.01 32.68 67.77 32.82 67.54 32.96 67.31 33.11 67.1 33.24 66.88 33.39 66.67 33.54 66.47 33.68 66.32 33.78 67.54 23.31 14 23.31 19.96 74.61 40.65 74.61 40.79 73.62 40.98 74.61 61.61 74.61 62.22 69.33 62.3 69.51 62.44 69.82 62.6 70.13 62.77 70.43 62.94 70.73 63.14 71.01 63.35 71.3 63.56 71.57 63.8 71.84 64.05 72.1 64.3 72.34 64.58 72.58 64.86 72.8 65.13 73 65.37 73.15 65.57 73.28 65.78 73.41 65.99 73.53 66.2 73.65 66.42 73.76 66.64 73.88 66.85 73.99 67.07 74.08 67.3 74.19 67.52 74.28 67.75 74.37 67.97 74.46 68.21 74.54 68.44 74.62 68.66 74.69 68.9 74.76 69.13 74.83 69.37 74.88 69.6 74.94 69.84 74.99 70.08 75.03 70.32 75.08 70.56 75.11 70.8 75.15 71.04 75.18 71.28 75.2 71.53 75.22 71.77 75.23 72.01 75.25 72.26 75.25 72.5 75.25 72.69 75.25 72.88 75.25 73.06 75.25 73.25 75.23 73.43 75.22 73.62 75.21 73.81 75.19 73.99 75.17 74.18 75.15 74.36 75.12 74.55 75.09 74.73 75.06 74.92 75.02 75.1 74.99 75.27 74.95 75.46 74.9 75.64 74.85 75.82 74.8 76 74.75 76.18 74.7 76.36 74.63 76.53 74.57 76.71 74.5 76.88 74.43 77.06 74.35 77.23 74.28 77.28 74.26 78.15 74.61 89.9 74.61 93.23 74.61 106.81 74.61 107.25 74.61 107.68 74.6 108.1 74.6 108.52 74.59 108.92 74.59 109.32 74.58 109.71 74.57 110.09 74.56 110.46 74.54 110.82 74.52 111.18 74.51 111.53 74.49 111.87 74.47 112.2 74.45 112.53 74.42 112.85 74.4 113.16 74.37 113.46 74.34 113.76 74.31 114.05 74.27 114.33 74.24 114.61 74.2 114.88 74.16 115.15 74.11 115.41 74.06 115.67 74.01 115.92 73.96 116.18 73.9 116.42 73.84 116.67 73.76 116.91 73.69 117.15 73.61 117.37 73.53 117.59 73.44 117.8 73.35 118.01 73.26 118.22 73.16 118.42 73.06 118.63 72.95 118.83 72.83 119.02 72.71 119.22 72.59 119.41 72.46 119.6 72.33 119.78 72.18 119.97 72.04 120.15 71.9 120.32 71.74 120.49 71.59 120.65 71.42 120.82 71.26 120.98 71.09 121.13 70.91 121.28 70.73 121.42 70.55 121.44 70.53 121.56 70.73 121.75 71.01 121.95 71.3 122.18 71.57 122.41 71.84 122.66 72.1 122.92 72.34 123.19 72.58 123.47 72.8 123.75 73 123.98 73.15 124.19 73.28 124.39 73.41 124.61 73.53 124.82 73.65 125.03 73.76 125.25 73.88 125.47 73.99 125.69 74.08 125.91 74.19 126.13 74.28 126.36 74.37 126.59 74.46 126.81 74.54 127.04 74.62 127.28 74.69 127.51 74.76 127.74 74.83 127.98 74.88 128.22 74.94 128.45 74.99 128.69 75.03 128.93 75.08 129.17 75.11 129.41 75.15 129.65 75.18 129.89 75.2 130.14 75.22 130.38 75.23 130.62 75.25 130.87 75.25 131.11 75.25 131.3 75.25 131.49 75.25 131.67 75.25 131.86 75.23 132.05 75.22 132.23 75.21 132.42 75.19 132.61 75.17 132.79 75.15 132.97 75.12 133.16 75.09 133.34 75.06 133.53 75.02 133.71 74.99 133.89 74.95 134.07 74.9 134.25 74.85 134.43 74.8 134.61 74.75 134.79 74.7 134.97 74.63 135.14 74.57 135.32 74.5 135.49 74.43 135.67 74.35 135.84 74.28 135.89 74.26 136.76 74.61 151.84 74.61 151.84 63.12 152.02 63.41 152.43 64.01 152.86 64.6 153.3 65.17 153.76 65.72 154.26 66.25 154.78 66.75 154.8 66.77 157.11 75.25 162.61 74.48 163.08 74.42 163.56 74.34 164.05 74.27 164.55 74.19 165.05 74.1 165.56 74.01 166.07 73.91 166.59 73.79 167.11 73.66 167.63 73.52 168.16 73.36 168.69 73.18 169.22 72.99 169.75 72.77 170.28 72.54 170.81 72.27 171.33 71.97 171.85 71.64 172.35 71.29 172.85 70.9 173.33 70.48 173.78 70.02 174.23 69.53 174.64 69 175.03 68.44 175.38 67.86 175.71 67.24 176 66.6 176.26 65.93 176.48 65.24 176.67 64.52 176.72 64.23 176.75 64.23 176.92 64.17 177.09 64.11 177.29 64.06 177.49 63.99 177.72 63.94 177.96 63.87 178.21 63.81 178.46 63.75 178.73 63.69 179 63.62 179.28 63.55 179.57 63.49 179.87 63.42 180.17 63.34 180.47 63.27 180.78 63.19 181.09 63.1 181.41 63.01 181.73 62.91 182.05 62.81 182.38 62.7 182.68 62.58 185.07 63.42 186.05 63.27 186.14 63.26 186.23 63.23 186.32 63.22 186.41 63.2 186.5 63.19 186.58 63.17 186.66 63.15 186.74 63.13 186.82 63.12 186.89 63.1 186.97 63.08 187.04 63.06 187.11 63.04 187.18 63.02 187.24 63.01 187.31 62.99 187.37 62.97 187.43 62.96 187.49 62.94 187.55 62.93 187.61 62.91 187.67 62.89 187.72 62.88 187.77 62.86 187.82 62.85 187.87 62.83 187.91 62.83 187.96 62.81 188 62.8 188.04 62.79 188.1 62.78 188.6 62.64 190.83 67.27 194.26 65.88 194.69 65.71 194.9 65.63 195.1 65.55 195.31 65.46 195.52 65.38 195.94 65.21 196.15 65.12 196.37 65.04 196.59 64.95 196.8 64.86 197.03 64.77 197.5 64.58 197.74 64.48 197.99 64.38 198.25 64.27 198.52 64.17 198.8 64.06 199.08 63.94 199.37 63.82 199.68 63.7 199.99 63.57 200.32 63.44 200.66 63.31 201.01 63.16 201.38 63.01 201.75 62.86 202.15 62.7 202.4 62.6 202.5 62.57 202.79 62.48 203.07 62.39 203.35 62.29 203.63 62.2 203.91 62.1 204.18 62 204.45 61.89 204.73 61.79 204.99 61.69 205.25 61.59 205.52 61.48 205.78 61.37 206.04 61.26 206.29 61.15 206.54 61.04 206.8 60.93 207.04 60.83 207.29 60.72 207.54 60.61 207.78 60.5 208.02 60.39 208.25 60.29 208.49 60.18 208.73 60.08 208.96 59.97 209.19 59.87 209.42 59.77 209.65 59.67 209.87 59.58 210.09 59.49 213.45 58.09 212.23 54.21"/>
    <path class="st0" d="M137.19,53.8c-1.76,1.28-2.78,2.35-3.05,3.22-.28.87-.42,2.12-.42,3.74,0,1.86.12,3.06.36,3.61.24.55.73.81,1.45.81s1.13-.21,1.34-.63c.2-.43.31-1.54.31-3.35v-7.4ZM133.72,48.86h-10.28v-2.41c0-2.78.32-4.92.96-6.43.65-1.51,1.93-2.85,3.87-4.01,1.93-1.16,4.44-1.73,7.53-1.73,3.71,0,6.49.65,8.37,1.95,1.89,1.32,3.02,2.93,3.39,4.83.38,1.91.57,5.83.57,11.78v18.05h-10.64v-3.2c-.67,1.28-1.54,2.24-2.59,2.88-1.05.65-2.31.97-3.78.97-1.92,0-3.67-.54-5.28-1.61-1.59-1.07-2.4-3.43-2.4-7.06v-2.96c0-2.7.42-4.53,1.28-5.5.85-.98,2.95-2.12,6.32-3.42,3.59-1.42,5.51-2.36,5.77-2.85.25-.49.38-1.48.38-2.98,0-1.88-.15-3.11-.43-3.67-.28-.57-.74-.86-1.4-.86-.74,0-1.2.24-1.38.72-.19.48-.27,1.72-.27,3.73v3.76ZM105.03,51.11v12.28c1.6-.05,2.63-.31,3.07-.77.44-.45.66-1.56.66-3.33v-4.09c0-1.88-.2-3.02-.6-3.42-.4-.39-1.45-.63-3.14-.68M105.03,34.52v9.76c.48-.02.86-.03,1.14-.03,1.12,0,1.83-.28,2.14-.83.3-.55.46-2.13.46-4.73,0-1.39-.13-2.34-.38-2.89-.26-.55-.58-.9-.99-1.04-.41-.15-1.2-.23-2.37-.25M93.61,27.02h11.39c3.59,0,6.32.28,8.17.84,1.85.56,3.35,1.69,4.48,3.4,1.14,1.71,1.7,4.46,1.7,8.25,0,2.58-.39,4.36-1.2,5.37-.8,1.02-2.39,1.8-4.75,2.34,2.64.6,4.42,1.59,5.36,2.97.94,1.38,1.41,3.5,1.41,6.35v4.07c0,2.97-.33,5.16-1.02,6.59-.67,1.43-1.76,2.4-3.24,2.92-1.48.53-4.51.79-9.1.79h-13.2V27.02ZM78.58,53.8c-1.76,1.28-2.77,2.35-3.05,3.22-.28.87-.42,2.12-.42,3.74,0,1.86.12,3.06.36,3.61.24.55.74.81,1.45.81s1.13-.21,1.34-.63c.2-.43.32-1.54.32-3.35v-7.4ZM75.11,48.86h-10.28v-2.41c0-2.78.32-4.92.96-6.43.65-1.51,1.93-2.85,3.86-4.01,1.93-1.16,4.44-1.73,7.53-1.73,3.71,0,6.5.65,8.38,1.95,1.89,1.32,3.02,2.93,3.39,4.83.38,1.91.56,5.83.56,11.78v18.05h-10.65v-3.2c-.66,1.28-1.53,2.24-2.59,2.88-1.05.65-2.31.97-3.78.97-1.91,0-3.67-.54-5.27-1.61-1.59-1.07-2.39-3.43-2.39-7.06v-2.96c0-2.7.43-4.53,1.27-5.5.86-.98,2.95-2.12,6.32-3.42,3.59-1.42,5.52-2.36,5.77-2.85.24-.49.38-1.48.38-2.98,0-1.88-.15-3.11-.42-3.67-.28-.57-.74-.86-1.4-.86-.74,0-1.2.24-1.38.72-.19.48-.26,1.72-.26,3.73v3.76ZM63.37,27.02l-5.07,43.88h-14.25c-1.3-6.74-2.45-14.41-3.44-22.98-.45,3.67-1.51,11.33-3.17,22.98h-14.17l-5.1-43.88h11.09l1.16,15.31,1.2,14.77c.41-7.64,1.46-17.67,3.14-30.08h11.87c.17,1.29.59,6.11,1.25,14.47l1.25,16.67c.63-10.6,1.68-20.99,3.16-31.14h11.09Z"/>
    <path class="st2" d="M201.17,59.09c-4.45,1.8-6.21,2.5-8.51,3.43l-1.09-2.26-.81-2.03-3.59.95c-.58.14-1.16.34-1.75.43l-2.94-1.02c-2.08,1.27-6.03,1.48-8.04,2.62-.66.38-1.13,1.2-1.27,1.91-1.11,6.09-6.16,7.01-11.08,7.69l-2.25.32-1.21-4.43.29-1.47c-4.46-2.42-7.92-11.22-6.77-16.07,1.07-4.05,4.47-3.88,7.16-5.93,2.12-.54,4.22-1.1,6.37-1.58,1.09-1.47,5.49-2.51,7.12-1.81,1.24-1.18,4.34-2.98,6.07-1.71.36-.5.83-.83,1.42-1.01l2.59-.66c-.91-5.28,2.8-5.75,7.73-7.01l.23.61c1.66-.9,4.42-1.78,6.37-2.28,2.61,6.94,9.79,21.94,11.68,28.19-2.54,1.05-5.08,2.36-7.72,3.13"/>
    <path class="st1" d="M200.07,54.69l-.37.19-.64.16c-.34-.81-.51-1.24-.51-1.25v-.39c.54.29,1.03.72,1.51,1.29M198.37,51.08l-.07.19h-.45s.22-.18.22-.18l.15-.03.15.03ZM197.74,50.53v.1l-.3.34c-.09-.06-.14-.15-.14-.26v-.09s.05-.11.15-.34c.1.07.19.15.29.25M197.09,49.18c-.26-.33-.41-.64-.4-.93v-.46c.27.34.41.63.41.89v.5ZM196.19,46.88c-.37-.18-.56-.48-.55-.91l-.07-.53c.42.27.63.56.63.91v.53ZM195.14,44.56c-.37-.05-.56-.14-.56-.3,0-.14.02-.34.08-.63.06-.28.08-.49.09-.6.26.25.41.44.41.59v.95ZM194.32,42.2c0-.14-.05.03-.15.5l-.08.06v-.05s-.07-.14-.07-.14c-.09-.38-.04-.73.16-1.08.09.19.14.42.14.7M205.5,54.58l-.1.19c-.16.07-.41.19-.75.35-.1.06-.15.08-.15.07l.32-.13c-.85.21-1.31.38-1.36.51-.1.16-.23.28-.39.35-.94.37-1.42.56-1.46.57-.4-.33-.82-1.15-1.26-2.45-.48-1.36-2.74-7.15-6.82-17.37-1.19-3-1.79-4.46-1.77-4.37-.06-.26.1-.44.47-.53.48-.13,1.09-.31,1.8-.59.7-.26,1.31-.46,1.82-.59.61,1.39,1.49,3.48,2.62,6.29.86,2.32,1.69,4.65,2.52,6.98,1.09,2.91,2.08,5.13,2.96,6.67.6,1.02,1.13,2.37,1.56,4.05M193.55,40.99c-.34-.33-.51-.65-.5-.95v-.52c.35.23.51.53.51.89v.59ZM194.21,58.36l-.19.14-.36.09c-.34-.81-.51-1.23-.51-1.25l-.07-.38c.37.33.74.8,1.13,1.39M191.32,52.87v.17s-.28-.05-.28-.05l.1-.15.08-.02.09.05ZM190.85,52.28v.09s-.11.31-.11.31c-.06-.07-.11-.16-.13-.26v-.09s0-.1.02-.3c.07.07.14.16.22.27M190.24,50.92c-.22-.34-.36-.66-.41-.94l-.08-.43c.22.35.36.65.4.89l.09.48ZM189.29,48.63c-.25-.21-.41-.52-.49-.93l-.13-.52c.3.3.48.6.54.94l.09.51ZM188.26,46.3c-.23-.08-.36-.19-.39-.34-.02-.14-.04-.33-.06-.6-.02-.26-.04-.45-.06-.57.2.27.32.47.34.6l.16.89ZM187.36,43.96c-.02-.13-.02.02,0,.46l-.03.06v-.04s-.08-.15-.08-.15c-.12-.36-.15-.7-.08-1.01.09.19.15.42.2.69M198.89,56.25l-.1.19c-.16.07-.42.19-.75.35-.09.06-.14.07-.15.06l.31-.13c-.85.22-1.3.38-1.36.51-.1.15-.22.27-.39.35-.93.37-1.42.56-1.46.57-.39-.33-.81-1.15-1.27-2.46-.47-1.37-2.73-7.15-6.81-17.37-1.2-3-1.79-4.46-1.77-4.37-.07-.26.09-.43.47-.53.49-.12,1.09-.31,1.8-.58.71-.27,1.32-.46,1.83-.59.61,1.39,1.48,3.48,2.62,6.29.86,2.32,1.7,4.65,2.52,6.97,1.09,2.92,2.08,5.13,2.95,6.68.61,1.02,1.13,2.37,1.56,4.05M186.69,42.73c-.26-.35-.42-.67-.47-.96l-.09-.5c.24.26.39.55.46.89l.1.57ZM181.59,57.49c-.19-.64-.78-2.44-1.78-5.4-.76-2.18-1.27-4-1.57-5.45l-.22-1.19.29-.35.27.21c.18.45.42,1.15.75,2.08.52,1.72,1.11,4.17,1.73,7.37l.54,2.74ZM190.29,54.71c.04.15-.02.24-.16.28l-.07.02c-.12.03-.2-.03-.24-.17,0-.08.06-.14.15-.19l.07-.02c.14,0,.23.02.25.1M189.37,53.76v.04c.04.14-.03.24-.23.29-.11-.02-.18-.08-.2-.17-.04-.15-.02-.26.06-.36.2-.05.32.02.37.2M188.59,51.29l-.17.69.22.86-.28-.29c-.13.87,0,2.12.42,3.78l-3.67.92c-.13.03-.34-.06-.62-.29-.29-.22-.45-.41-.49-.55-.07-.29-.14-.73-.19-1.32-.05-.61-.11-1.04-.19-1.33-.02-.08-.06-.19-.13-.33-.07-.16-.1-.26-.12-.34-.1-.41-.01-.67.28-.79l-.87-.72-.31-1.25c-.1-.39-.13-.99-.12-1.81.02-.82-.01-1.42-.11-1.8l-.03-.11-.52-.46-.07-.26.21-.72-.41-.1c-.21-.81.26-1.44,1.39-1.92-1.28-.1-2.01-.5-2.18-1.19-.07-.28-.08-.73-.03-1.37.03-.73.14-1.12.32-1.16l2.59-.65c.59-.15,1.07.51,1.44,1.98.11.43.09.9-.03,1.41l-1.68.42c-.25.23-.37.38-.34.48.03.11.24.12.65.06.32-.05.85-.15,1.58-.3,1.26,2.54,2.12,4.66,2.55,6.35l-.15.04c.17.8.27,1.27.31,1.42.05.2.17.38.34.53l.38.15ZM188.35,44.56v.04c-.01.06-.03.1-.04.15-.11,0-.19-.02-.23-.08v-.02c.01-.06.08-.13.18-.18.05.02.08.05.09.1M186.79,38.53c.03.59-.23.95-.76,1.08-.64.16-1.02-.04-1.17-.61-.03-.13-.05-.28-.05-.46.21-.06.55-.06.99,0,.44.04.78.04.98,0M171.6,59.17c-.51-.32-.87-.91-1.09-1.76l-.19-.77c.53.38.89.98,1.1,1.81l.18.71ZM169.4,54.54c.02.07.03.17.03.3-.03,0-.05,0-.05,0-.1,0-.17-.09-.2-.22l-.05-.19c-.05-.19-.03-.3.07-.33.04.01.06.02.06.02.06.1.09.18.11.25l.04.16ZM169.01,52.77l.05.17c.04.19.06.39.04.58l-.03.04c-.09.02-.19-.13-.27-.48l-.04-.17c-.08-.3-.07-.55.01-.76.11.18.2.39.26.63M168.07,51.18c.08.34.05.53-.11.57-.09.02-.18-.12-.26-.41l-.06-.22c-.06-.27-.05-.41.04-.43.16-.05.29.13.38.49M166.4,47.3c.1.41.06.62-.13.67-.08-.07-.18-.23-.27-.48l-.07-.28c-.06-.34-.04-.52.06-.55.16-.04.29.17.41.63M165.37,45.44c.11.41.12.74.07,1l-.04.04c-.17-.12-.3-.37-.39-.72-.14-.55-.16-.96-.06-1.25.16.2.31.51.42.93M179.25,43.7c.02.06-.3.29-.97.68-.29.17-.73.43-1.31.77-.98.63-1.55,1.31-1.72,2.04-.14.57-.06,1.46.25,2.67.25,0,.39.09.44.28.02.07.04.18.06.34.03.17.05.29.08.38.09.39.28.86.56,1.41.37.71.58,1.16.67,1.38l1.23.23c-.62.28-.92.76-.9,1.44.08.61.15,1.23.21,1.85-.15.04-.3.17-.43.39-.13.21-.17.4-.12.58-.08-.33-.31-.45-.67-.35-.09.03-.24.09-.42.21-.18.12-.33.19-.45.22-.07.02-.18.01-.31-.02-.14-.04-.28-.04-.4,0-.13.03-.32.11-.55.24-.25.13-.45.21-.59.25-.64.16-1.19.02-1.64-.42-.29-1.17-.7-2.09-1.23-2.78l-1.21-4.77c-.09-.38-.29-.95-.58-1.71-.29-.75-.48-1.32-.58-1.71-.14-.56-.4-.86-.78-.89l-.68-2.67.19-.3c.28-.07.71-.23,1.29-.47.58-.25,1.01-.4,1.31-.48.12-.03.27-.11.48-.24.21-.12.37-.2.48-.23.53-.14.94-.07,1.22.21.28.27.59.38.91.33-.17.12-.18.5-.02,1.13.77-1.87,2.13-3.07,4.08-3.56.77-.19,1.4.74,1.92,2.77l.2.81ZM164.05,58.83l-3.56-8.97c-.03-.08-.23-.24-.59-.44-.12.01-.23.03-.31.05-.29.07-.43.18-.43.32.04.89.14,1.73.34,2.51.37,1.45,1.32,3.69,2.87,6.71.28.17.45.53.48,1.07.19,0,.37-.02.51-.06.71-.17.93-.57.68-1.18M170.62,61.46c.44,1.71-.02,3.17-1.36,4.38-1.03.93-2.47,1.64-4.33,2.11-.35.09-1.46.26-3.34.52l-.57-2.08c-.03-.08.34-.27,1.13-.56,1.36-.49,2.25-.85,2.68-1.1,1.12-.63,1.64-1.34,1.55-2.14-.29-.28-.67-.35-1.12-.24-.35.09-.85.27-1.5.55-.65.29-1.15.47-1.51.55-1.69.43-3.34-.72-4.95-3.45-1.13-1.91-1.97-4-2.55-6.26-.44-1.75-.53-3.12-.25-4.11.34-1.23,1.28-2.15,2.81-2.76.54-.18,1.29-.47,2.28-.87,0,0,.26-.2.79-.6.2-.05.51-.15.93-.31.42-.16.74-.26.95-.32.52-.13.91-.2,1.17-.2.58.26,1.88,2.88,3.9,7.87,1.84,4.56,2.94,7.55,3.31,9.01"/>
  </g>
  <g>
    <path class="st3" d="M17.49,83.88v1.96h2.95v1.5h-2.95v3.06h-1.87v-8.02h5.01v1.5h-3.14Z"/>
    <path class="st3" d="M25.85,90.4l-1.69-3.07h-.59v3.07h-1.88v-8.02h2.88c1.53,0,3,.65,3,2.41,0,1.52-.98,2.12-1.57,2.3l2.04,3.31h-2.19ZM24.31,83.83h-.74v2.06h.74c.7,0,1.37-.21,1.37-1.03s-.67-1.02-1.37-1.02Z"/>
    <path class="st3" d="M28.66,90.4v-8.02h5.2v1.5h-3.33v1.64h3.14v1.5h-3.14v1.86h3.43v1.52h-5.3Z"/>
    <path class="st3" d="M37.43,90.54c-1.16,0-2.2-.6-2.85-1.21l.93-1.37c.58.6,1.48,1.01,2.09,1.01s1.07-.29,1.07-.83-.59-.76-.94-.88-.95-.34-1.22-.45c-.2-.09-.6-.24-.95-.58-.35-.33-.63-.79-.63-1.55s.37-1.37.84-1.76c.45-.38,1.19-.64,2.12-.64s2,.44,2.55.99l-.8,1.31c-.46-.46-1.19-.81-1.79-.81s-1.05.23-1.05.72.45.67.81.81c.35.14.94.35,1.2.45,1.02.37,1.74,1.04,1.74,2.2,0,1.73-1.56,2.58-3.12,2.58Z"/>
    <path class="st3" d="M46.65,90.4v-3.36h-3.22v3.36h-1.88v-8.02h1.88v3.1h3.22v-3.1h1.88v8.02h-1.88Z"/>
    <path class="st3" d="M51.15,90.53c-.65,0-1.1-.37-1.1-1s.45-1,1.1-1,1.09.37,1.09,1-.45,1-1.09,1ZM51.96,87.93h-1.62l-.16-5.56h1.95l-.17,5.56Z"/>
    <path class="st3" d="M58.79,90.4h-2.72v-8.02h2.72c2.52,0,4.4,1.34,4.4,4.01s-1.86,4.01-4.4,4.01ZM58.89,83.93h-.95v4.87h.95c1.49,0,2.38-.93,2.38-2.42s-.86-2.45-2.38-2.45Z"/>
    <path class="st3" d="M64.24,90.4v-8.02h5.2v1.5h-3.33v1.64h3.14v1.5h-3.14v1.86h3.43v1.52h-5.3Z"/>
    <path class="st3" d="M70.7,90.4v-8.02h1.87v6.46h2.78v1.56h-4.65Z"/>
    <path class="st3" d="M76.2,90.4v-8.02h1.88v8.02h-1.88Z"/>
    <path class="st3" d="M83.35,90.54c-2.36,0-4.21-1.56-4.21-4.14s1.87-4.14,4.21-4.14c1.65,0,2.55.69,2.76.91l-.58,1.56c-.15-.2-1.01-.84-2.07-.84-1.36,0-2.41.91-2.41,2.48s1.09,2.46,2.41,2.46c1,0,1.72-.4,2.16-.85l.63,1.47c-.41.42-1.26,1.09-2.9,1.09Z"/>
    <path class="st3" d="M87.1,90.4v-8.02h1.88v8.02h-1.88Z"/>
    <path class="st3" d="M94.3,90.54c-2.38,0-4.26-1.55-4.26-4.14s1.87-4.15,4.26-4.15,4.26,1.56,4.26,4.15-1.87,4.14-4.26,4.14ZM94.3,83.85c-1.34,0-2.35.96-2.35,2.5s1.01,2.51,2.35,2.51,2.35-.98,2.35-2.51-1.01-2.5-2.35-2.5Z"/>
    <path class="st3" d="M105.5,89.57c-.56.6-1.43.95-2.59.95s-2.03-.35-2.6-.95c-.56-.62-.75-1.4-.75-2.52v-4.67h1.89v4.67c0,.57.05,1.01.31,1.34.26.3.63.5,1.15.5s.9-.2,1.15-.5c.27-.33.31-.77.31-1.34v-4.67h1.89v4.67c0,1.13-.2,1.91-.77,2.52Z"/>
    <path class="st3" d="M109.92,90.54c-1.16,0-2.2-.6-2.85-1.21l.93-1.37c.58.6,1.48,1.01,2.09,1.01s1.07-.29,1.07-.83-.59-.76-.94-.88-.95-.34-1.22-.45c-.2-.09-.6-.24-.95-.58-.35-.33-.63-.79-.63-1.55s.37-1.37.84-1.76c.45-.38,1.19-.64,2.12-.64s2,.44,2.55.99l-.8,1.31c-.46-.46-1.19-.81-1.79-.81s-1.05.23-1.05.72.45.67.81.81c.35.14.94.35,1.2.45,1.02.37,1.74,1.04,1.74,2.2,0,1.73-1.56,2.58-3.12,2.58Z"/>
    <path class="st3" d="M115.2,90.53c-.65,0-1.1-.37-1.1-1s.45-1,1.1-1,1.09.37,1.09,1-.45,1-1.09,1ZM116,87.93h-1.62l-.16-5.56h1.95l-.17,5.56Z"/>
    <path class="st3" d="M125.28,90.4l-.57-1.62h-2.86l-.57,1.62h-1.95l3.02-8.03h1.95l3.02,8.03h-2.05ZM123.28,84.43l-1,2.88h2l-1-2.88Z"/>
    <path class="st3" d="M130.08,90.54c-1.16,0-2.2-.6-2.85-1.21l.93-1.37c.58.6,1.48,1.01,2.09,1.01s1.07-.29,1.07-.83-.59-.76-.94-.88-.95-.34-1.22-.45c-.2-.09-.6-.24-.95-.58-.35-.33-.63-.79-.63-1.55s.37-1.37.84-1.76c.45-.38,1.19-.64,2.12-.64s2,.44,2.55.99l-.8,1.31c-.46-.46-1.19-.81-1.79-.81s-1.05.23-1.05.72.45.67.81.81c.35.14.94.35,1.2.45,1.02.37,1.74,1.04,1.74,2.2,0,1.73-1.56,2.58-3.12,2.58Z"/>
    <path class="st3" d="M134.2,90.4v-8.02h1.88v8.02h-1.88Z"/>
    <path class="st3" d="M142.72,90.4l-.57-1.62h-2.86l-.57,1.62h-1.95l3.02-8.03h1.95l3.02,8.03h-2.05ZM140.72,84.43l-1,2.88h2l-1-2.88Z"/>
    <path class="st3" d="M150.77,90.4l-3.52-5.44s.03.96.03,1.81v3.63h-1.84v-8.02h2.01l3.44,5.39s-.04-.91-.04-1.76v-3.64h1.84v8.02h-1.93Z"/>
    <path class="st3" d="M153.78,88v-1.45h3.24v1.45h-3.24Z"/>
    <path class="st3" d="M158.11,90.4v-8.02h1.88v8.02h-1.88Z"/>
    <path class="st3" d="M166.78,90.4l-3.52-5.44s.03.96.03,1.81v3.63h-1.84v-8.02h2.01l3.44,5.39s-.04-.91-.04-1.76v-3.64h1.84v8.02h-1.93Z"/>
    <path class="st3" d="M172.47,90.54c-1.16,0-2.2-.6-2.85-1.21l.93-1.37c.58.6,1.48,1.01,2.09,1.01s1.07-.29,1.07-.83-.59-.76-.94-.88-.95-.34-1.22-.45c-.2-.09-.6-.24-.95-.58-.35-.33-.63-.79-.63-1.55s.37-1.37.84-1.76c.45-.38,1.19-.64,2.12-.64s2,.44,2.55.99l-.8,1.31c-.46-.46-1.19-.81-1.79-.81s-1.05.23-1.05.72.45.67.81.81c.35.14.94.35,1.2.45,1.02.37,1.74,1.04,1.74,2.2,0,1.73-1.56,2.58-3.12,2.58Z"/>
    <path class="st3" d="M179.46,87.43h-.99v2.96h-1.88v-8.02h2.87c1.64,0,2.93.73,2.93,2.52s-1.29,2.54-2.93,2.54ZM179.19,83.83h-.73v2.15h.73c.73,0,1.29-.26,1.29-1.08s-.57-1.07-1.29-1.07Z"/>
    <path class="st3" d="M183.3,90.4v-8.02h1.88v8.02h-1.88Z"/>
    <path class="st3" d="M190.81,90.4l-1.69-3.07h-.59v3.07h-1.88v-8.02h2.88c1.53,0,3,.65,3,2.41,0,1.52-.98,2.12-1.57,2.3l2.04,3.31h-2.19ZM189.27,83.83h-.74v2.06h.74c.7,0,1.37-.21,1.37-1.03s-.67-1.02-1.37-1.02Z"/>
    <path class="st3" d="M193.62,90.4v-8.02h5.2v1.5h-3.33v1.64h3.14v1.5h-3.14v1.86h3.43v1.52h-5.3Z"/>
    <path class="st3" d="M202.81,90.4h-2.72v-8.02h2.72c2.52,0,4.4,1.34,4.4,4.01s-1.86,4.01-4.4,4.01ZM202.91,83.93h-.95v4.87h.95c1.49,0,2.38-.93,2.38-2.42s-.86-2.45-2.38-2.45Z"/>
    <path class="st3" d="M209.42,90.53c-.65,0-1.1-.37-1.1-1s.45-1,1.1-1,1.09.37,1.09,1-.45,1-1.09,1ZM210.22,87.93h-1.62l-.16-5.56h1.95l-.17,5.56Z"/>
  </g>
</svg>