<svg width="1033" height="1642" viewBox="0 0 1033 1642" fill="none" xmlns="http://www.w3.org/2000/svg">

<g id="Icons - Brand Approved">

<path id="Icon - Bowls" d="M89.8222 53.1128C89.8222 53.1128 89.442 53.4083 89.2731 53.5349C89.1041 53.6616 88.9352 53.7461 88.7662 53.8727C89.1464 53.6194 89.4843 53.3661 89.8644 53.1128H89.8222ZM1029.96 1400.27C1029.54 1405.38 1028.82 1410.44 1028.18 1415.51C1028.18 1417.07 1028.18 1418.63 1028.18 1420.2C1031.48 1472.46 1018.3 1526.59 973.779 1553.65C963.345 1566.11 951.434 1577.63 937.368 1587.68C933.186 1591.27 928.962 1594.78 924.696 1598.28C923.429 1599.04 922.119 1599.84 920.894 1600.64C920.894 1600.64 920.852 1600.64 920.81 1600.69C920.725 1600.69 920.683 1600.77 920.599 1600.81C920.049 1601.11 919.542 1601.45 918.993 1601.78C916.332 1603.35 913.544 1604.57 910.757 1605.88C910.757 1605.92 910.757 1606.01 910.757 1606.05C909.447 1606.68 908.138 1607.23 906.828 1607.82C907.082 1607.7 907.378 1607.61 907.631 1607.48C907.378 1607.61 907.082 1607.7 906.786 1607.82C906.702 1607.82 906.659 1607.86 906.575 1607.91C906.955 1607.78 907.251 1607.61 907.589 1607.48C906.533 1607.95 905.477 1608.41 904.378 1608.88C903.491 1609.26 902.689 1609.68 901.802 1610.1C897.155 1612.26 892.551 1614.54 887.905 1616.65C883.681 1618.33 879.414 1619.85 875.106 1621.33C874.599 1621.5 874.092 1621.71 873.585 1621.88C871.811 1622.51 870.079 1623.15 868.305 1623.82C868.305 1623.82 868.305 1623.74 868.263 1623.74C832.401 1630.58 795.188 1629.65 758.735 1628.09C697.529 1623.53 636.788 1635.31 575.624 1635.65C540.523 1636.28 505.464 1634.63 470.362 1634.46C414.099 1635.6 357.877 1641.18 301.571 1641.18C286.323 1641.18 271.074 1640.75 255.783 1639.74C223.216 1637.76 189.297 1638.09 158.251 1627.03C153.9 1625.01 149.55 1622.51 146.255 1619.77C142.749 1619.31 139.327 1618.5 135.864 1617.74C114.49 1616.48 97.4254 1611.45 84.2466 1603.26C79.6002 1601.24 75.714 1598.32 72.5883 1594.56C60.2542 1583.29 52.1864 1568.56 46.8641 1551.8C40.0635 1539.89 35.2481 1527.01 33.7697 1512.87C33.0094 1509.41 32.2913 1505.9 31.5733 1502.36C16.1557 1457.69 13.0299 1402.8 12.5653 1350.32C8.04558 1318.74 6.14477 1286.32 7.07405 1255.83C10.9179 1204.54 10.8757 1153.24 6.48269 1101.98C3.73709 1037.89 1.45611 973.72 6.98955 909.714C7.15851 905.577 7.53866 901.312 7.83434 897.091C8.13002 874.038 8.72142 851.029 9.52398 827.976C7.9611 802.433 7.79209 776.848 11.7204 753.331C10.0308 730.026 7.91883 706.678 6.98955 683.331C3.69483 643.391 5.29999 603.408 5.63791 563.426C5.17327 550.887 5.00429 538.305 5.08877 525.723C4.91981 519.813 4.96204 513.944 4.62412 508.033C2.30092 463.913 1.79404 419.667 4.62412 375.589C1.963 344.093 -0.233493 312.512 0.0199471 280.89C-0.275733 234.152 7.03183 184.164 20.4219 140.17C21.2245 137.426 21.9848 134.682 22.8296 131.937C23.5476 130.586 24.2235 129.235 24.9416 127.884C29.8414 118.638 35.4171 109.73 41.1617 100.99C41.2884 100.779 41.4152 100.568 41.5841 100.357C42.5134 98.9637 43.4004 97.5282 44.3297 96.1349C45.8081 94.0662 47.3288 92.124 48.9339 90.1819C50.8347 87.9865 52.7355 85.9177 54.6786 83.7645C58.3112 79.7536 61.9016 75.7849 65.7454 71.9851C67.6462 70.2119 69.5892 68.5231 71.659 67.0031C73.5598 65.5254 75.5451 64.0899 77.4459 62.57C81.332 59.488 85.3025 56.4481 89.3153 53.4927C91.1739 52.1839 93.0324 50.8329 94.9755 49.6929C97.3409 48.3419 99.7486 47.0753 102.156 45.7665C106.76 43.2755 111.238 40.5734 115.927 38.2091C120.488 36.0981 125.177 34.2404 129.95 32.5516C131.429 32.0872 132.907 31.6228 134.385 31.2006H134.47C141.693 29.0051 148.789 26.3875 155.97 23.981C159.18 22.8832 162.391 21.87 165.559 20.6878C165.685 20.6878 165.812 20.6034 165.939 20.5611C168.727 19.5056 171.514 18.4501 174.344 17.4791C175.696 17.9857 176.752 18.7879 178.019 19.379C179.244 19.2523 180.596 19.1679 181.779 18.999C202.73 16.3814 223.216 10.2595 244.378 9.20396C247.8 8.95064 251.263 8.95063 254.685 8.86619C266.597 7.47293 277.917 6.37521 288.181 5.53081C341.446 2.23765 394.542 7.05073 447.595 11.8638C480.035 14.8192 512.476 17.7746 544.958 18.8723C569.542 18.0702 594.168 17.3524 618.751 17.3524C627.199 16.6347 635.605 15.7058 644.053 14.4815C684.392 10.1328 725.154 7.5996 765.831 9.41506C767.183 6.24856 768.492 3.08206 770.055 0C768.999 3.12428 768.112 6.29078 767.225 9.41506C768.197 9.45728 769.168 9.41506 770.14 9.4995C805.114 11.2727 840.554 14.2281 873.459 27.0208C911.306 41.2067 948.646 62.57 972.934 95.5861C1007.19 145.575 1013.91 208.187 1020.41 266.957C1024.59 300.438 1027.85 334.002 1028.78 367.694C1029.58 393.955 1028.4 420.131 1026.2 446.265C1028.56 505.922 1029.75 565.664 1028.65 625.447C1023.5 732.306 1018.85 839.207 1021.43 946.277C1022.57 1030.63 1020.54 1114.99 1022.99 1199.3C1028.94 1266.22 1036.93 1333.14 1030 1400.23L1029.96 1400.27ZM826.108 69.1141C825.221 68.903 824.334 68.7341 823.404 68.6075C819.011 67.8475 814.576 67.2565 810.099 66.7498C808.409 66.4543 806.719 66.1587 805.03 65.821C799.581 64.5122 794.09 63.2033 788.514 62.6123C782.431 61.979 776.307 61.3879 770.182 61.0923C758.397 60.459 746.654 60.459 734.911 60.4168C731.786 60.4168 728.702 60.4168 725.576 60.459C688.701 63.6677 651.783 62.5278 614.823 61.3457C586.818 60.4591 558.813 59.5724 530.808 60.5857C496.678 60.7124 462.717 62.2323 428.798 66.0743C408.101 66.6232 387.361 66.2854 366.705 65.9054C347.486 65.5676 328.309 65.2721 309.09 65.6521C259.585 67.552 210.206 74.0117 160.701 74.1805C159.096 74.7294 157.448 75.1938 155.886 75.7849C154.999 75.996 154.069 76.1649 153.182 76.376C148.536 77.347 143.889 78.4025 139.37 79.8802C132.991 81.9912 126.698 84.8622 121.291 88.8309C119.095 90.393 116.602 92.0396 115.039 94.2773C114.279 95.3327 113.603 96.3461 113.181 97.5282C84.9646 116.147 61.6903 141.606 47.9623 172.595C45.1745 204.429 46.8641 237.614 45.3013 266.915C42.7246 377.278 50.4967 487.514 48.2158 597.877C47.0753 668.427 45.1323 738.977 43.147 809.569C44.203 849.298 46.2305 888.942 48.7649 928.587C48.7649 930.487 48.7649 932.387 48.7649 934.286C48.8072 946.235 49.2296 958.183 49.6942 970.173C50.6235 994.661 51.1726 1019.19 52.4398 1043.68C52.4398 1043.72 52.4398 1043.81 52.4398 1043.85C52.7355 1050.14 53.0312 1056.43 53.3268 1062.68C54.1716 1080.41 55.3966 1098.14 56.4103 1115.92C56.4103 1116 56.4103 1116.09 56.4103 1116.17C56.4103 1116.17 56.4104 1116.63 56.4526 1116.85V1116.76C56.6216 1119.67 56.7483 1122.55 56.9173 1125.42C56.9173 1124.95 56.875 1124.45 56.8328 1123.98C57.044 1128.37 57.2974 1132.76 57.5508 1137.2C58.1422 1148.34 58.7335 1159.49 58.987 1170.63C59.2827 1184.57 59.4516 1198.5 59.5361 1212.47C59.6628 1236.62 60.8033 1260.77 61.4369 1284.97C61.6059 1292.9 61.6481 1300.88 61.5636 1308.82C61.5214 1316.25 61.1835 1323.64 61.3524 1331.07C61.5636 1338.97 62.2817 1346.9 63.1265 1354.76C63.8446 1361.81 64.6472 1368.77 65.4075 1375.82C65.4075 1376.08 65.4497 1376.37 65.492 1376.63V1376.75C65.492 1376.75 65.492 1376.88 65.492 1376.92C65.492 1376.96 65.492 1377.05 65.492 1377.09V1377.17C65.492 1377.17 65.492 1377.22 65.492 1377.26V1377.47C66.0411 1383.13 66.5057 1388.78 66.6747 1394.48C66.8437 1399.51 66.8859 1404.57 66.9281 1409.56V1410.44C66.9281 1410.44 66.9281 1410.74 66.9281 1410.91C66.9281 1410.82 66.9281 1410.74 66.9281 1410.65C66.9281 1423.28 66.5057 1435.99 67.3083 1448.57C67.6884 1454.69 68.0686 1460.85 68.2376 1466.98C68.2376 1467.14 68.2375 1467.31 68.2798 1467.48C71.4478 1479.05 74.5735 1490.66 78.2484 1501.93C93.3281 1521.06 109.041 1540.35 126.909 1557.12C130.542 1558.17 134.259 1559.31 138.018 1560.07C138.694 1560.2 139.327 1560.41 139.961 1560.49C140.088 1560.49 140.257 1560.54 140.383 1560.58C140.595 1560.83 140.848 1561.08 141.059 1561.34C144.481 1563.32 147.987 1565.14 151.577 1566.83C160.405 1567.71 169.276 1568.56 178.104 1569.57C178.315 1569.61 178.484 1569.7 178.695 1569.78C182.75 1571.13 186.89 1572.06 191.24 1572.06C192.592 1572.06 193.944 1572.02 195.253 1571.85C196.309 1572.02 197.323 1572.19 198.379 1572.36C220.048 1575.48 241.633 1579.53 263.555 1580.89C276.185 1581.22 288.857 1581.1 301.529 1580.93C320.706 1580.72 339.883 1580.46 359.018 1581.98C382.376 1583.59 405.651 1586.21 428.925 1588.49C443.329 1588.57 457.733 1588.49 472.136 1587.6C515.263 1584.56 558.475 1582.57 601.686 1584.98C614.401 1585.7 627.115 1586.88 639.787 1587.94C653.304 1587.6 666.863 1587.39 680.38 1586.84C744.796 1583.12 839.709 1590.26 903.027 1561.51C919.627 1550.19 935.594 1537.48 949.871 1523.38C961.656 1507.47 972.089 1490.62 980.03 1472.55C980.157 1470.02 980.241 1467.44 980.368 1464.91C981.889 1424.76 983.578 1384.56 985.521 1344.45C987.718 1333.1 989.323 1321.61 990.928 1310.17C990.041 1235.86 986.535 1161.6 986.915 1087.29C986.662 1019.28 986.704 951.259 988.14 883.242C988.14 882.736 988.056 882.229 988.056 881.722C988.056 881.638 988.056 881.554 988.056 881.469C987.802 875.643 988.014 869.69 988.056 863.863C988.056 863.779 988.056 863.694 988.056 863.61V863.019C988.056 863.019 988.056 863.019 988.056 863.061C988.14 857.15 988.225 851.282 988.309 845.413C988.816 818.308 989.281 791.161 988.14 764.098C988.14 763.886 988.14 763.633 988.14 763.422C987.718 753.88 986.62 744.381 985.183 734.966C984.677 731.673 984.085 728.379 983.536 725.129C982.184 717.487 980.833 709.845 979.185 702.245C979.946 688.228 981.086 674.253 982.311 660.279C981.002 574.065 970.737 488.063 975.046 401.765C976.398 365.372 982.142 328.556 984.677 291.909C983.24 280.932 981.804 269.955 980.79 258.935C978.678 238.416 980.706 217.813 978.636 197.294C978.087 195.056 977.792 192.777 977.158 190.539C964.444 147.221 934.495 108.294 894.705 86.5932C873.797 76.2071 848.833 71.1829 825.896 69.1564L826.108 69.1141ZM525.359 1556.9C525.486 1555.05 525.612 1553.19 525.739 1551.33C525.19 1551.29 524.599 1551.21 524.049 1551.16C524.472 1553.06 524.894 1554.96 525.359 1556.9ZM61.4792 1284.16C61.4792 1284.42 61.4792 1284.67 61.4792 1284.92C61.4792 1285.26 61.4792 1285.6 61.4792 1285.98C61.4792 1285.35 61.4792 1284.75 61.4792 1284.16ZM122.727 147.137C122.474 146.757 122.178 146.377 121.925 145.997C122.051 146.461 122.22 146.968 122.347 147.432C122.474 147.306 122.6 147.221 122.727 147.137ZM907.251 173.271C907.251 173.271 907.124 173.398 907.039 173.44C907.124 173.44 907.208 173.44 907.293 173.524C907.293 173.44 907.293 173.355 907.293 173.271H907.251ZM887.018 528.13C887.018 528.13 887.018 528.214 887.018 528.257C887.018 528.257 887.018 528.13 887.018 528.088V528.13ZM598.181 1325.54C598.181 1325.54 598.265 1325.54 598.307 1325.54C598.307 1325.54 598.223 1325.54 598.181 1325.54ZM710.919 567.817C725.619 617.045 701.246 652.13 655.205 669.989C655.923 671.509 656.641 673.325 658.161 674.169C655.838 674.718 653.219 672.734 651.107 671.636C638.52 676.322 625.637 681.684 612.584 684.26C613.218 683.964 613.894 683.626 614.485 683.331C624.369 678.011 633.662 671.72 643.082 665.641C602.616 643.391 585.382 598.722 592.816 554.095C596.237 533.703 599.997 506.978 622.849 501.742C631.888 478.479 651.572 450.023 680.042 464.462C710.581 487.472 708.131 533.239 710.919 567.817ZM682.872 550.38C682.872 550.802 682.956 551.267 682.956 551.689C682.956 551.689 682.956 551.773 682.956 552.238C680.844 530.621 680.718 505.12 666.821 487.641C647.052 488.697 650.094 525.892 626.439 528.341C610.684 570.772 622.004 614.47 647.052 650.484C648.277 652.932 649.375 655.297 650.389 657.788C650.685 658.505 650.938 659.265 651.234 659.983C706.737 621.225 687.307 605.73 682.787 550.338L682.872 550.38ZM250.757 751.896C270.905 738.47 294.306 729.139 318.721 728.759C353.315 724.453 424.785 748.434 392.092 792.427C371.267 803.278 351.71 816.239 331.815 828.948C313.821 833.549 299.079 843.176 285.689 856.01C252.066 885.987 202.73 887.507 160.152 884.72C93.9617 856.982 205.264 740.412 250.714 751.896H250.757ZM268.751 759.622C273.482 762.873 276.565 767.644 279.269 772.542C279.438 772.373 279.48 772.119 279.691 772.035C282.225 775.413 277.03 776.384 274.369 776.046C269.976 776.637 265.752 777.65 261.57 778.79C261.57 779.592 261.697 780.352 262.711 780.606C274.749 784.828 283.957 793.863 289.66 804.798C294.475 802.264 299.586 800.449 304.782 798.802C304.655 798.676 304.486 798.549 304.359 798.422C293.166 788.205 290.885 773.555 287.463 760.002C298.403 759.538 313.187 777.523 322.48 791.752C334.138 784.025 344.952 774.864 357.877 769.248C330.632 755.527 298.277 751.812 268.709 759.58L268.751 759.622ZM183.257 846.089C206.531 845.962 223.596 844.062 239.394 837.898C232.044 832.198 226.469 824.346 225.708 814.846C224.779 812.06 228.707 804.375 230.355 808.935C240.323 813.579 247.715 822.277 251.01 832.452C258.613 828.314 266.301 822.91 274.453 816.028C262.373 803.869 251.855 788.036 257.599 779.972C225.455 790.401 199.604 816.915 183.257 846.047V846.089ZM238.338 629.5C326.366 603.45 383.137 722.764 302.627 719.471C257.008 709 207.967 712.082 165.727 688.27C106.845 651.792 203.068 589.307 238.338 629.5ZM190.522 656.943C217.176 668.3 245.857 673.325 274.664 674.338C280.958 674.76 287.125 675.604 293.292 676.913C297.727 677.842 302.036 679.32 306.302 680.882C297.812 653.608 269.934 637.818 242.9 634.229C273.524 672.185 218.105 615.821 190.48 656.943H190.522ZM480.711 703.301C480.711 703.301 480.542 703.301 480.458 703.301C480.458 703.301 480.542 703.301 480.584 703.301C480.584 703.301 480.669 703.301 480.711 703.301ZM480.458 703.343H480.373C445.356 648.964 389.008 734.332 459.76 757.765C510.448 766.335 517.206 673.24 471.418 664.627C460.816 662.896 449.411 665.683 440.245 670.707C454.86 667.794 475.896 669.356 481.218 685.991C492.75 761.522 434.12 725.973 458.62 703.723C468.25 696.503 474.713 704.99 480.5 703.385L480.458 703.343ZM625.214 248.845C717.382 216.884 724.14 293.978 696.684 360.77C679.493 395.77 636.112 412.532 598.772 411.392C504.915 412.996 555.518 231.661 625.172 248.802L625.214 248.845ZM596.576 360.221C600.208 361.445 604.094 361.234 607.854 361.108C650.305 358.954 663.948 329.232 671.045 291.994C680.211 262.06 632.437 269.364 615.33 274.514C606.037 301.957 593.661 330.751 596.576 360.221ZM574.991 684.597C558.475 691.184 568.993 717.571 583.439 720.4C583.439 720.4 583.481 720.4 583.523 720.4C585.044 713.729 584.96 705.834 583.016 698.952C583.608 699.205 584.157 699.67 584.748 699.839C586.227 693.337 582.974 683.922 574.991 684.597ZM810.732 330.794C840.596 308.122 876.753 340.8 880.259 372.169C914.6 382.175 925.498 435.457 897.662 457.749C887.82 484.221 879.372 497.605 859.519 501.363C867.967 510.735 876.289 520.193 879.921 532.521C879.964 532.69 879.921 532.901 880.006 533.07C880.006 532.479 880.006 531.845 880.006 531.254C880.133 532.268 880.09 533.323 880.175 534.379C880.935 537.672 881.062 540.965 880.766 544.174C881.104 553.293 880.808 562.455 879.33 571.574C879.457 567.943 879.583 564.312 879.668 560.682C879.752 557.008 879.752 553.378 879.795 549.704C875.613 563.975 861.505 574.825 845.369 571.49C827.882 570.266 810.986 558.022 793.414 563.679C775.335 579.089 750.245 553.04 767.183 536.236C767.183 536.236 767.183 536.236 767.141 536.236C778.376 525.09 789.486 509.933 795.188 493.847C781.249 489.921 767.943 485.361 758.735 481.561C715.692 476.622 712.313 421.904 733.602 392.815C716.664 348.864 771.871 301.915 810.774 330.963L810.732 330.794ZM778.376 441.537C778.968 443.394 779.601 445.168 780.319 446.814C781.587 447.785 783.065 448.334 784.417 449.179C782.094 446.73 780.024 444.154 778.334 441.537H778.376ZM846.383 533.196C843.848 523.064 838.695 512.509 835.316 501.869C833.964 501.742 832.824 501.785 831.388 501.616C825.052 500.771 818.082 499.378 810.943 497.732C811.577 506.556 810.943 515.548 809.719 523.866C822.391 524.752 834.049 530.41 846.341 533.196H846.383ZM798.06 368.623C795.779 363.936 795.357 358.954 790.837 355.704C765.958 347.471 754.638 379.009 768.112 396.615C769.379 401.343 767.985 406.199 765.113 409.872C769.253 414.389 771.829 420.553 773.899 427.013C774.237 422.073 776.898 417.598 782.981 414.22C775.377 430.011 793.076 436.681 805.917 442.93C817.829 439.763 828.642 431.573 841.103 428.575C852.085 425.831 865.433 427.604 873.501 435.373C879.119 427.604 883.427 419.878 876.88 409.323C874.768 404.552 869.066 402.61 864.166 403.497C850.48 405.65 840.343 389.226 848.326 377.911C846.721 368.792 842.032 357.392 831.937 355.45C830.374 356.252 828.727 357.012 827.544 358.406C829.909 374.998 806.255 383.484 798.06 368.623ZM543.902 646.726C598.856 661.925 581.327 574.234 569.288 545.736C561.39 527.834 564.389 500.476 542.044 493.636C557.25 505.247 548.337 525.259 550.407 541.514C551.041 563.637 555.518 585.845 551.843 607.884C545.296 599.355 537.946 590.489 527.64 586.436C528.907 570.054 532.835 554.011 533.089 537.587C532.666 528.383 536.975 525.386 544.029 521.121C544.113 520.953 544.409 520.53 544.24 520.446C540.607 521.713 536.637 519.475 532.878 520.319C509.857 528.721 498.494 578.752 498.114 601.002C500.268 610.755 510.11 612.95 517.671 616.75C527.724 625.574 532.666 639.253 543.987 646.684L543.902 646.726ZM336.799 292.416C347.993 240.612 448.313 240.992 450.172 302.126C494.566 298.875 516.404 350.51 506.604 388.086C489.244 436.217 479.148 487.05 455.621 532.943C439.95 569.294 410.508 595.429 375.28 610.543C373.759 611.557 372.197 612.528 370.591 613.372C370.254 622.872 369.831 632.371 369.535 641.828C369.535 641.828 369.535 641.913 369.493 641.913C368.395 643.813 367.381 645.755 366.452 647.781C365.607 648.964 364.762 650.188 363.918 651.37C363.706 650.272 363.622 649.175 363.411 648.119C361.932 648.668 360.496 649.386 358.891 649.386C357.075 649.386 355.258 649.006 353.653 648.288C350.063 646.262 342.333 640.477 344.149 635.833C344.614 636.678 345.585 637.1 346.599 637.184C324.677 608.179 302.416 579.343 283.07 548.564C276.396 537.545 269.638 526.568 262.415 515.844C259.543 512.509 256.628 509.215 253.502 506.091C242.52 489.836 245.096 469.613 245.688 451.078C242.9 420.342 276.65 409.027 301.74 416.458C300.853 411.392 300.008 406.452 299.248 401.597C290.462 371.578 293.377 331.554 311.498 314.666C317.622 306.771 325.944 299.382 336.799 292.458V292.416ZM344.065 350.89C338.362 346.331 335.025 339.449 328.732 335.48C325.31 341.222 322.269 347.639 319.566 354.31C319.608 354.521 319.566 354.69 319.65 354.901C332.787 401.977 368.226 475.102 283.366 452.472C274.707 494.776 306.809 500.011 319.143 535.898C328.647 559.288 338.616 582.425 352.09 603.873C354.371 607.377 356.399 611.219 357.835 615.188C357.919 615.145 358.046 615.103 358.173 615.061C352.386 571.194 351.034 526.61 355.934 482.912C360.031 448.967 377.561 418.147 381.194 384.413C384.066 398.768 383.77 413.165 382.461 427.604C391.923 408.099 404.172 389.986 419.125 374.111C404.933 400.879 392.345 428.491 379.082 455.638C377.603 466.658 376.209 477.677 375.829 488.654C375.28 500.687 374.731 512.762 374.182 524.837C389.431 492.454 413 460.578 427.32 435.035C413.761 469.909 396.104 503.896 378.744 536.827C377.096 540.711 375.153 544.722 373.126 548.818C372.281 567.817 371.605 586.774 370.887 605.73C380.771 593.951 390.275 581.581 401.089 570.814C399.019 577.823 396.062 585.169 392.134 591.882C429.981 556.797 444.427 504.487 455.071 450.867C457.226 416.543 483.077 379.811 466.983 347.344C455.114 325.094 438.218 355.577 422.504 345.064C403.074 333.285 425.757 306.686 409.326 292.078C398.343 285.829 384.193 288.911 373.041 293.387C360.538 303.52 373.379 323.743 371.901 337.676C374.055 353.086 354.963 360.094 344.065 350.975V350.89ZM329.788 306.982C331.731 306.855 333.631 306.559 335.743 306.813C335.406 303.224 335.617 299.931 335.997 296.722C333.843 300.058 331.773 303.52 329.83 306.982H329.788ZM175.612 412.152C190.353 421.609 211.347 409.323 210.798 391.97C211.685 384.16 206.447 376.265 211.009 369.256C238.845 314.201 270.947 261.131 319.27 221.697C331.097 206.709 324.085 184.375 309.386 174.115C277.283 151.612 234.452 162.716 201.42 177.155C230.143 177.746 265.203 176.395 287.505 197.632C228.496 228.537 199.688 292.796 168.98 348.526C164.249 346.077 159.265 344.177 153.9 342.995C153.436 342.911 152.971 342.784 152.506 342.7C159.011 314.961 166.446 287.392 175.485 260.371C183.468 243.905 198.675 186.275 220.175 190.666C219.415 186.232 211.727 186.655 208.39 188.343C151.408 223.259 112.421 300.564 101.987 364.865C104.226 388.382 128.43 387.791 146.128 389.142C157.322 394.926 165.178 405.396 175.696 412.152H175.612ZM543.015 234.659C512.602 205.105 477.585 176.733 436.951 162.843C440.161 160.732 443.709 158.832 446.919 156.805C436.655 154.821 410.931 151.359 414.606 168.373C438.556 201.643 504.915 219.122 543.015 234.659ZM667.75 207.765C657.908 196.154 645.87 186.064 634.042 176.395C620.863 167.022 614.063 161.787 631.339 151.823C583.819 163.476 650.685 199.025 667.792 207.765H667.75ZM179.667 527.201C180.554 509.595 175.696 490.259 179.54 472.906C163.7 475.735 167.966 513.902 179.667 527.201ZM537.524 911.53C537.228 911.699 536.933 911.868 536.595 911.994C537.524 912.374 538.495 912.754 539.467 913.092C538.833 912.543 538.158 912.036 537.524 911.53ZM752.61 938.044C752.61 938.044 752.779 938.171 752.863 938.213C752.863 938.213 752.694 938.086 752.568 938.044H752.61ZM850.1 623.42C816.604 607.926 788.345 638.409 819.476 654.874C858.59 653.397 891.411 676.744 926.343 691.226C906.448 663.91 883.047 635.115 850.1 623.42ZM861.378 1488.21C838.273 1484.88 815.168 1485.76 791.978 1486.69C773.434 1487.41 754.891 1488.13 736.348 1486.69C677.296 1485 618.498 1477.7 559.446 1484.24C527.133 1486.06 492.581 1496.32 459.633 1488.85C412.578 1474.83 363.411 1479.73 315.384 1472.93C187.566 1436.87 190.607 1454.01 174.344 1317.6C176.456 1242.2 185.2 1166.88 181.567 1091.22C181.99 1047.27 175.865 1002.22 149.212 965.825C147.522 963.967 143.678 957.423 141.566 960.167C141.693 960.167 141.82 960.209 141.946 960.252C132.485 976.506 126.571 993.437 122.938 1010.83V1011.13C123.361 1024.89 123.276 1038.65 123.487 1052.46C123.699 1065.72 123.783 1078.97 123.741 1092.27C123.699 1099.28 123.91 1106.33 123.572 1113.34C123.192 1122.76 122.769 1132.17 122.347 1141.59C121.713 1156.41 120.742 1171.23 119.601 1186C119.263 1191.03 118.968 1196.05 118.672 1201.03C118.292 1219.06 117.532 1237.17 117.151 1255.2C117.151 1257.78 117.151 1260.39 117.151 1262.97C117.278 1278.97 117.616 1295.01 117.743 1311.02C118.292 1319.88 119.052 1328.71 120.235 1337.57C131.133 1391.7 132.485 1459.12 190.227 1485.85C213.416 1499.82 240.661 1502.65 266.428 1509.24C285.267 1515.32 304.359 1520.6 324.212 1521.99C349.345 1524.35 374.689 1523.47 399.864 1524.86C426.137 1526.55 450.805 1534.53 477.247 1535.37C523.162 1534.95 568.19 1522.45 614.316 1521.9C627.833 1519.75 654.782 1520.38 686.589 1520.98C768.112 1522.5 881.611 1524.06 883.258 1479.39C878.696 1487.16 870.037 1489.48 861.336 1488.26L861.378 1488.21ZM636.366 1165.74C636.366 1165.74 636.323 1165.74 636.281 1165.78C635.985 1165.99 635.647 1166.2 635.352 1166.37C635.69 1166.16 636.028 1165.95 636.366 1165.74ZM941.465 1122.93C941.465 1122.55 941.465 1122.17 941.465 1121.79C941.465 1121.32 941.465 1120.86 941.465 1120.39C941.465 1121.24 941.465 1122.08 941.55 1122.93H941.465ZM933.735 756.709C933.735 763.675 933.651 770.599 933.566 777.566C933.566 777.566 933.566 777.566 933.608 777.566C933.608 781.83 933.524 786.094 933.439 790.358C933.439 791.372 933.439 792.343 933.439 793.356C933.439 794.243 933.439 795.129 933.397 796.016C933.397 796.396 933.397 796.776 933.397 797.156C933.397 797.156 933.397 797.071 933.397 797.029C933.271 805.389 933.186 813.706 933.144 822.066C933.144 825.908 932.975 829.75 933.017 833.592C933.144 846.004 933.397 858.375 933.566 870.788C933.735 883.876 934.031 896.922 934.749 909.968C935.298 921.156 936.101 932.26 936.861 943.448C937.157 949.739 937.452 956.072 937.621 962.405C937.917 975.831 937.832 989.215 937.959 1002.64C938.086 1016.15 938.382 1029.66 938.762 1043.13C939.142 1056.6 939.606 1070.11 940.113 1083.58C940.536 1095.06 940.916 1106.54 941.296 1118.03C941.296 1118.75 941.338 1119.51 941.381 1120.22C941.381 1120.48 941.381 1120.69 941.381 1120.94C941.381 1120.73 941.381 1120.56 941.381 1120.39C941.381 1120.6 941.381 1120.81 941.381 1121.03C941.381 1121.03 941.381 1121.07 941.381 1121.11C941.381 1121.32 941.381 1121.57 941.381 1121.79C941.381 1122.21 941.381 1122.63 941.381 1123.05C941.423 1124.53 941.465 1126.01 941.507 1127.49V1126.39C941.507 1126.77 941.507 1127.11 941.507 1127.49C941.507 1126.98 941.507 1126.43 941.465 1125.92V1125.33C941.676 1137.79 941.972 1150.28 942.141 1162.74C942.141 1163.54 942.141 1164.34 942.141 1165.1C942.268 1171.82 942.225 1178.53 942.31 1185.24C942.31 1189.68 942.521 1194.07 942.437 1198.5C942.183 1210.62 941.676 1222.73 941.676 1234.85C941.676 1238.9 941.676 1242.96 941.761 1247.05C926.85 1261.58 909.025 1272.55 891.199 1283.36C861.8 1316.88 829.571 1344.07 789.654 1355.22C789.443 1355.39 789.19 1355.52 788.936 1355.68C779.559 1359.65 769.59 1362.27 759.453 1364.38C718.607 1381.06 673.832 1389.16 629.987 1389.16C624.116 1389.16 618.202 1389 612.373 1388.74C524.641 1388.7 447.511 1362.69 377.815 1309.45C356.526 1294.59 337.982 1276.44 315.595 1262.97C298.15 1249.25 287.759 1229.15 279.057 1209.18C271.201 1189.84 259.205 1164.34 264.104 1142.98C255.656 1108.95 274.707 1066.73 298.995 1035.28C319.481 1000.28 348.331 972.875 379.377 947.67C368.437 942.182 358.046 935.764 349.64 926.687C317.158 891.602 322.649 821.897 381.32 824.303C387.825 824.894 393.57 827.005 399.061 829.37C400.202 829.37 401.215 829.37 402.06 829.327C413.93 829.539 424.912 831.818 435.345 835.618C436.021 835.407 436.655 835.365 437.331 835.069C457.268 836.505 473.699 846.511 485.864 860.57C501.831 850.226 518.558 840.98 536.468 833.549C557.546 822.53 580.355 815.437 603.292 825.654C603.545 825.697 603.841 825.739 604.136 825.781C611.782 819.321 621.032 815.353 631.592 816.113C651.741 736.401 734.574 767.137 710.201 803.531C713.538 778.917 679.788 783.35 671.002 799.731C657.486 819.617 664.286 858.079 628.551 848.96C601.306 867.917 639.196 914.865 593.281 911.572C581.707 925.462 571.992 940.746 554.589 948.43C554.673 948.388 554.758 948.303 554.885 948.219C555.096 948.092 555.222 947.966 555.476 947.797C528.78 962.489 507.66 983.219 497.523 1009.02C502.254 1009.65 506.9 1010.32 511.377 1010.92C524.725 988.032 550.492 976.675 574.991 969.625C602.236 961.645 630.536 966.796 658.33 967.767C674.086 939.311 704.034 939.944 730.772 951.428C735.798 953.497 740.741 955.819 745.683 958.141C741.839 952.23 739.347 946.826 740.318 945.137C740.825 945.601 741.374 946.108 741.923 946.572C741.67 947.839 741.754 949.275 742.177 950.33C743.106 952.948 745.134 955.059 747.753 956.03C748.513 956.325 749.358 956.494 750.202 956.494C750.667 956.494 751.132 956.452 751.596 956.283C752.441 956.072 753.624 955.481 753.919 954.594C754.173 953.919 754.004 953.117 753.835 952.483C753.835 952.399 753.835 952.314 753.793 952.272C755.187 953.37 756.623 954.552 758.017 955.734C783.741 939.902 807.902 921.958 828.515 898.737C834.133 893.544 839.455 888.52 844.566 883.622C844.482 876.487 843.384 869.268 843.13 862.132C825.178 843.64 821.166 848.96 812.042 854.279C806.508 857.53 799.032 860.739 785.388 858.628C778.208 870.365 764.775 877.838 751.005 875.178C727.646 903.086 771.365 928.713 765.113 945.137C761.818 941.886 757.637 939.902 752.99 938.34C752.272 937.833 751.596 937.326 750.92 936.777C749.062 935.173 747.246 933.484 745.345 931.922C742.008 929.178 738.375 926.94 734.489 925.04C728.618 922.169 722.535 919.763 716.368 917.609C715.565 917.314 714.721 917.018 713.918 916.723C712.144 914.147 710.497 911.15 709.018 907.73C699.134 879.232 716.537 831.354 751.892 834.858C758.355 818.899 777.574 817.337 792.527 817.126C822.306 790.612 864.462 819.068 868.221 854.153C868.094 856.264 867.292 858.333 866.785 860.401C879.034 846.131 888.538 831.101 894.156 812.904C894.156 805.642 895.255 798.507 898.254 791.752C895.466 785.123 891.326 779.212 885.159 774.61C862.35 770.304 843.299 757.891 823.446 746.745C814.703 769.079 790.837 763.211 773.772 755.865C753.075 754.049 722.746 743.579 707.624 762.282C706.484 764.689 705.344 766.462 705.512 768.953C705.512 768.995 705.597 769.037 705.681 769.079C705.808 769.122 705.935 769.164 706.062 769.206C706.991 768.573 706.231 770.515 705.386 770.388C702.725 770.853 701.162 767.94 700.021 765.997C683.548 721.286 748.935 697.432 784.206 703.259C825.685 671.002 859.519 713.265 892.213 734.755C896.142 736.57 899.479 738.723 902.604 741.088C902.689 740.708 902.731 740.117 902.815 739.821C902.984 740.454 903.153 741.045 903.322 741.679C906.533 744.17 909.405 746.914 911.813 749.869C912.615 749.701 913.418 749.532 914.305 749.574C921.739 749.827 928.075 752.656 933.693 756.878L933.735 756.709ZM601.349 1295.23C597.716 1296.37 594.083 1297.46 590.408 1298.48C590.662 1298.56 590.873 1298.64 591.126 1298.73C587.114 1299.87 583.059 1300.88 579.004 1301.85C576.638 1302.36 574.188 1302.53 571.823 1302.99C564.769 1304.3 557.672 1305.65 550.534 1306.37H550.492C550.492 1306.37 550.492 1306.37 550.449 1306.37H550.365H550.407C550.407 1306.37 550.238 1306.37 550.196 1306.37C544.831 1306.84 539.467 1307.17 534.103 1307.55C533.934 1307.55 533.765 1307.55 533.553 1307.55C533.722 1307.55 533.849 1307.64 534.018 1307.68C531.188 1307.89 528.358 1308.02 525.57 1308.1C525.57 1308.1 525.486 1308.06 525.486 1308.02C525.486 1308.02 525.486 1308.02 525.486 1308.06C525.486 1308.06 525.486 1308.06 525.486 1308.1C525.486 1308.14 525.528 1308.19 525.612 1308.23C527.978 1308.86 530.385 1309.33 532.793 1309.83C533.976 1310.09 535.159 1310.38 536.341 1310.64C536.721 1310.72 537.102 1310.76 537.482 1310.85C537.777 1310.89 538.073 1310.97 538.327 1311.02C538.833 1311.1 539.383 1311.18 539.889 1311.31C541.537 1311.65 543.226 1311.94 544.916 1312.2C546.141 1312.41 547.324 1312.62 548.549 1312.83C548.633 1312.83 548.718 1312.83 548.802 1312.87C550.112 1313.13 551.463 1313.42 552.773 1313.59C560.207 1314.52 567.768 1315.03 575.244 1315.03C577.905 1315.03 580.566 1314.77 583.228 1314.65C586.86 1314.48 590.535 1314.18 594.168 1313.8C594.506 1313.8 594.801 1313.68 595.139 1313.68C599.025 1313.21 602.911 1312.75 606.755 1311.94C606.755 1311.94 606.798 1311.94 606.84 1311.94C607.135 1311.9 607.389 1311.78 607.685 1311.69C624.792 1308.14 640.843 1301.94 656.387 1293.92C664.666 1289.65 672.819 1285.18 680.633 1280.07C686.716 1276.1 692.925 1272.13 698.67 1267.7C709.145 1259.51 719.578 1251.27 729.631 1242.58C741.459 1232.28 753.159 1221.72 764.606 1211.04V1211C748.766 1220.03 733.053 1229.24 717.509 1238.78C714.467 1240.63 711.342 1242.45 708.258 1244.31C708.174 1244.39 708.089 1244.48 708.047 1244.56C706.906 1245.24 705.766 1245.83 704.625 1246.5C691.869 1254.15 679.028 1261.62 665.891 1268.5C648.869 1277.24 631.255 1285.01 613.345 1291.64C613.345 1291.64 613.303 1291.64 613.26 1291.64C613.26 1291.64 613.26 1291.64 613.218 1291.64C613.218 1291.64 613.176 1291.64 613.134 1291.64C609.332 1292.99 605.404 1293.83 601.56 1295.06L601.349 1295.23ZM676.325 1339.51C679.662 1338.37 682.956 1337.11 686.209 1335.84C688.574 1334.91 690.94 1333.9 693.263 1332.84C696.515 1331.41 699.768 1329.97 702.851 1328.2C710.623 1323.85 718.1 1318.95 725.407 1313.84C725.407 1313.84 725.407 1313.84 725.407 1313.8C722.62 1314.77 719.832 1315.87 717.044 1316.93C711.468 1319.04 705.977 1321.32 700.655 1323.93C700.444 1324.06 700.232 1324.19 700.021 1324.27C697.318 1325.62 694.783 1327.27 692.249 1328.87C686.758 1332.17 681.393 1335.63 676.325 1339.47V1339.51ZM592.267 1324.91C592.267 1324.91 592.267 1324.91 592.225 1324.91C592.225 1324.95 592.309 1324.99 592.309 1325.03C592.309 1325.03 592.309 1324.95 592.309 1324.91H592.267ZM633.789 1330.1C642.828 1329.97 651.868 1329.25 660.823 1327.99C662.681 1327.73 664.54 1327.61 666.356 1327.31C671.382 1326.47 676.282 1325.2 681.182 1324.02C685.533 1323.01 689.841 1321.82 694.15 1320.64C695.797 1320.18 697.445 1319.8 699.05 1319.33C699.43 1319.21 699.81 1319.12 700.148 1319.04C705.597 1317.39 711.004 1315.53 716.326 1313.46C716.706 1313.3 717.086 1313.21 717.509 1313.04C717.551 1313.04 717.635 1313 717.678 1312.96C720.719 1311.73 723.633 1310.3 726.59 1308.95C730.096 1307.34 733.644 1305.82 737.108 1304.18C742.346 1301.68 747.753 1299.41 752.779 1296.53C756.919 1294.17 761.016 1291.72 765.113 1289.27C767.859 1287.67 770.604 1286.06 773.308 1284.46C774.575 1283.7 775.758 1282.85 776.982 1282.05C778.968 1280.79 780.911 1279.52 782.896 1278.21C789.697 1273.74 796.371 1269.09 803.002 1264.4C803.34 1264.19 803.678 1263.94 803.974 1263.73C803.889 1263.77 803.805 1263.86 803.72 1263.9C808.451 1260.56 813.098 1257.14 817.702 1253.68C817.744 1253.64 817.786 1253.55 817.829 1253.51C811.493 1256 805.157 1258.54 798.821 1261.07C792.358 1263.6 785.895 1266.14 779.475 1268.75C777.32 1269.64 775.166 1270.48 773.054 1271.33C763.804 1275 754.469 1278.59 745.26 1282.43C735.883 1285.56 726.632 1289.06 717.382 1292.57C715.735 1293.2 714.087 1293.75 712.482 1294.34C705.681 1296.7 698.923 1299.07 692.122 1301.43C683.759 1304.3 675.395 1307.09 666.947 1309.75C666.99 1309.75 667.074 1309.75 667.116 1309.75C666.314 1310 665.427 1310.17 664.624 1310.42C656.176 1313.04 647.686 1315.45 639.111 1317.64C636.323 1318.36 633.535 1319.16 630.748 1319.8C630.874 1319.8 630.959 1319.76 631.086 1319.71C630.917 1319.71 630.79 1319.8 630.663 1319.8C630.579 1319.8 630.494 1319.8 630.452 1319.84C630.452 1319.84 630.452 1319.84 630.494 1319.84C630.494 1319.84 630.452 1319.84 630.41 1319.84C630.494 1319.84 630.536 1319.84 630.579 1319.8C628.931 1320.18 627.242 1320.47 625.594 1320.85C625.51 1320.85 625.383 1320.85 625.299 1320.94C625.383 1320.94 625.468 1320.94 625.51 1320.94C623.44 1321.4 621.328 1321.74 619.258 1322.16C618.371 1322.33 617.484 1322.5 616.597 1322.71C615.626 1322.92 614.654 1323.13 613.683 1323.3C608.529 1324.23 603.418 1325.07 598.223 1325.62C598.223 1325.62 598.181 1325.62 598.138 1325.62C598.138 1325.62 598.096 1325.62 598.054 1325.62C597.378 1325.62 596.744 1325.71 596.069 1325.75C596.069 1325.75 596.069 1325.75 596.026 1325.75C595.013 1325.75 593.957 1325.75 592.943 1325.54C592.858 1325.54 592.774 1325.45 592.732 1325.45C592.732 1325.45 592.689 1325.45 592.647 1325.45C592.478 1325.37 592.351 1325.33 592.182 1325.24C592.394 1325.83 593.239 1326.17 593.703 1326.38C593.703 1326.38 593.703 1326.38 593.745 1326.38C593.745 1326.38 593.788 1326.38 593.83 1326.38C595.942 1327.35 598.35 1327.78 600.63 1328.16C601.095 1328.24 601.56 1328.33 602.024 1328.41C603.461 1328.66 604.939 1328.75 606.417 1328.92C608.783 1329.21 611.106 1329.59 613.471 1329.72C616.893 1329.93 620.357 1329.97 623.778 1330.06C625.763 1330.1 627.791 1330.27 629.776 1330.27C631.043 1330.27 632.31 1330.14 633.535 1330.14L633.789 1330.1ZM746.021 1162.61C726.252 1173.29 706.315 1183.6 686.673 1194.49C686.842 1194.4 687.011 1194.32 687.18 1194.23C677 1199.43 666.947 1204.75 656.894 1210.11C645.278 1215.89 633.747 1221.8 622.215 1227.72C611.022 1233.04 599.955 1238.57 588.93 1244.14C588.93 1244.14 588.93 1244.14 588.972 1244.14C587.072 1245.11 585.171 1246.08 583.27 1247.05C583.143 1247.09 583.059 1247.18 582.932 1247.22C576.3 1250.56 569.542 1253.68 562.868 1256.93C556.067 1260.22 549.267 1263.52 542.382 1266.64C536.426 1269.34 530.385 1271.92 524.345 1274.45C524.176 1274.54 524.049 1274.58 523.88 1274.62C517.882 1277.11 511.8 1279.43 505.717 1281.71C504.746 1282.05 503.816 1282.47 502.887 1282.81C502.887 1282.81 502.887 1282.81 502.845 1282.81H502.76C502.76 1282.81 502.718 1282.81 502.676 1282.85C502.676 1282.85 502.676 1282.85 502.634 1282.85C499.128 1284.08 495.537 1284.97 491.989 1286.02C492.158 1286.02 492.285 1286.11 492.454 1286.15C490.004 1286.87 487.512 1287.54 485.02 1288.09H484.935C484.808 1288.09 484.724 1288.09 484.597 1288.13C483.71 1288.3 482.823 1288.43 481.936 1288.55C481.936 1288.55 481.936 1288.55 481.978 1288.55C481.471 1288.64 480.922 1288.72 480.415 1288.77C480.204 1288.77 479.993 1288.85 479.782 1288.85H479.824C479.824 1288.85 479.824 1288.85 479.782 1288.85H479.866C478.895 1288.93 477.923 1288.98 476.952 1288.98C476.572 1288.93 476.149 1288.85 475.769 1288.81C475.769 1288.81 475.727 1288.81 475.685 1288.81C475.558 1288.77 475.431 1288.72 475.304 1288.64C475.304 1288.85 475.642 1289.02 475.769 1289.06C476.022 1289.23 476.614 1289.44 477.163 1289.61C477.543 1289.74 477.966 1289.82 478.135 1289.86C478.937 1290.03 479.74 1290.07 480.542 1290.24C481.471 1290.37 482.401 1290.58 483.33 1290.67C483.541 1290.67 483.71 1290.67 483.921 1290.67C483.921 1290.67 483.921 1290.67 483.964 1290.67H484.133C486.033 1290.79 487.892 1290.83 489.835 1290.83C494.65 1290.83 499.508 1290.5 504.323 1289.95C506.013 1289.74 507.66 1289.48 509.35 1289.23C511.42 1288.93 513.447 1288.64 515.475 1288.3C516.826 1288.09 518.22 1287.92 519.53 1287.67C527.471 1286.23 535.328 1284.46 543.142 1282.43C548.295 1281.08 553.448 1279.73 558.475 1278.04C569.88 1274.24 581.327 1270.02 592.056 1264.62C592.182 1264.53 592.352 1264.49 592.478 1264.4C592.858 1264.19 593.238 1264.02 593.619 1263.86C593.576 1263.86 593.534 1263.86 593.45 1263.9C610.515 1255.24 627.411 1246.38 643.8 1236.5C651.487 1231.9 659.302 1227.42 666.736 1222.44C675.607 1216.48 684.392 1210.45 693.178 1204.37C693.094 1204.45 692.967 1204.54 692.883 1204.58C693.052 1204.45 693.178 1204.37 693.347 1204.24C697.783 1201.16 702.007 1197.78 706.273 1194.53C710.074 1191.66 713.876 1188.75 717.635 1185.79C727.308 1178.19 736.897 1170.47 746.232 1162.49L746.021 1162.61ZM744.458 1086.62C727.942 1099.24 711.384 1111.78 694.868 1124.4C687.814 1129.77 680.591 1134.96 673.495 1140.28C669.989 1142.85 666.525 1145.43 663.061 1148.05C658.879 1151.17 654.487 1153.96 650.178 1156.83C645.574 1159.87 640.927 1162.87 636.281 1165.82C636.239 1165.82 636.197 1165.86 636.154 1165.91C635.901 1166.07 635.605 1166.24 635.352 1166.41C635.605 1166.24 635.859 1166.07 636.112 1165.95C619.089 1176.54 601.475 1186.3 583.397 1195.04C573.935 1199.6 564.515 1204.24 555.096 1208.89C549.562 1211.04 544.198 1213.44 538.749 1215.72C535.201 1217.2 531.695 1218.72 528.147 1220.2C526.753 1220.79 525.359 1221.47 523.923 1221.97C517.84 1224.13 511.758 1226.32 505.675 1228.52C503.605 1229.28 501.535 1229.95 499.466 1230.67C493.594 1232.74 487.723 1234.77 481.809 1236.67C478.641 1237.59 475.389 1238.19 472.221 1238.99C466.476 1240.51 460.774 1242.15 454.903 1243.25C450.932 1243.84 446.961 1244.14 442.991 1244.43C441.597 1244.56 440.203 1244.81 438.767 1244.86C437.246 1244.86 435.726 1244.86 434.247 1244.86C432.727 1244.86 431.206 1244.94 429.685 1245.03C427.869 1245.11 426.053 1245.15 424.279 1245.36C424.279 1245.36 424.279 1245.36 424.236 1245.36C422.758 1245.57 421.322 1246 419.928 1246.5C418.238 1247.09 416.633 1247.85 415.028 1248.7C414.099 1249.21 413.507 1250.09 412.705 1250.73C411.395 1251.78 410.001 1252.71 408.945 1254.02C408.945 1254.02 408.861 1254.1 408.819 1254.15C408.565 1254.44 408.608 1254.91 408.692 1255.41C408.734 1255.71 408.819 1256 408.861 1256.17C409.495 1258.37 410.508 1260.22 411.902 1262.04C413.338 1263.9 415.324 1265.16 417.309 1266.39C417.562 1266.56 417.731 1266.73 417.985 1266.9C418.238 1267.11 418.534 1267.32 418.83 1267.53C418.999 1267.7 419.167 1267.82 419.336 1267.95C422.082 1269.3 425.123 1270.15 428.165 1270.44C428.165 1270.44 428.165 1270.44 428.207 1270.44C430.065 1270.61 431.966 1270.61 433.825 1270.74C436.782 1270.91 439.696 1271.16 442.653 1271.16C444.385 1271.16 446.159 1271.08 447.891 1271.03C448.482 1271.03 449.073 1271.03 449.623 1270.99C455.325 1270.65 460.943 1269.94 466.519 1268.88C467.87 1268.63 469.222 1268.2 470.574 1267.91C485.273 1264.78 499.635 1259.84 513.658 1254.48C514.292 1254.27 514.883 1254.02 515.517 1253.77C520.121 1251.99 524.767 1250.22 529.372 1248.4C530.639 1247.9 531.906 1247.43 533.131 1246.93C533.976 1246.59 534.821 1246.12 535.665 1245.74C539.256 1244.18 542.804 1242.45 546.268 1240.8C551.21 1238.48 556.109 1236.16 561.009 1233.84C562.319 1233.2 563.586 1232.61 564.896 1232.02C568.021 1230.5 570.978 1228.69 574.019 1226.96C581.792 1222.52 589.606 1218.13 597.336 1213.66C607.727 1207.7 617.78 1201.07 627.622 1194.23C642.49 1183.85 656.725 1172.53 670.326 1160.5C675.649 1155.81 680.633 1150.79 685.702 1145.85C705.724 1126.56 725.027 1106.5 744.331 1086.49L744.458 1086.62ZM425.672 1227.88C419.674 1229.11 413.634 1229.74 407.551 1230C408.101 1230.04 408.65 1230.08 409.157 1230.12C414.521 1230.59 419.928 1230.97 425.292 1230.67C425.461 1229.74 425.461 1228.81 425.672 1227.93V1227.88ZM685.364 998.419C691.573 994.197 697.74 989.932 704.118 985.921C708.892 983.388 713.622 980.855 718.353 978.322C716.875 978.28 715.397 978.237 713.876 978.111C707.667 977.731 701.204 977.266 696.008 980.644C691.066 985.077 691.109 992.043 686.885 996.983C686.42 997.532 685.871 997.912 685.406 998.419H685.364ZM493.806 1039.54C492.707 1039.33 491.609 1039.16 490.511 1038.95C488.441 1038.65 486.625 1038.87 484.639 1039.54C483.668 1039.88 482.823 1040.39 482.063 1041.02C468.124 1038.87 453.804 1038.19 443.709 1045.49C442.357 1066.01 421.026 1062.38 406.495 1060.52C390.149 1059.09 373.76 1055.8 357.286 1056.39C355.85 1056.39 354.54 1056.68 353.231 1056.94C340.01 1079.9 314.835 1103.72 321.128 1130.57C351.246 1152.77 391.88 1138.67 423.856 1127.44C479.655 1107.01 536.89 1089.91 589.226 1061.16C620.483 1044.86 648.573 1023.67 677.465 1003.7C669.439 1006.65 660.696 1006.02 652.332 1005.81C635.69 1005.05 619.132 1002.22 602.447 1003.15C587.663 1004.08 573.301 1008.47 560.08 1015.01C551.379 1018.85 544.662 1025.31 539.594 1033.29C534.905 1041.53 526.626 1045.62 517.756 1046.21C516.573 1045.49 515.306 1044.82 513.996 1044.31C512.011 1043.51 509.983 1042.83 507.914 1042.24C505.506 1041.53 503.014 1041.15 500.522 1040.68C498.283 1040.26 496.044 1039.92 493.806 1039.54ZM516.826 889.871C515.221 891.011 514.123 892.657 513.658 894.473C512.898 895.317 512.349 896.331 511.927 897.428C511.42 898.737 511.377 900.046 511.631 901.312C510.786 900.932 509.941 900.426 509.096 900.046C508.294 900.637 507.534 901.313 506.773 901.904C510.997 919.256 510.406 936.735 504.281 950.71C513.109 938.888 523.838 928.122 536.257 919.129C555.096 908.743 559.658 883.116 581.369 876.698C581.285 867.663 583.608 857.699 587.705 848.453C579.722 855.377 570.682 861.204 561.305 866.354C551.759 872.012 542.255 877.712 532.962 883.707C532.117 883.707 531.315 883.791 530.47 883.918C528.78 884.213 527.344 885.016 526.204 886.156C524.936 886.536 523.712 886.958 522.487 887.422C520.586 888.14 518.474 888.731 516.826 889.913V889.871ZM394.288 935.3C396.823 932.935 399.315 930.571 401.849 928.249C402.44 928.84 402.99 929.431 403.581 930.064C407.214 934.371 411.226 938.297 415.662 941.844C415.704 941.844 415.746 941.928 415.831 941.97C418.618 944.588 421.491 947.121 424.321 949.697C426.644 951.766 429.052 953.75 431.502 955.734C434.163 957.887 436.951 959.872 439.823 961.729C443.413 964.009 447.173 965.994 451.481 966.88C452.875 967.176 454.311 967.302 455.747 967.302C459.676 967.302 463.646 966.247 466.856 964.094C469.18 962.532 471.334 960.252 472.897 957.761C474.206 957.17 475.473 956.452 476.698 955.607C478.684 954.214 480.247 952.694 481.725 950.752C484.217 947.501 486.076 943.617 486.963 939.564C488.737 931.458 487.976 922.718 485.273 914.865C484.977 914.021 484.513 913.219 484.217 912.374C479.402 925.927 471.503 938.171 459.633 946.784C459.929 928.544 463.942 908.617 474.037 892.995C474.037 892.953 473.953 892.869 473.911 892.784C473.108 891.602 472.221 890.462 471.334 889.322C469.644 887.084 467.87 884.973 466.012 882.905C465.082 881.849 464.111 880.836 463.139 879.823C460.563 877.205 457.902 874.672 455.071 872.392C454.396 872.054 453.72 871.674 453.086 871.336C448.693 893.544 436.021 913.725 421.279 930.571C416.211 909.968 425.546 877.754 442.357 865.721C439.063 864.032 435.852 862.217 432.558 860.57C432.389 860.528 432.177 860.486 432.008 860.401C428.545 882.567 403.116 901.144 384.826 910.685C389.304 892.573 397.203 867.41 412.747 855.124C404.764 853.055 396.949 850.522 389.768 846.722C389.219 847.313 388.501 847.693 387.994 848.326C386.474 848.2 384.911 848.2 383.348 848.453C380.349 848.96 377.899 849.889 375.238 851.282C371.056 853.477 368.395 857.868 367.297 862.555C357.455 871.421 364.889 894.431 370.169 906.506C376.421 917.483 384.995 926.645 394.204 935.215L394.288 935.3ZM370.211 1032.83C376.547 1032.53 382.926 1032.53 389.304 1032.66C397.498 1032.87 405.566 1033.04 413.043 1032.32C428.672 1007.41 455.24 1004.96 481.598 1007.2C482.823 992.423 487.596 978.28 494.946 965.107C486.963 973.087 475.558 978.026 460.436 978.026C453.171 978.026 445.061 976.886 436.021 974.438C434.839 973.973 433.022 973.34 430.826 972.58C409.621 991.832 388.037 1010.7 370.169 1032.83H370.211ZM328.52 1207.58C335.321 1208.55 342.164 1208.76 349.007 1209.05C349.091 1209.05 349.176 1209.05 349.303 1209.05C349.218 1209.05 349.176 1209.05 349.091 1209.05C349.725 1209.05 350.401 1209.05 351.077 1209.1C351.583 1209.1 352.09 1209.1 352.555 1209.1C353.315 1209.1 354.076 1209.1 354.794 1209.1C356.399 1209.1 358.004 1208.97 359.651 1208.93C365.1 1208.8 370.549 1208.59 375.956 1208.29C384.953 1207.83 393.95 1206.99 402.947 1205.89C420.181 1203.78 437.077 1198.63 453.593 1193.31C478.979 1185.16 502.718 1172.66 526.626 1161.01C549.393 1149.95 571.485 1137.7 593.999 1126.13C620.441 1113.51 647.728 1102.79 672.903 1087.71C696.262 1073.74 717.382 1056.43 738.122 1038.91C748.217 1030.38 758.228 1021.72 768.197 1013.07C777.912 1004.58 787.796 996.308 797.469 987.779C799.834 985.71 802.158 983.599 804.481 981.531C807.226 979.082 809.972 976.675 812.675 974.184C814.83 972.242 816.899 970.258 819.011 968.273C821.419 965.994 823.869 963.756 826.234 961.476C828.515 959.281 830.67 956.959 832.866 954.679C834.936 952.525 837.09 950.414 839.075 948.219C841.905 945.095 844.566 941.802 847.228 938.551C848.41 937.115 849.678 935.764 850.818 934.286C856.309 927.193 861.378 919.805 866.489 912.459C872.149 904.352 877.472 896.077 882.667 887.676C886.215 881.934 889.932 876.318 893.227 870.45C885.92 877.205 878.528 883.833 871.009 890.378C871.178 890.251 871.347 890.124 871.473 889.998C869.573 891.602 867.672 893.206 865.771 894.853C865.771 894.853 865.686 894.895 865.686 894.937C865.686 894.937 865.687 894.937 865.771 894.895C865.602 894.979 865.518 895.106 865.391 895.233C865.433 895.191 865.518 895.106 865.602 895.022C865.518 895.106 865.433 895.149 865.349 895.233C865.349 895.233 865.306 895.233 865.306 895.275C857.07 902.284 848.875 909.377 840.511 916.216C835.781 920.101 831.008 923.9 826.15 927.7C822.053 930.867 817.829 933.78 813.605 936.777C807.438 940.788 801.271 944.884 795.188 948.979C785.388 955.523 775.715 962.194 766.169 969.076C765.198 969.793 764.226 970.469 763.212 971.187C762.959 971.398 762.663 971.609 762.41 971.778C752.652 978.871 743.106 986.217 733.855 994.028C723.971 1002.35 714.129 1010.87 703.907 1018.81C698.585 1022.99 693.39 1027.34 687.941 1031.31C682.956 1034.9 678.014 1038.53 673.03 1042.16C668.637 1045.03 664.286 1047.9 659.893 1050.77C655.585 1053.56 650.938 1055.92 646.503 1058.41C637.379 1063.02 628.255 1067.57 618.836 1071.63C607.854 1076.36 596.787 1080.87 585.931 1085.9C564.642 1095.69 544.156 1107.09 523.331 1117.82C510.828 1124.02 498.241 1130.23 485.653 1136.31C478.81 1139.6 471.967 1142.94 465.04 1146.02C461.788 1147.46 458.577 1149.06 455.283 1150.28C452.115 1151.47 448.904 1152.65 445.736 1153.87C434.289 1157.5 422.8 1160.8 411.184 1163.84C407.763 1164.6 404.341 1165.4 400.92 1165.82C396.949 1166.29 392.936 1166.79 388.924 1167.3C380.56 1167.89 372.197 1168.44 363.833 1168.86C360.75 1169.03 357.624 1169.07 354.54 1169.07C349.894 1169.07 345.247 1168.9 340.601 1168.73C338.193 1168.52 335.828 1168.19 333.463 1167.89C333.463 1167.89 333.463 1167.93 333.505 1167.97C332.28 1167.81 331.055 1167.64 329.83 1167.47C329.703 1167.47 329.576 1167.47 329.492 1167.47C325.859 1166.75 322.269 1165.95 318.679 1164.93C315.722 1163.96 312.849 1162.91 309.977 1161.68C308.456 1160.92 306.936 1160.12 305.457 1159.23C304.697 1158.69 303.895 1158.14 303.134 1157.55C302.543 1157.04 301.994 1156.49 301.402 1155.94C300.811 1155.22 300.262 1154.51 299.713 1153.79C298.023 1151.04 296.418 1148.13 294.095 1145.89C292.574 1144.46 290.716 1142.98 288.899 1142.01C285.351 1140.19 281.845 1139.6 277.875 1139.9C275.34 1140.11 273.059 1141.25 271.116 1142.85C269.173 1144.46 267.526 1146.53 266.385 1148.64C264.991 1151.17 264.527 1153.87 264.147 1156.7C263.724 1159.66 264.485 1162.44 265.076 1165.27C265.498 1167.26 266.554 1169.37 267.357 1171.18L269.427 1175.24C271.116 1178.02 272.933 1180.6 275.087 1183.05C279.142 1187.65 283.957 1191.49 289.237 1194.61C301.191 1201.62 314.835 1205.63 328.478 1207.53L328.52 1207.58ZM933.355 797.156V797.029C933.355 797.029 933.355 797.114 933.355 797.156Z" fill="black"/>
</g>
</svg>
