<svg width="1032" height="1642" viewBox="0 0 1032 1642" fill="none" xmlns="http://www.w3.org/2000/svg">

<g id="Icons - Brand Approved">

<g id="Icon - Drinks">
<path d="M88.6393 53.8305C88.8504 53.6616 89.1038 53.5349 89.3149 53.3661C89.4415 53.2394 89.6104 53.155 89.7371 53.0283C89.3571 53.2816 88.9771 53.5772 88.6393 53.7883V53.8305Z" fill="black"/>
<path d="M1018.03 1139.18C1013.68 1070.07 1017.48 999.094 1017.73 929.642C1018.15 830.552 1002.03 732.348 1007.73 632.878C1010.43 595.978 1013.47 559.162 1017.02 522.346C1023.73 471.091 1029.72 419.54 1028.16 367.694C1027.23 334.002 1023.98 300.438 1019.8 266.957C1013.34 208.229 1006.59 145.575 972.346 95.6283C948.07 62.6123 910.789 41.2489 872.96 27.063C871.989 26.683 870.934 26.4719 869.963 26.1342C863.503 23.6432 856.959 21.4055 850.457 19.2101C836.524 15.1992 822.296 13.3415 807.941 12.5816C795.191 11.1883 782.441 10.2172 769.69 9.54171C768.719 9.49949 767.748 9.54171 766.777 9.45727C767.664 6.29077 768.55 3.12428 769.606 0C768.044 3.08206 766.735 6.29078 765.384 9.41506C724.768 7.55738 684.026 10.1328 643.706 14.4815C635.304 15.6636 626.86 16.5925 618.458 17.3102C593.844 17.3102 569.187 18.0279 544.615 18.8301C512.19 17.7324 479.765 14.777 447.341 11.8216C394.312 7.00852 341.242 2.15322 288.002 5.4886C281.965 5.99524 275.505 6.58631 268.834 7.26183C266.554 7.05073 264.317 6.92407 262.037 6.67075C236.916 2.32209 198.918 2.7443 175.148 17.8591C174.81 17.7324 174.557 17.5213 174.219 17.3946C171.391 18.4079 168.604 19.4212 165.818 20.4767L165.438 20.6456C162.271 21.8277 159.062 22.841 155.896 23.9387C148.718 26.3453 141.668 28.9629 134.406 31.1583C134.279 31.2006 134.153 31.2428 133.984 31.285C132.59 31.7072 131.239 32.1294 129.846 32.5516C125.075 34.1982 120.431 36.0981 115.829 38.2091C111.143 40.5734 106.667 43.2333 102.065 45.7665C99.6588 47.0753 97.2523 48.3419 94.888 49.6929C92.9881 50.7906 91.1726 52.0995 89.3993 53.3661C85.3462 56.3637 81.3353 59.4457 77.4088 62.5278C75.5089 64.0477 73.5246 65.4832 71.6247 66.9609C69.5559 68.5231 67.656 70.2119 65.7139 71.9429C61.9141 75.7849 58.2832 79.7536 54.6522 83.7645C52.7523 85.8755 50.8102 87.9443 48.9103 90.1397C47.306 92.0396 45.786 94.0239 44.3083 96.0927C43.3795 97.486 42.4929 98.9215 41.5641 100.315C41.4374 100.526 41.3107 100.737 41.1418 100.948C35.3999 109.688 29.8691 118.596 24.9294 127.842C24.2116 129.235 23.5361 130.544 22.8184 131.895C22.0162 134.64 21.214 137.384 20.4118 140.128C7.02807 184.121 -0.275932 234.11 0.019608 280.847C-0.233712 312.512 2.00393 344.093 4.62157 375.631C1.83505 419.709 2.29947 463.956 4.62157 508.033C4.95933 513.86 4.91712 519.728 5.086 525.555C5.04378 538.263 5.17043 550.929 5.67707 563.595C5.38153 603.493 3.73496 643.433 7.07034 683.331C8.12584 709.465 10.5746 735.515 12.3056 761.607C10.3212 806.74 8.50581 851.957 7.91473 897.133C7.61919 901.355 7.23922 905.577 7.07034 909.672C1.58174 973.72 3.86162 1037.85 6.60592 1101.94C9.13912 1131.2 10.0679 1160.5 9.81461 1189.8C9.30797 1201.88 8.97021 1213.95 8.88577 1226.03C8.42135 1235.95 7.95693 1245.83 7.23919 1255.75C6.64811 1275.76 7.36589 1296.66 9.05469 1317.56C8.88581 1335.67 8.46358 1353.74 8.50581 1371.85C6.69034 1382.24 6.09924 1392.8 6.56366 1403.35C7.99914 1420.24 7.9147 1437.17 7.95692 1454.1C7.95692 1455.62 7.83031 1457.14 7.87253 1458.66C7.91475 1461.7 8.0836 1464.61 8.16804 1467.57C8.37914 1480.23 8.75912 1492.86 10.279 1505.48C10.5746 1508.69 11.0812 1511.81 11.799 1514.94C12.9811 1517.22 14.1211 1519.58 15.3032 1521.86C25.0983 1559.73 46.1661 1589.37 87.5417 1607.53C84.7551 1607.27 82.0531 1606.77 79.4354 1606.01C83.4041 1608.58 87.415 1611.07 91.4259 1613.65C93.0303 1614.66 94.6346 1615.72 96.1968 1616.77C100.545 1616.48 104.894 1615.63 109.243 1614.83C110.34 1615.38 111.48 1615.89 112.578 1616.43C126.553 1622.43 141.161 1625.43 156.065 1627.07C162.187 1628.85 168.393 1630.24 174.684 1631.34C201.071 1637.54 228.81 1638.01 255.746 1639.61C270.988 1640.63 286.271 1641.05 301.513 1641.05C357.75 1641.05 413.945 1635.48 470.182 1634.34C505.266 1634.51 540.309 1636.15 575.436 1635.52C636.571 1635.18 697.283 1623.4 758.417 1627.96C794.811 1629.52 832.049 1630.49 867.894 1623.61V1623.7C868.654 1623.44 869.414 1623.15 870.174 1622.85C871.694 1622.3 873.171 1621.75 874.691 1621.21C878.998 1619.73 883.262 1618.17 887.484 1616.52C890.777 1615 894.07 1613.44 897.364 1611.83C899.559 1610.78 901.712 1609.72 903.95 1608.75C904.921 1608.33 905.85 1607.95 906.779 1607.53C906.863 1607.53 906.947 1607.44 907.032 1607.4C906.736 1607.53 906.399 1607.7 906.061 1607.82C907.454 1607.23 908.805 1606.6 910.156 1605.96C910.156 1605.92 910.156 1605.84 910.156 1605.8C912.943 1604.49 915.771 1603.26 918.389 1601.7C918.938 1601.36 919.487 1601.02 919.993 1600.73C920.078 1600.73 920.162 1600.64 920.204 1600.6C920.204 1600.6 920.247 1600.6 920.289 1600.56C921.556 1599.8 922.822 1599 924.089 1598.2C928.353 1594.73 932.575 1591.19 936.755 1587.6C966.52 1566.36 987.588 1538.92 1002.24 1508.06C1003.72 1506.62 1005.24 1505.19 1006.71 1503.75L1007.26 1502.1C1008.4 1498.73 1009.5 1495.35 1010.64 1491.97C1010.34 1491.55 1009.8 1491.29 1009.42 1490.96C1020.43 1462.42 1026.81 1431.6 1029.3 1400.18C1038.25 1313.04 1022.08 1226.11 1017.94 1139.18H1018.03ZM601.528 1584.94C558.337 1582.53 515.146 1584.52 472.039 1587.56C457.642 1588.4 443.287 1588.53 428.89 1588.44C405.585 1586.16 382.322 1583.55 358.932 1581.94C339.806 1580.42 320.638 1580.67 301.513 1580.89C288.847 1581.01 276.181 1581.18 263.557 1580.84C241.687 1579.45 220.07 1575.44 198.411 1572.31C197.356 1572.15 196.343 1571.98 195.287 1571.81C193.936 1571.98 192.627 1572.02 191.276 1572.02C186.97 1572.02 182.79 1571.09 178.737 1569.74C178.526 1569.66 178.357 1569.57 178.146 1569.53C169.322 1568.47 160.456 1567.63 151.632 1566.74C148.085 1565.05 144.581 1563.24 141.161 1561.25C140.95 1561 140.697 1560.75 140.443 1560.49C140.274 1560.49 140.148 1560.45 140.021 1560.41C139.346 1560.32 138.712 1560.11 138.037 1559.99C134.237 1559.23 130.522 1558.09 126.848 1556.99C126.848 1556.99 126.848 1556.99 126.806 1556.99C126.257 1556.86 125.709 1556.82 125.16 1556.69C123.218 1556.31 121.233 1555.93 119.249 1555.64C118.531 1555.55 117.856 1555.43 117.138 1555.3C116.505 1555.22 115.871 1555.09 115.238 1555C113.718 1554.71 112.114 1554.2 110.509 1553.7C109.918 1553.53 109.369 1553.36 108.821 1553.1C107.005 1552.39 105.232 1551.54 103.754 1550.45C103.754 1550.45 103.754 1550.45 103.712 1550.45C103.374 1550.19 103.121 1549.9 102.783 1549.64C101.39 1548.59 99.9966 1547.53 98.7722 1546.22C97.59 1545 96.619 1543.65 95.6057 1542.3C94.2969 1540.52 93.3258 1538.33 92.3547 1536.34C91.6792 1534.87 91.1726 1533.26 90.666 1531.66C90.4971 1531.15 90.2859 1530.73 90.1593 1530.22C90.0748 1530.14 89.9904 1530.05 89.9482 1530.01C89.6948 1529.76 89.4416 1529.5 89.1882 1529.25C86.4017 1526.46 83.6152 1523.72 81.2931 1520.51C79.2243 1517.6 77.7888 1514.39 76.1845 1511.26C75.3823 1509.62 74.2846 1508.14 73.5668 1506.45C73.2291 1505.65 72.9758 1504.76 72.638 1503.96C72.3847 1503.33 72.1736 1502.65 71.9203 1502.02C71.5403 1496.07 71.2447 1490.15 70.527 1484.2C70.147 1481.84 69.6826 1479.52 69.1759 1477.15C68.4582 1473.77 68.3737 1470.35 68.2471 1466.89C68.0782 1460.77 67.656 1454.61 67.276 1448.48C66.5161 1435.9 66.9805 1423.19 66.9383 1410.57C66.9383 1410.65 66.9383 1410.74 66.9383 1410.82C66.9383 1410.65 66.9383 1410.53 66.9383 1410.36V1409.47C66.896 1404.45 66.8538 1399.42 66.685 1394.4C66.5161 1388.7 66.0517 1383.04 65.5028 1377.39V1377.26C65.5028 1377.26 65.5028 1377.22 65.5028 1377.17C65.5028 1377.17 65.5028 1377.17 65.5028 1377.09C65.5028 1377.09 65.5028 1376.92 65.5028 1376.84C65.5028 1376.79 65.5028 1376.71 65.5028 1376.67V1376.54C65.5028 1376.54 65.5028 1376.33 65.5028 1376.2C64.7429 1369.03 63.9407 1361.89 63.1807 1354.67C62.3785 1346.82 61.6186 1338.88 61.4075 1330.99C61.2386 1323.55 61.5764 1316.17 61.6186 1308.74C61.703 1300.76 61.6608 1292.82 61.4919 1284.84C60.8586 1260.69 59.7187 1236.58 59.592 1212.43C59.5498 1198.46 59.3809 1184.57 59.0432 1170.59C58.7898 1159.4 58.1988 1148.26 57.6077 1137.15C57.3966 1132.76 57.1433 1128.37 56.89 1123.98C56.89 1124.45 56.9321 1124.91 56.9743 1125.37C56.8055 1122.5 56.6366 1119.63 56.5099 1116.72C56.5099 1116.72 56.51 1116.34 56.4677 1116.09C56.4677 1116.09 56.4677 1115.92 56.4677 1115.87C55.4545 1098.1 54.1879 1080.33 53.3857 1062.55C53.0901 1056.34 52.7946 1050.05 52.499 1043.76C52.499 1043.72 52.499 1043.64 52.499 1043.59C51.2324 1019.11 50.6414 994.577 49.7548 970.089C49.2903 958.141 48.8681 946.193 48.8259 934.202C48.8259 932.302 48.8259 930.402 48.8259 928.502C46.2505 888.52 44.224 848.495 43.1685 808.471C42.9574 744.339 43.2951 680.249 43.5484 616.117C44.1817 609.572 44.815 602.986 45.4483 596.442C49.2059 553.842 46.8838 511.2 43.5484 468.642C43.5484 453.992 43.6329 439.384 43.5484 424.733C43.4218 401.09 42.6618 377.447 41.9862 353.846C43.1684 328.809 44.6039 303.773 44.7728 278.736C45.575 252.856 45.0261 226.932 44.7728 201.052C44.6461 194.592 44.6039 188.132 44.6883 181.63C55.8344 151.401 75.8467 126.111 100.968 106.605C106.287 103.059 111.649 99.6392 117.433 96.7682C122.753 93.3484 128.199 90.2664 133.773 87.4376C134.153 86.6777 134.701 86.0021 135.377 85.411C136.559 84.3133 138.037 83.5111 139.557 83.0045C141.245 82.4556 142.977 82.2445 144.75 82.2445C190.305 62.4856 241.94 59.3191 291.253 57.0814C294.715 56.8281 298.177 56.6592 301.639 56.4059C303.708 56.4904 305.735 56.5326 307.803 56.617C308.521 56.617 309.239 56.6592 309.957 56.7015C309.957 56.7015 309.957 56.6592 309.914 56.617C321.229 56.9548 332.587 57.0814 343.859 56.5326C347.195 56.3637 350.488 56.1948 353.823 56.0682C358.552 55.266 363.28 54.5482 368.051 53.7883C383.208 53.6616 398.408 53.8727 413.607 54.8438C488.969 59.8257 564.374 60.3746 639.864 58.6013C657.849 58.0947 675.835 58.1791 693.863 58.2636C696.396 58.2636 698.887 58.2636 701.42 58.2636C701.674 58.5591 701.969 58.7702 702.223 59.0658C707.036 59.4458 711.891 59.7413 716.662 59.9946C718.435 60.1213 720.166 60.2057 721.939 60.3324C726.204 60.2902 730.468 60.2479 734.69 60.2902C746.469 60.2902 758.206 60.2902 769.943 60.9235C776.065 61.2612 782.187 61.8101 788.267 62.4434C793.84 63.0767 799.329 64.3433 804.775 65.6521C806.464 65.9898 808.153 66.3276 809.841 66.6232C814.275 67.1298 818.75 67.7209 823.141 68.4808C824.07 68.6075 824.956 68.7764 825.843 68.9875C832.978 69.6208 840.367 70.8451 847.713 72.154C857.846 75.1938 867.767 78.7403 877.267 83.5956C878.913 84.3133 880.433 85.2 882.038 85.9599C893.184 93.8973 903.781 102.637 913.534 112.01C929.493 124.38 942.117 140.044 951.532 157.945C958.878 172.131 960.651 188.132 963.058 203.669C967.871 226.848 972.473 250.111 977.877 273.206C978.088 283.381 978.088 293.556 978.004 303.731C978.004 324.25 977.835 344.726 977.497 365.203C976.357 377.32 975.344 389.479 974.879 401.512C973.528 428.153 973.655 454.752 974.415 481.308C973.782 517.026 974.162 552.744 978.13 588.251C978.679 592.853 979.566 597.371 980.284 601.931C981.212 621.31 981.888 640.689 982.141 660.11C979.228 693.084 977.328 726.142 978.468 759.2C973.613 817.042 966.435 874.756 966.14 932.851C966.562 973.213 970.024 1013.58 976.315 1053.47C981.212 1080.83 984.548 1108.23 987.25 1135.68C986.954 1141.88 986.49 1148.09 986.321 1154.25C983.492 1216.82 989.867 1278.38 985.434 1341.29C983.45 1382.41 981.719 1423.62 980.157 1464.78C980.03 1467.31 979.904 1469.89 979.819 1472.46C971.924 1490.53 961.453 1507.34 949.716 1523.26C935.446 1537.36 919.487 1550.07 902.852 1561.42C839.564 1590.22 744.696 1583.04 680.31 1586.75C666.8 1587.3 653.247 1587.47 639.695 1587.85C627.029 1586.8 614.363 1585.61 601.655 1584.9L601.528 1584.94ZM79.3088 1558.8V1558.72C80.2798 1560.32 81.3775 1561.84 82.3908 1563.41C81.3775 1562.27 80.3221 1560.7 79.3088 1558.8Z" fill="black"/>
<path d="M525.067 1556.82C525.194 1554.96 525.321 1553.1 525.447 1551.25C524.898 1551.21 524.307 1551.16 523.759 1551.08C524.181 1552.98 524.603 1554.92 525.067 1556.82Z" fill="black"/>
<path d="M61.4075 1284.08C61.4075 1284.33 61.4075 1284.59 61.4075 1284.84C61.4075 1285.22 61.4075 1285.56 61.4075 1285.94C61.4075 1285.3 61.4075 1284.71 61.4075 1284.12V1284.08Z" fill="black"/>
<path d="M83.6996 1240.89C84.5862 1240.42 85.4306 1239.96 86.275 1239.49V1238.86C85.3884 1239.54 84.544 1240.17 83.6574 1240.85V1240.89H83.6996Z" fill="black"/>
<path d="M959.807 1345.47C959.807 1345.47 959.849 1345.47 959.807 1345.42C958.118 1343.4 956.472 1341.33 954.825 1339.26C954.698 1339.64 954.614 1340.02 954.487 1340.4C956.218 1342.09 957.992 1343.78 959.765 1345.47H959.807Z" fill="black"/>
<path d="M811.108 1196.64C814.063 1194.32 816.512 1190.98 818.159 1187.44C815.119 1189.8 812.881 1193.09 811.108 1196.64Z" fill="black"/>
<path d="M808.617 1060.86C803.551 950.837 794.178 840.811 772.688 732.644C760.993 679.024 752.844 624.772 744.527 570.603C739.841 546.622 730.046 524.33 721.011 501.827C722.024 470.669 682.041 455.976 632.982 450.741C630.575 448.123 627.915 445.885 624.96 444.028C625.298 440.988 625.509 437.906 625.298 434.782C622.047 409.323 591.057 404.763 570.327 409.956C552.89 414.558 535.327 425.155 522.45 436.597C522.45 436.513 522.45 436.428 522.45 436.344C522.281 436.555 522.154 436.766 521.986 436.977C521.901 437.019 521.859 437.104 521.774 437.146C521.774 437.146 521.817 437.146 521.859 437.146C517.932 442.592 513.921 448.292 509.193 453.232C501.72 460.662 495.429 467.798 490.405 474.553C490.405 474.468 490.405 474.426 490.405 474.384C490.405 467.882 491.587 461.296 493.951 455.258C473.77 458.594 453.842 463.449 434.126 468.895C436.659 447.87 438.981 426.844 441.303 406.156C448.48 358.786 451.689 311.077 454.476 263.284C462.329 265.733 470.266 267.717 478.161 270.039C487.576 276.457 496.949 282.832 506.828 288.531C538.958 305.631 571.425 328.092 608.959 328.303C609.55 328.303 610.183 328.303 610.859 328.303C620.4 328.303 634.248 325.474 636.866 315.721C636.739 314.919 636.655 314.075 636.571 313.272C636.402 312.639 636.233 312.006 636.064 311.372C635.557 309.557 635.051 307.784 634.628 305.926C634.417 305.04 634.164 304.153 633.953 303.224C622.934 297.018 612.421 289.671 601.739 282.874C553.313 255.895 503.24 230.226 450 214.351C412.382 195.774 409.216 248.085 405.838 272.783C404.065 291.445 402.418 310.064 400.687 328.725C399.041 340.926 397.436 353.17 395.959 365.372C389.541 405.481 385.91 445.885 380.422 486.121C375.102 488.063 369.698 489.836 364.42 491.947C358.214 488.232 351.586 484.77 344.535 480.928C344.619 481.435 345.084 482.026 345.253 482.575C326.338 470.12 290.873 481.35 272.803 493.13C266.006 494.776 210.106 544.342 238.563 538.178C262.881 525.09 291.886 521.881 318.569 515.211C317.598 526.483 314.39 540.332 315.53 552.575C314.896 552.744 314.221 552.786 313.587 552.955C286.609 560.513 261.699 574.361 234.425 581.201C234.425 562.201 229.696 543.498 227.248 524.964C220.155 535.941 208.418 556.671 202.253 576.092C183.001 585.507 165.606 597.329 156.234 617.003C151.632 631.527 155.685 644.657 164.087 655.677C172.826 697.854 187.519 737.161 204.196 778.03C223.026 829.496 244.642 879.907 266.217 930.275C308.057 1031.22 351.121 1131.62 400.603 1229.07C417.533 1263.86 432.648 1299.57 450.929 1333.65C460.64 1350.74 472.293 1366.45 480.23 1384.6C479.09 1378.74 477.528 1372.95 475.755 1367.21C509.911 1389.76 550.231 1396.76 590.466 1396.76C594.266 1396.76 598.066 1396.72 601.866 1396.6C629.055 1396.47 656.583 1395.58 683.013 1388.83C721.179 1378.06 804.184 1341.12 810.264 1298.65C809.799 1299.78 808.87 1300.92 808.068 1302.06C807.773 1302.06 807.477 1302.06 807.182 1301.98C806.844 1301.47 807.055 1300.8 806.971 1300.21C807.984 1284.75 811.235 1269.47 810.475 1253.93C810.306 1240.93 809.841 1227.88 809.377 1214.88C811.91 1163.71 809.799 1112.07 808.617 1060.86ZM522.534 437.315C544.7 443.986 569.23 443.394 592.282 446.265C592.282 447.152 592.366 447.996 592.366 448.883C591.944 466.489 589.664 484.137 592.113 501.574C566.359 499.125 540.942 496.001 515.104 491.272C521.394 474.088 525.532 455.638 522.492 437.357L522.534 437.315ZM518.777 523.359C522.619 523.359 526.756 523.232 531.189 522.937C544.615 522.43 557.788 520.362 570.665 517.026C578.391 515 585.949 512.424 593.422 509.553C593.506 509.891 593.506 510.229 593.591 510.566C593.802 510.102 594.097 509.638 594.351 509.173C599.121 507.316 603.892 505.458 608.579 503.262C605.074 502.967 601.612 502.502 598.108 502.207C602.626 494.354 607.692 486.417 612.294 478.31C611.618 480.337 611.154 482.363 610.31 484.348C634.037 487.345 656.203 492.792 675.624 501.194C655.907 525.47 631.758 544.722 605.328 560.513C609.634 544.934 602.119 529.777 597.39 515.802C586.92 528.003 594.562 549.367 604.019 561.273C582.065 574.276 558.59 584.916 534.609 593.782C527.305 596.695 519.917 599.397 512.57 602.142C515.399 578.752 514.639 553.673 499.651 540.543C499.778 534.041 499.018 527.539 497.413 521.248C503.155 522.641 510.164 523.444 518.819 523.444L518.777 523.359ZM482.51 487.092C476.979 498.027 476.472 507.189 482.383 513.606C481.328 519.517 481.497 526.019 482.51 532.436C480.314 532.014 478.119 531.592 475.628 531.423C468.028 530.579 460.429 530.705 452.787 530.832C445.652 530.959 438.517 531.043 431.424 530.41C429.355 530.157 427.286 529.988 425.175 529.819C427.244 518.63 428.975 507.315 430.579 495.958C447.636 492.496 464.946 489.456 482.51 487.134V487.092ZM364.716 583.523C361.254 573.474 357.327 563.637 352.092 554.433C354.414 541.26 356.821 527.834 357.327 514.197C362.436 512.677 367.291 511.115 372.569 509.638C374.131 510.735 375.609 511.706 377.129 512.72C374.849 529.565 371.851 546.749 373.118 563.384C369.571 569.759 366.869 576.556 364.716 583.48V583.523ZM355.385 495.789C355.385 495.789 355.385 495.747 355.385 495.705C355.385 495.705 355.385 495.705 355.428 495.747L355.385 495.789ZM319.836 566.719C321.398 569.379 323.298 571.912 325.958 574.065C337.104 583.1 348.588 591.544 361.212 598.215C361.085 598.891 360.832 599.524 360.747 600.2C359.438 610.501 357.116 626.165 367.798 631.653C362.225 612.232 406.556 591.46 419.349 579.976C439.192 584.663 459.542 581.201 479.174 577.274C486.014 586.816 491.08 597.413 495.978 608.137C465.58 618.776 434.674 627.896 403.136 634.651C365.771 640.477 322.792 651.666 281.5 654.326C271.579 642.419 263.641 628.614 250.722 619.41C249.371 618.27 247.809 617.045 246.12 615.863C274.196 605.941 296.32 585.127 319.836 566.803V566.719ZM197.947 609.657C198.496 609.066 199.129 608.517 199.678 607.926C202.422 615.737 209.135 620.803 222.055 620.803C224.672 620.803 227.585 620.55 230.71 620.127C239.027 628.529 249.033 644.235 263.515 654.621C244.6 654.537 226.234 652.426 209.262 646.304C191.783 636.255 179.708 627.051 197.947 609.657ZM807.224 1302.78C807.224 1302.78 807.477 1302.74 807.604 1302.7C786.367 1330.82 671.318 1351.34 639.019 1355.56C606.003 1359.78 572.692 1359.95 539.549 1362.1C517.806 1363.28 494.922 1365.56 473.559 1360.79C468.493 1345.72 462.413 1330.77 458.487 1315.41C450.423 1282.94 442.485 1250.43 432.69 1218.47C409.385 1143.53 373.751 1072.81 341.579 1001.12C313.841 938.593 283.865 877.163 254.944 815.184C233.961 768.066 213.231 720.695 187.73 675.9C196.891 681.22 206.729 685.104 215.764 687.088C235.903 690.17 256.253 691.521 276.603 691.521C337.231 691.521 398.323 679.784 457.347 668.343C530.134 649.175 605.75 626.671 665.576 579.301C685.799 562.117 699.774 547.087 708.724 533.872C701.167 624.054 725.95 718.542 735.956 808.344C746.511 880.287 747.863 953.243 758.291 1025.1C765.848 1082.77 780.667 1139.01 793.671 1195.59C793.798 1205.93 793.84 1216.23 794.431 1226.58C795.107 1251.82 792.996 1278.8 805.535 1301.73C805.999 1302.53 806.633 1302.78 807.266 1302.78H807.224Z" fill="black"/>
<path d="M682.717 1388.91C683.055 1388.83 683.35 1388.74 683.688 1388.66C683.435 1388.7 683.224 1388.78 682.97 1388.83C682.886 1388.83 682.801 1388.87 682.717 1388.91Z" fill="black"/>
<path d="M685.292 1388.24C684.744 1388.36 684.195 1388.53 683.646 1388.66C683.646 1388.66 683.688 1388.66 683.73 1388.66C684.237 1388.53 684.786 1388.36 685.292 1388.24Z" fill="black"/>
<path d="M835.469 1437.97C821.959 1442.62 807.35 1442.83 793.291 1445.4C778.725 1448.91 762.808 1444.94 747.905 1444.01C714.509 1442.24 681.83 1450.3 648.772 1453.09C640.961 1453.3 633.109 1453.09 625.256 1452.92C610.605 1452.54 595.955 1452.16 581.431 1454.69C572.396 1456.21 560.068 1458.62 549.851 1458.87C528.91 1456.29 508.137 1457.86 487.365 1459.38C470.35 1460.64 453.336 1461.91 436.279 1460.94C365.771 1455.11 293.406 1461.07 225.474 1437.3C174.979 1413.1 188.025 1247.47 183.381 1195.75C180.51 1132 171.095 1068.71 160.54 1005.89C149.436 947.121 151.758 914.992 116.547 862.808C116.547 862.639 116.42 861.963 116.547 861.668C116.716 861.541 116.969 861.668 117.18 861.752C117.391 861.837 117.518 861.921 117.645 861.879C115.28 857.953 111.776 864.074 110.72 866.185C94.5925 897.428 109.285 931.415 110.34 964.094C119.333 1051.66 133.688 1138.76 135.124 1226.91C135.546 1277.41 133.73 1328.2 145.299 1377.77C147.958 1410.4 157.754 1443.04 181.017 1467.1C205.673 1489.9 242.362 1495.73 274.534 1500.63C323.889 1509.74 373.709 1506.71 423.486 1508.86C433.07 1509.96 441.852 1510.55 450.591 1510.55C461.906 1510.55 473.221 1509.58 486.31 1507.55C501.044 1505.48 515.864 1505.65 530.683 1505.9C550.611 1506.16 570.581 1506.45 590.171 1501.17C601.275 1499.57 612.421 1499.91 623.609 1500.29C631.462 1500.5 639.357 1500.75 647.168 1500.33C682.042 1498.73 716.155 1490.11 749.805 1481.42C782.652 1477.62 811.573 1460.31 835.342 1438.01L835.469 1437.97Z" fill="black"/>
<path d="M190.263 169.302C215.722 148.361 258.87 156.805 290.324 147.601C382.279 138.439 474.995 147.77 566.908 153.639C624.242 156.087 681.366 160.14 738.912 162.42C809.588 169.302 814.57 168.078 831.331 239.852C850.119 352.157 852.315 466.024 851.048 579.638C856.537 669.145 868.063 758.271 880.856 847.018C886.133 719.513 909.861 592.727 917.376 465.307C913.534 375.04 900.15 283.423 868.316 198.603C843.406 125.436 798.78 126.28 731.734 122.058C665.322 119.947 598.953 116.823 532.54 114.374C436.997 108.548 338.624 103.101 243.756 120.116C215.637 122.565 183.086 124.127 163.538 147.77C135.166 183.15 131.366 230.521 127.566 274.05C121.613 322.223 124.273 371.747 144.792 416.205C169.28 338.478 145.552 236.685 190.263 169.26V169.302Z" fill="black"/>
<path d="M899.052 950.71C893.69 1002.26 902.388 1054.61 901.037 1106.46C899.137 1210.57 902.261 1314.65 914.336 1418.09C922.611 1320.26 924.173 1221.17 917.291 1123.05C914.209 1065.25 899.221 1008.64 899.052 950.668V950.71Z" fill="black"/>
<path d="M680.31 936.144C675.244 916.258 672.5 895.993 668.658 875.854C665.238 855.419 662.283 834.858 659.707 814.297C657.174 789.556 656.372 763.971 646.703 740.708C645.226 737.33 643.706 733.024 639.948 731.673C637.795 730.828 635.684 731.377 634.08 732.644C631.166 731.208 627.409 730.87 623.651 732.221C615.672 735.008 607.903 738.301 599.67 740.243C591.733 742.692 555.044 751.896 570.918 764.393C571.341 764.604 571.805 764.773 572.27 764.942C572.143 765.406 572.058 765.871 571.974 766.335C568.639 783.054 572.945 800.153 574.929 816.788C579.447 844.822 587.046 872.265 593.928 899.835C595.786 906.717 597.179 913.725 598.573 920.734C590.044 905.07 582.065 889.111 574.296 872.983C563.657 851.746 558.632 828.356 549.893 806.318C545.502 794.707 542.335 782.041 533.089 773.47C532.456 770.726 530.345 768.32 527.39 767.433C524.308 766.293 521.057 766.842 518.017 767.813C500.622 771.739 483.861 778.368 466.635 783.097C462.413 784.279 456.08 785.799 455.109 790.865C455.067 791.203 454.982 791.498 454.982 791.794C454.265 794.369 454.645 797.24 456.756 799.942C454.265 807.035 457.051 815.521 458.402 822.783C461.738 838.489 465.58 854.111 469.464 869.69C474.995 898.822 481.581 927.7 486.436 956.958C477.274 941.295 468.619 925.336 461.822 908.532C455.869 894.473 449.663 880.371 444.554 865.805C438.601 848.833 433.155 831.27 424.077 815.606C421.671 805.642 414.536 800.829 398.703 805.22C383.124 808.977 365.518 811.088 352.768 821.517C348.715 825.359 349.137 831.861 354.288 834.098C354.625 839.46 355.512 844.78 357.074 849.889C363.576 867.452 371.049 884.678 378.564 901.861C389.964 925.8 402.081 949.148 411.411 974.015C421.502 997.321 429.439 1021.81 440.248 1044.9C444.85 1055.16 450.085 1065.04 454.518 1075.34C456.46 1080.37 459.415 1085.05 463.257 1088.85C462.793 1092.95 465.748 1097.21 470.773 1097C485.043 1095.78 496.78 1089.19 510.544 1085.1C520.339 1081.97 530.176 1078.97 539.971 1075.72C544.404 1074.37 549.513 1074.71 553.524 1072.13C558.21 1068.46 558.928 1065.13 557.45 1062.68C557.746 1062.76 558.041 1062.85 558.379 1062.89C561.166 1060.82 561.672 1057.1 561.039 1053.81C559.857 1042.03 557.746 1030.34 556.184 1018.56C554.157 1003.48 552.848 988.286 550.02 973.34C548.246 965.614 546.473 957.803 544.7 950.034C548.331 958.225 552.13 966.374 556.099 974.438C566.105 993.606 574.634 1013.58 585.822 1032.11C590.635 1038.87 592.957 1048.03 600.472 1052.42C600.515 1052.42 600.599 1052.46 600.684 1052.5C601.612 1054.74 603.597 1056.47 606.257 1056.64C626.691 1054.11 643.917 1040.98 663.549 1035.53C668.32 1034.09 673.091 1032.53 677.904 1031.18C683.941 1029.24 692.259 1028.44 695.383 1022.15C696.27 1008.55 692.808 995.083 688.501 981.995C687.277 966.542 683.899 951.174 680.353 936.102L680.31 936.144Z" fill="black"/>
</g>
</g>
</svg>
