<svg width="1036" height="1642" viewBox="0 0 1036 1642" fill="none" xmlns="http://www.w3.org/2000/svg">

<g id="Icons - Brand Approved">

<path id="Icon - Intuitive" d="M90.1542 48.9614C90.1542 48.9614 89.9853 49.0881 89.9008 49.1303C89.6051 49.3414 89.3094 49.5103 89.056 49.7214C89.4361 49.4681 89.7741 49.2148 90.1542 48.9614ZM1032.82 1399.79C1030.92 1423.52 1026.74 1446.87 1020.19 1469.24C1020.32 1460.76 1020.03 1452.27 1019.69 1443.83C1021.97 1434.58 1024.17 1425.33 1026.36 1416.09C1036.58 1371.59 1037.51 1325.15 1025.09 1280.98C1022.56 1270.85 1019.77 1260.8 1017.45 1250.63C1018.25 1306.23 1018.93 1361.83 1018.42 1417.48C1018.38 1423.01 1018.42 1428.58 1018.34 1434.12C1018.21 1439.14 1018.21 1444.25 1018.21 1449.4C1018.21 1458.27 1018.29 1467.22 1018.21 1476.17C1018.17 1482.88 1017.96 1489.55 1017.58 1496.22C1017.32 1497.61 1017.2 1499.05 1016.86 1500.44C1016.65 1501.41 1016.31 1502.34 1016.05 1503.31C1015.84 1504.28 1015.51 1505.21 1015.25 1506.14C1014.28 1533.75 1008.49 1561.54 988.388 1581.76C981.545 1588.68 971.914 1591.26 962.917 1594.04C952.484 1597.38 941.628 1598.98 930.646 1598.56C929.378 1598.48 928.069 1598.56 926.802 1598.56C925.704 1599.24 924.563 1599.96 923.423 1600.63C923.423 1600.63 923.38 1600.63 923.338 1600.67C923.254 1600.67 923.211 1600.76 923.127 1600.8C922.578 1601.1 922.071 1601.43 921.522 1601.77C918.861 1603.33 916.031 1604.6 913.243 1605.91C913.243 1605.99 913.243 1606.04 913.243 1606.12C911.933 1606.71 910.624 1607.3 909.315 1607.89C909.568 1607.77 909.821 1607.68 910.075 1607.56C909.821 1607.68 909.526 1607.77 909.272 1607.89C909.188 1607.89 909.103 1607.98 909.061 1607.98C909.23 1607.94 909.357 1607.85 909.484 1607.81C908.639 1608.19 907.752 1608.57 906.907 1608.91C901.289 1611.35 895.882 1614.18 890.349 1616.72C886.125 1618.41 881.816 1619.93 877.55 1621.45C875.396 1622.16 873.242 1622.97 871.13 1623.77C871.003 1623.81 870.834 1623.85 870.707 1623.94C870.707 1623.94 870.707 1623.89 870.665 1623.85C834.677 1630.73 797.336 1629.76 760.841 1628.2C699.466 1623.64 638.556 1635.42 577.224 1635.8C542.038 1636.39 506.852 1634.79 471.666 1634.58C415.275 1635.72 358.97 1641.29 302.579 1641.33H302.283C287.035 1641.33 271.786 1640.91 256.538 1639.9C223.886 1637.91 189.883 1638.25 158.752 1627.15C153.81 1624.82 148.699 1621.95 145.32 1618.74C135.605 1616.34 125.805 1614.35 116.005 1612.2C104.305 1607.94 92.4352 1603.71 81.4106 1597.89C38.4947 1567.02 19.191 1510.74 19.4445 1459.36C19.7824 1430.7 18.5152 1401.9 16.6989 1373.32C9.22237 1334.48 6.05437 1293.27 7.19485 1254.98C8.16637 1241.85 8.88449 1228.76 9.34913 1215.63C9.13793 1205.62 8.75776 1195.61 8.67328 1185.57C8.25088 1163.7 7.99741 1141.78 7.78621 1119.91C7.36381 1113.5 7.06818 1107.12 6.51906 1100.7C3.77346 1036.45 1.49248 972.102 7.02592 907.927C7.06816 906.745 7.19487 905.479 7.27935 904.254C7.27935 887.577 7.27935 870.9 7.27935 854.181C6.22335 805.797 5.33633 756.78 8.75777 708.353C8.12417 699.234 7.44834 690.072 7.11042 680.953C3.77346 640.97 5.42081 600.946 5.71649 560.879C5.25185 548.129 5.08289 535.378 5.12513 522.585C4.95617 516.759 4.99841 510.975 4.66049 505.149C2.33729 460.944 1.83041 416.571 4.66049 372.367C1.99937 340.744 -0.197137 309.079 0.014063 277.329C-0.281617 230.465 7.02593 180.35 20.5005 136.23C21.2608 133.486 22.0633 130.742 22.9081 127.997C23.6262 126.646 24.3021 125.253 25.0201 123.902C30.8493 112.883 37.5232 102.37 44.4083 92.0258C45.8867 89.957 47.4074 87.9727 49.0125 86.0728C50.871 83.8774 52.8141 81.8086 54.7571 79.6554C58.3898 75.6445 62.0224 71.6336 65.824 67.8338C67.7248 66.1028 69.6678 64.3717 71.7376 62.8096C73.6384 61.3319 75.6237 59.8964 77.5245 58.3765C81.5373 55.21 85.6345 52.0857 89.7741 49.0459C91.5481 47.8215 93.28 46.5549 95.0963 45.4572C97.4617 44.1061 99.9117 42.8395 102.319 41.5307C106.924 38.9975 111.443 36.3377 116.132 33.9311C120.736 31.8623 125.382 29.9202 130.198 28.2736C131.169 27.9781 132.099 27.6826 133.07 27.387C133.324 27.3026 133.535 27.2181 133.788 27.1759C134.126 27.0915 134.422 26.9648 134.76 26.8804C142.025 24.7271 149.121 22.1095 156.302 19.6608C157.02 19.4497 157.696 19.1963 158.414 18.943C160.948 18.0986 163.441 17.2964 165.933 16.3676C166.06 16.3676 166.186 16.2832 166.313 16.1987H166.397C169.185 15.1432 171.931 14.0877 174.761 13.1167C176.113 13.6233 177.211 14.4255 178.478 15.0166C179.703 14.8899 181.055 14.8055 182.195 14.6366C203.231 11.9767 223.802 5.89703 245.006 4.79931C248.428 4.54599 251.807 4.58822 255.228 4.46156C267.182 3.0683 278.587 1.92834 288.893 1.08394C342.285 -2.20922 395.549 2.60387 448.73 7.45917C481.339 10.4568 513.906 13.4122 546.515 14.5099C571.099 13.7077 595.725 12.99 620.351 12.99C628.799 12.2722 637.289 11.3434 645.737 10.119C687.639 5.6015 729.964 2.89942 772.161 5.13708C807.22 6.95254 842.744 9.90794 875.734 22.7006C913.665 36.9287 951.132 58.3765 975.462 91.477C1009.85 141.592 1016.56 204.373 1023.07 263.312C1027.25 296.877 1030.5 330.527 1031.47 364.345C1033.04 416.318 1027 467.995 1020.28 519.419C1016.73 556.277 1013.69 593.262 1010.94 630.246C1005.24 730.012 1021.42 828.511 1021 927.855C1020.74 997.518 1016.94 1068.66 1021.29 1137.98C1025.43 1225.17 1041.69 1312.31 1032.7 1399.66L1032.82 1399.79ZM825.257 64.7517C789.86 61.4163 754.42 58.2498 718.939 56.0122C657.775 52.6346 596.992 41.6574 535.575 43.4728C463.514 46.2171 391.706 54.3656 319.475 53.9012C270.561 54.6611 220.591 52.2124 173.114 66.145C116.596 82.4419 65.3593 122.002 44.7462 177.986C44.6617 184.488 44.704 190.99 44.8307 197.449C45.1686 223.414 45.6755 249.38 44.8729 275.345C44.4928 328.5 38.4525 381.655 41.1981 434.81C45.5488 487.712 50.1952 540.824 45.5488 593.853C42.9721 620.831 40.2688 647.81 38.1568 674.831C37.7766 693.492 36.5517 712.069 35.0733 730.646C34.3974 753.529 34.4819 776.412 36.0026 799.338C37.9034 826.401 39.4663 853.464 40.4378 880.611C44.704 939.677 50.1107 998.743 49.2659 1058.02C49.8573 1097.58 48.8013 1139.17 50.1952 1178.26C51.7158 1217.99 58.0096 1257.3 63.0784 1296.65C69.5834 1354.74 68.2739 1408.53 75.8349 1465.15C75.8349 1465.23 75.8349 1465.32 75.8771 1465.4C86.6906 1487.19 100.165 1507.54 115.034 1526.75C124.326 1537.6 132.479 1549.88 141.687 1561.11C145.235 1563.14 148.783 1565.21 152.5 1566.94C168.129 1568.46 183.716 1569.98 199.218 1572.47C220.972 1575.64 242.598 1579.69 264.563 1581.04C277.277 1581.38 289.949 1581.25 302.664 1581.04C321.883 1580.83 341.06 1580.58 360.279 1582.1C383.68 1583.7 406.954 1586.32 430.313 1588.6C444.801 1588.68 459.29 1588.6 473.778 1587.71C517.032 1584.63 560.328 1582.69 603.708 1585.09C616.507 1585.81 629.263 1586.99 642.02 1588.05C655.537 1587.71 669.096 1587.5 682.612 1586.99C747.24 1583.28 842.406 1590.41 905.893 1561.54C922.536 1550.18 938.545 1537.43 952.864 1523.33C964.649 1507.37 975.167 1490.48 983.066 1472.37C983.192 1469.83 983.277 1467.26 983.404 1464.72C984.966 1423.48 986.698 1382.14 988.684 1340.94C993.119 1277.82 986.74 1216.09 989.571 1153.39C989.74 1147.19 990.204 1140.98 990.5 1134.78C987.754 1107.25 984.417 1079.8 979.517 1052.32C978.588 1046.28 977.701 1040.24 976.856 1034.21C977.11 1023.36 977.405 1012.51 977.701 1001.7C977.997 990.847 978.377 979.997 978.546 969.146C978.884 947.403 979.94 925.617 980.447 903.874C980.7 893.235 981.038 882.553 981.038 871.872C981.038 860.683 981.038 849.495 981.038 838.307C981.038 835.14 981.08 831.974 981.123 828.807V828.934C981.165 825.556 981.249 822.263 981.292 818.885C981.334 816.521 981.46 814.199 981.503 811.877V811.961C981.672 807.106 981.756 802.251 981.925 797.395C982.305 785.954 982.854 774.47 982.77 763.028C982.77 762.859 982.77 762.691 982.77 762.564C982.728 751.671 982.685 740.778 982.052 729.928C981.841 726.339 981.587 722.793 981.334 719.204C981.967 698.896 983.53 678.588 985.347 658.323C984.797 621.929 982.812 585.62 980.785 549.268C980.785 548.34 980.827 547.495 980.869 546.566C981.08 540.951 981.292 535.336 981.292 529.678V517.139C981.292 505.74 981.503 494.34 981.503 482.941C981.503 471.541 981.503 460.691 981.503 449.545C981.46 427.633 981.376 405.678 981.292 383.766C981.249 374.562 981.207 365.358 981.165 356.154C981.08 342.813 981.038 329.471 980.954 316.13C980.869 304.646 980.785 293.162 980.7 281.678C980.7 276.485 980.7 271.25 980.404 266.099C980.193 262.384 980.024 258.71 979.686 254.995C980.109 247.015 981.207 239.163 982.812 231.394C982.812 218.559 982.897 205.724 981.545 192.932C981.038 190.905 980.7 188.879 980.151 186.852C967.395 143.45 937.362 104.396 897.487 82.6108C875.565 71.718 849.165 66.6938 825.299 64.8784L825.257 64.7517ZM31.2717 1181.09C32.201 1209.29 33.975 1237.41 36.2982 1265.49C36.5939 1267.26 36.8473 1269.08 37.1008 1270.85C37.5232 1257.42 37.6499 1243.87 36.6361 1229.81C35.7069 1213.39 33.6794 1197.18 31.2717 1181.09ZM65.1481 1560.9C56.9536 1537.89 51.3779 1514.12 46.5203 1490.18C44.5772 1484.95 42.7609 1479.63 41.2403 1474.18C45.1264 1504.07 52.2227 1533.59 65.1481 1560.9ZM90.7456 1575.21C84.2406 1566.26 78.2426 1556.55 72.7514 1546.63C73.216 1548.07 73.5961 1549.54 74.0608 1550.98C79.8477 1568.63 81.9596 1571.92 90.7456 1575.26V1575.21ZM108.317 1595.56C105.656 1592.99 102.995 1590.41 100.461 1587.54C95.223 1586.23 89.943 1584.93 84.7053 1583.83C92.1818 1588.68 100.038 1592.74 108.317 1595.61V1595.56ZM981.798 1570.27C979.475 1571.08 977.194 1571.84 974.787 1572.47C974.322 1574.2 973.646 1575.59 973.055 1577.11C974.913 1576.06 976.898 1575.3 978.715 1574.07C979.855 1572.89 980.742 1571.54 981.798 1570.27ZM971.492 900.708C971.703 889.604 971.872 878.5 971.872 867.438C971.492 873.011 971.112 878.584 970.774 884.158C970.985 887.704 971.154 891.293 971.281 894.839C971.323 896.781 971.407 898.723 971.492 900.666V900.708ZM414.219 266.141C411.263 266.817 408.264 267.45 405.307 268.21C404.8 268.337 404.293 268.548 403.744 268.674C395.887 270.743 388.115 273.107 380.512 275.894C330.627 293.331 285.599 321.534 254.045 358.181C244.922 369.876 237.656 382.457 231.531 395.545C220.465 411.716 211.045 428.899 204.625 447.687C173.663 535.589 190.01 633.666 233.981 714.433C234.319 715.531 234.573 716.755 234.911 717.811C234.911 717.262 234.911 716.713 234.868 716.122C238.079 721.906 241.373 727.648 244.837 733.221C241.204 720.597 237.614 707.931 234.277 695.139C233.052 648.274 234.531 600.946 232.503 553.997C230.138 529.172 229.42 503.882 231.743 479.014C235.46 465.546 239.895 452.331 245.555 439.581C283.022 367.976 352.38 314.399 431.707 297.848C480.029 290.038 530.76 295.948 577.646 309.206C634.036 331.582 674.925 379.291 699.677 433.459C721.262 472.217 725.951 506.922 718.179 550.282C708.379 608.925 695.284 670.06 656.677 717.177C632.727 740.483 607.341 763.155 578.913 780.972C535.871 799.929 487.379 802.631 441.295 794.271C387.228 777.003 345.368 733.559 347.227 666.302C342.031 621.296 360.87 580.849 382.159 542.471C379.709 549.902 378.358 557.797 376.753 565.27C370.628 589.42 375.232 613.738 383.595 636.748C394.409 689.017 441.084 712.955 491.35 711.984C496.841 712.786 502.332 713.166 507.781 713.166C578.998 713.166 643.625 647.261 632.262 574.221C631.46 568.816 630.488 563.159 629.39 557.459C628.461 548.255 626.18 539.136 622.463 530.143C613.761 503.038 598.893 478.297 571.014 469.43C530.084 458.707 444.421 461.62 427.863 508.779C431.58 504.811 435.508 500.167 439.817 496.282C445.266 492.525 451.729 490.034 458.529 488.092C455.277 489.992 452.067 492.06 448.941 494.214C455.192 492.187 462.246 489.992 468.878 488.303C473.355 486.53 478.044 485.347 482.733 484.207C506.767 483.025 532.914 487.669 552.133 492.609C588.84 503.629 591.247 549.606 597.034 581.525C598.851 597.104 595.556 611.965 588.966 625.307C569.409 651.863 537.729 670.778 504.613 671.918C422.499 677.153 371.726 611.965 399.52 534.069C401.885 528.918 407.292 526.47 410.545 521.741C407.377 524.654 402.73 526.343 399.182 529.045C393.818 537.236 389.805 545.511 386.595 553.786C387.017 546.313 388.242 538.925 390.143 531.663C390.945 531.832 391.706 532.169 392.424 532.887C391.79 532.043 390.988 531.705 390.227 531.283C390.438 530.523 390.523 529.721 390.734 528.961C390.987 529.805 390.945 531.241 391.283 531.832C391.41 530.903 392.212 527.061 390.861 526.892C392.339 524.316 393.775 521.741 395.254 519.166C391.832 522.628 388.538 526.639 385.285 530.607C376.668 532.972 365.263 547.453 360.828 551.717C324.797 591.784 300.932 648.485 311.534 702.696C326.107 770.079 375.021 828.807 447.716 830.96C462.415 833.029 477.579 834.211 492.786 834.211C541.066 834.211 590.022 822.39 627.025 790.809C652.495 769.615 680.5 749.687 698.199 721.019C701.789 715.615 705 710 708.168 704.385C734.188 670.44 754.547 632.189 767.346 593.346C794.633 507.893 753.618 424.213 696.974 356.872C688.991 345.768 679.994 335.466 669.476 326.516C656.212 312.921 642.653 300.128 629.263 288.518C568.438 253.053 488.308 248.071 414.219 266.099V266.141ZM234.911 717.895C234.911 717.895 234.911 717.811 234.911 717.726V717.895ZM425.751 1289.43C475.468 1328.14 541.658 1349.17 602.99 1353.98C611.861 1354.99 620.858 1355.59 629.855 1355.59C660.774 1355.59 691.567 1348.66 716.236 1328.82C758.771 1302.98 783.566 1272.96 804.517 1228.08C845.955 1134.44 853.684 1004.65 791.845 918.862C781.919 901.552 767.599 886.648 747.324 873.982C746.902 873.687 746.522 873.307 746.099 872.969C746.226 873.096 746.31 873.265 746.437 873.434C735.201 866.51 722.36 860.177 707.196 854.604C707.196 854.181 707.196 853.717 707.196 853.252C707.365 852.83 707.999 852.324 707.956 851.986C702.296 857.095 713.659 861.57 716.911 864.694C757.208 887.028 778.413 922.831 792.605 962.729C801.94 1007.57 804.686 1054.68 799.871 1100.92C798.308 1097.5 796.66 1094.12 795.013 1090.87C796.238 1096.86 797.801 1102.86 798.941 1108.94C794.042 1148.67 783.777 1187.51 766.797 1223.27C766.712 1223.44 766.628 1223.61 766.543 1223.78C760.841 1230.74 754.758 1237.45 747.958 1243.58C708.463 1290.27 647.089 1315.01 585.967 1316.62C505.205 1305.43 420.006 1264.86 390.903 1184.76C374.725 1133.04 376.288 1074.65 400.914 1025.85C415.022 1003.09 434.664 984.219 449.701 961.885C508.964 914.26 605.102 881.202 661.746 950.274C686.879 981.77 691.356 1032.73 673.996 1067.35C663.773 1036.87 636.317 1014.79 604.046 1009.72C571.859 1002.92 535.195 1001.99 507.866 1023.02C457.473 1062.66 461.275 1139.34 491.603 1190.34C511.245 1220.27 545.501 1237.88 580.645 1241.72C586.263 1242.86 591.881 1243.41 597.457 1243.41C648.567 1243.41 695.918 1197.64 700.818 1147.1C696.763 1158.84 690.511 1170.2 681.683 1179.4C664.914 1198.15 641.091 1214.28 615.366 1216.72C645.019 1205.54 665.928 1175.77 681.81 1148.54C659.169 1171.55 635.937 1202.12 600.751 1204.02C559.525 1205.96 521.002 1168.42 516.989 1128.23C515.849 1091.04 533.379 1044.21 574.013 1036.49C607.172 1031.25 649.623 1038.01 661.535 1074.19C662.464 1076.55 663.013 1079.51 663.942 1081.58C663.731 1070.52 660.352 1059.62 654.523 1050.21C663.52 1057.72 671.334 1067.31 677.29 1079.93C676.614 1075.84 675.516 1071.87 674.291 1068.03C678.684 1064.94 682.57 1059.79 685.907 1053.5C683.457 1066.38 680.289 1079.05 676.826 1090.99C697.312 1048.98 717.122 997.94 700.311 951.372C690.173 931.486 676.445 916.962 660.479 906.745C643.54 891.419 622.632 880.484 600.54 876.811C545.417 868.325 492.279 892.644 445.815 919.876C430.778 927.729 420.851 940.986 411.178 954.369C336.244 1020.95 321.334 1135.49 363.363 1224.92C377.682 1250.84 399.9 1272.24 425.878 1289.3L425.751 1289.43ZM607.468 1115.23C605.102 1111.77 603.032 1107.63 601.3 1103.28C601.807 1099.82 604.426 1096.4 610.467 1093.44C605.102 1093.91 601.807 1095.6 599.442 1097.75C596.95 1089.14 596.612 1080.73 600.836 1076.6C594.542 1076.22 593.402 1085.17 592.346 1090.06C588.882 1106.95 596.654 1127.18 614.395 1132.07C618.999 1133.42 623.899 1134.02 628.672 1134.02C632.22 1134.02 635.726 1133.68 639.105 1133.04C635.768 1132.2 632.474 1131.1 629.221 1129.96C633.487 1129.71 637.711 1128.82 641.471 1127.05C632.685 1128.99 616.422 1123.16 607.468 1115.23ZM450.377 1367.49C392.424 1340.09 326.149 1313.58 286.908 1262.28C273.771 1239.23 263.592 1214.91 256.918 1189.62C255.313 1179.74 253.961 1169.4 252.947 1158.8C252.44 1145.67 251.68 1132.54 250.666 1119.45C249.779 1064.1 258.903 1006.89 287.288 968.766C288.218 971.257 287.584 974.55 287.922 976.957C288.556 973.875 291.766 964.882 285.599 966.74C268.787 982.192 256.749 1000.6 248.259 1020.65C245.766 1025.59 243.528 1030.62 241.585 1035.77C239.43 1034.59 238.459 1037.88 238.966 1039.7C238.712 1041.38 238.417 1043.2 238.163 1044.93C219.958 1094.41 215.185 1150.1 226.04 1202.03C229.715 1250.08 244.161 1294.2 281.586 1321.13C275.715 1313.28 271.322 1304.71 267.731 1295.8C271.997 1301.46 276.433 1306.99 281.332 1312.27C319.602 1349.8 372.486 1365.8 423.977 1375.34C431.453 1376.61 439.014 1377.08 446.575 1377.08C456.164 1377.08 465.752 1376.32 475.214 1375.22C452.447 1372.73 430.144 1366.06 409.108 1356.6C422.71 1360.53 436.522 1364.16 450.461 1367.49H450.377ZM503.853 378.404C601.807 392.168 620.604 426.83 645.652 517.139C645.103 471.161 640.415 416.909 604.806 383.428C578.237 361.516 543.77 349.399 510.104 343.573C473.398 340.744 435.804 351.932 402.815 367.469C392.593 372.071 382.877 377.855 373.796 384.526C337.807 407.831 309.507 442.747 307.099 485.178C307.521 486.825 308.577 487.501 309.76 487.501C310.943 487.501 312.21 486.783 313.097 485.727C312.125 485.854 310.731 487.247 309.464 486.572C309.76 481.336 311.238 476.143 313.181 470.993C312.379 475.595 312.463 480.239 315.42 483.785C316.18 484.461 317.912 484.756 317.87 483.152C317.617 483.236 317.405 483.87 316.941 483.912C310.605 471.753 328.219 455.962 335.019 446.209C376.668 398.459 442.056 378.531 503.895 378.362L503.853 378.404ZM518.552 556.488C501.065 540.233 478.002 544.835 456.966 548.508C456.882 548.466 456.84 548.424 456.797 548.382C456.797 548.382 456.797 548.171 456.713 548.255C456.164 549.142 459.923 549.902 460.219 549.944C470.061 552.182 480.367 552.435 489.745 555.813C483.62 555.137 477.199 556.024 470.779 559.486C497.77 555.433 517.327 579.202 523.41 603.226C523.663 601.663 523.41 600.101 523.494 598.497C524.593 602.212 525.691 605.928 526.62 609.559C529.408 620.409 525.142 631.133 521.636 641.35C545.797 619.86 541.193 577.682 518.595 556.446L518.552 556.488ZM340.299 937.861C366.953 918.525 397.619 907.885 427.018 892.813C393.649 894.966 356.477 906.872 339.877 938.157C339.962 938.157 340.088 938.157 340.173 938.157C340.637 938.157 341.144 937.861 340.299 937.819V937.861ZM334.977 854.73C356.266 854.73 343.721 853.421 319.771 845.822C288.218 835.731 264.436 811.539 241.542 788.698C238.079 784.223 234.531 778.861 235.629 772.866C234.531 774.512 233.728 776.708 233.432 778.903C232.756 793.553 243.781 805.713 251.891 816.901C268.111 839.109 293.202 854.012 320.996 854.646C326.698 854.688 331.345 854.73 334.977 854.73ZM217.001 852.661C212.692 867.354 245.259 877.571 255.946 881.751C266.802 885.044 278.376 886.395 289.865 886.395C297.806 886.395 305.747 885.762 313.435 884.664C300.425 880.231 213.917 864.272 217.043 852.704L217.001 852.661ZM704.873 790.725C762.573 787.009 791 730.899 807.178 682.515C775.667 720.766 750.492 769.488 702.676 789.416C702.592 789.374 702.508 789.289 702.465 789.247C702.296 788.867 702.465 788.234 702.254 788.023C701.156 789.838 702.719 790.725 704.282 790.725C704.493 790.725 704.662 790.725 704.831 790.725H704.873ZM751.59 819.012C751.59 818.674 751.337 819.139 751.548 819.223C752.055 819.223 752.52 819.223 753.027 819.223C804.94 819.223 830.495 766.786 847.855 725.326C816.26 757.118 795.393 802.04 751.633 819.012H751.59ZM819.132 425.986C824.75 336.226 774.949 269.519 686.034 251.744C686.034 251.744 685.949 251.744 685.907 251.702C752.857 290.586 800.251 350.032 819.132 426.028V425.986ZM782.468 1382.23L783.017 1381.93L784.031 1381.34L784.96 1380.75L785.425 1380.5L786.692 1379.86L787.832 1379.36L788.508 1379.1L788.804 1378.98L789.142 1378.89L789.733 1378.72H790.029L790.324 1378.64H791.423L791.676 1378.72H791.93L792.183 1378.81H792.436L792.69 1378.93L793.957 1379.36L794.168 1379.44L794.422 1379.52L794.675 1379.65L795.182 1379.82L796.956 1380.71L797.548 1380.96L797.843 1381.13L798.097 1381.26L798.392 1381.42L798.646 1381.55L798.941 1381.72H799.068C830.664 1360.78 846.968 1323.67 844.856 1286.18C843.927 1262.58 846.419 1247.04 838.013 1281.07C829.777 1318.43 811.233 1357.87 781.37 1382.9L782.468 1382.23ZM137.59 767.799C142.954 729.59 137.928 690.114 138.815 651.441C137.716 556.995 140.884 462.506 153.81 368.947C158.118 325.165 156.851 279.103 174.93 238.107C193.135 201.376 206.863 194.578 246.273 187.19C267.816 183.137 295.736 176.001 319.517 172.962C352.591 169.922 385.834 168.486 418.781 163.969C449.405 161.182 480.114 155.947 510.949 157.214C542.038 161.436 573.675 165.995 604.933 164.391C573.929 159.747 544.488 149.572 515.046 139.186C476.312 129.686 435.762 129.897 396.056 128.293C363.869 128.293 331.471 125 299.453 129.179C267.309 134.921 234.784 140.748 203.569 150.585C185.701 157.593 168.383 167.177 156.809 183.052C136.787 209.609 124.453 241.062 119.3 273.825C112.372 318.874 113.302 364.809 107.979 410.069C102.826 473.484 107.515 537.489 111.401 600.861C114.738 632.315 116.343 663.98 123.101 694.927C128.677 719.12 136.534 742.763 137.59 767.799ZM911.553 838.813C899.853 952.638 891.236 1066.51 884.435 1180.8C878.564 1264.86 878.775 1349.72 867.159 1433.19C865.638 1499.89 672.348 1489.21 622.209 1488.41C603.201 1487.27 584.151 1483.43 565.143 1486.51C555.343 1486.43 537.349 1496.56 537.898 1480.52C535.955 1483.6 533.252 1487.65 532.872 1491.49C548.416 1534.68 636.824 1524.59 675.601 1529.41C772.415 1524.72 913.243 1536.92 907.794 1401.9C917.72 1250.25 911.089 1098.13 911.004 946.305C911.131 910.587 911.722 874.278 911.596 838.855L911.553 838.813ZM781.201 155.187C777.061 160.802 785.425 166.038 789.1 168.993C806.967 187.19 836.366 181.11 854.234 197.28C884.055 239.5 883.97 294.386 891.025 343.784C916.96 474.244 916.58 607.321 924.943 739.596C930.984 607.659 944.712 474.201 923.169 342.686C918.903 259.175 909.864 114.107 789.015 152.696C793.239 143.07 784.875 152.105 781.243 155.187H781.201ZM162.554 1267.01C158.963 1220.19 163.61 1173.24 162.385 1126.37C163.272 1053.92 145.531 982.995 138.477 911.685C121.454 962.349 120.989 1032.48 123.524 1090.44C125.763 1160.53 117.146 1230.7 125.763 1300.53C134.76 1447.5 144.982 1536.25 318.588 1534.05C344.777 1533.84 370.881 1532.23 397.028 1530.88C366.911 1527.25 335.822 1523.79 305.578 1518.81C139.617 1493.73 182.871 1396.2 162.554 1267.01Z" fill="black"/>
</g>
</svg>
